<svg width="762" height="480" viewBox="0 0 762 480" fill="none" xmlns="http://www.w3.org/2000/svg">
<g clip-path="url(#clip0_4_272)">
<path d="M509.751 462.648C508.723 459.296 506.364 456.153 503.034 455.068C499.704 453.982 495.461 455.62 494.414 458.972C491.351 456.401 486.632 458.439 484.158 461.601C480.163 466.705 483.245 475.048 483.911 475.6C484.634 476.191 486.575 476.076 486.575 476.076L516.467 475.905C516.467 475.905 521.947 475.505 524.478 474.495C529.577 472.457 533.04 463.696 529.749 459.296C527.522 456.306 523.108 455.658 519.55 456.801C515.992 457.944 512.529 460.172 509.732 462.648" fill="#82CAAF"/>
<path d="M486.156 477.086C485.395 477.086 484.044 476.991 483.283 476.362C482.103 475.41 479.135 466.401 483.378 460.991C485.167 458.706 487.831 457.125 490.361 456.858C491.674 456.706 492.911 456.934 493.977 457.506C494.624 456.344 495.632 455.391 496.926 454.706C498.886 453.677 501.283 453.468 503.338 454.115C506.307 455.068 508.799 457.582 510.207 460.972C513.118 458.61 516.296 456.82 519.283 455.868C522.861 454.725 527.903 455.125 530.567 458.706C532.108 460.763 532.451 463.81 531.537 467.067C530.434 470.953 527.827 474.229 524.858 475.41C522.214 476.457 516.791 476.876 516.543 476.895L486.594 477.067C486.499 477.067 486.347 477.067 486.156 477.067V477.086ZM491.122 458.801C490.932 458.801 490.761 458.801 490.571 458.839C488.592 459.048 486.385 460.382 484.938 462.229C481.437 466.705 484.044 474.172 484.615 474.934C484.748 475.029 485.738 475.162 486.537 475.124L516.467 474.953C516.467 474.953 521.757 474.553 524.116 473.619C526.495 472.667 528.702 469.848 529.615 466.572C530.376 463.905 530.129 461.486 528.968 459.925C526.875 457.125 522.784 456.839 519.854 457.772C516.753 458.763 513.385 460.763 510.397 463.41C510.15 463.639 509.808 463.715 509.484 463.62C509.161 463.524 508.913 463.277 508.799 462.953C507.753 459.506 505.469 456.915 502.729 456.02C501.169 455.525 499.342 455.696 497.839 456.477C496.602 457.125 495.727 458.115 495.366 459.277C495.271 459.601 495.023 459.829 494.7 459.925C494.395 460.02 494.034 459.944 493.786 459.734C493.044 459.106 492.15 458.801 491.141 458.801H491.122Z" fill="#56B18B"/>
<path d="M478.317 461.525C477.461 463.182 477.099 464.991 477.289 466.858C477.385 467.791 478.869 467.81 478.774 466.858C478.602 465.239 478.85 463.715 479.592 462.267C480.029 461.429 478.755 460.667 478.317 461.525Z" fill="#56B18B"/>
<path d="M473.998 462.705C473.541 464.382 473.503 466.058 473.864 467.753C474.074 468.686 475.501 468.286 475.291 467.353C474.968 465.924 475.025 464.515 475.425 463.086C475.672 462.172 474.245 461.772 473.998 462.686V462.705Z" fill="#56B18B"/>
<path d="M482.294 459.696C483.245 459.696 483.245 458.21 482.294 458.21C481.342 458.21 481.342 459.696 482.294 459.696Z" fill="#56B18B"/>
<path d="M486.499 466.858V468.172C486.499 469.124 487.983 469.124 487.983 468.172V466.858C487.983 465.905 486.499 465.905 486.499 466.858Z" fill="#56B18B"/>
<path d="M511.482 469.162V469.829C511.482 470.781 512.966 470.781 512.966 469.829V469.162C512.966 468.21 511.482 468.21 511.482 469.162Z" fill="#56B18B"/>
<path d="M508.742 467.391L509.066 467.715C509.732 468.381 510.778 467.334 510.112 466.667L509.789 466.343C509.123 465.677 508.076 466.724 508.742 467.391Z" fill="#56B18B"/>
<path d="M88.1931 434.726H38.0933C37.0088 434.726 36.1145 433.849 36.1145 432.745C36.1145 431.64 36.9897 430.764 38.0933 430.764H88.1931C89.2777 430.764 90.172 431.64 90.172 432.745C90.172 433.849 89.2967 434.726 88.1931 434.726Z" fill="#548194"/>
<path d="M529.349 260.809H527.922C527.922 259.628 526.952 258.656 525.772 258.656C524.592 258.656 523.622 259.628 523.622 260.809H522.195C522.195 258.828 523.793 257.228 525.772 257.228C527.751 257.228 529.349 258.828 529.349 260.809Z" fill="white"/>
<path d="M534.467 177.402H533.04C533.04 176.222 532.07 175.25 530.89 175.25C529.711 175.25 528.74 176.222 528.74 177.402H527.313C527.313 175.422 528.911 173.822 530.89 173.822C532.869 173.822 534.467 175.422 534.467 177.402Z" fill="white"/>
<path d="M356.35 467.22H288.25L289.41 464.477C293.882 453.868 294.339 444.801 293.654 434.421L293.52 432.326L350.927 432.154V434.116C350.984 440.821 352.811 456.039 355.532 464.648L356.35 467.22ZM294.129 463.277H351.022C348.834 454.991 347.35 443.011 347.045 436.116L297.706 436.268C298.182 445.468 297.611 453.83 294.129 463.277Z" fill="#568194"/>
<path d="M268.689 436.078C216.991 436.078 175.111 435.792 173.285 435.145C168.851 433.564 163.086 427.431 162.991 423.069C162.82 413.641 162.42 400.803 161.944 385.928C160.536 341.091 158.595 279.703 161.107 245.724C161.564 239.533 166.682 234.753 172.771 234.753H172.961L470.991 235.191C477.289 235.305 482.351 240.39 482.503 246.79C482.731 256.714 483.055 266.866 483.378 277.132C484.748 320.178 486.156 364.69 481.399 406.765C481.209 408.422 481.133 410.25 481.038 412.155C480.638 420.993 480.144 431.983 468.765 434.23C463.209 435.335 352.906 436.078 268.67 436.078H268.689ZM172.809 237.933C168.338 237.933 164.608 241.438 164.266 245.971C161.773 279.779 163.695 341.091 165.103 385.851C165.579 400.727 165.978 413.584 166.149 423.031C166.206 425.774 170.792 430.897 174.331 432.173C180.667 433.468 460.868 432.516 468.156 431.145C477.08 429.373 477.48 420.574 477.879 412.041C477.974 410.06 478.051 408.155 478.26 406.441C482.998 364.576 481.59 320.197 480.22 277.265C479.896 266.98 479.573 256.828 479.344 246.885C479.23 242.2 475.558 238.486 470.972 238.391L172.961 237.952H172.828L172.809 237.933Z" fill="#568194"/>
<path fill-rule="evenodd" clip-rule="evenodd" d="M462.676 245.457L181.866 245.095C176.824 245.019 172.581 248.485 172.2 253.019C169.061 290.636 173.342 369.128 173.97 400.727C174.027 403.813 179.05 408.422 182.665 409.565C186.928 410.917 453.771 409.889 460.298 408.746C472.019 406.708 470.021 394.689 470.991 387.013C476.547 343.567 473.141 296.331 472.038 253.838C471.924 249.228 467.776 245.552 462.657 245.476L462.676 245.457Z" fill="#FEFFFF"/>
<path d="M380.705 478.019H263.875C259.233 478.019 256.816 474.362 256.816 470.762C256.816 467.162 259.233 463.486 263.875 463.486H380.705C385.348 463.486 387.764 467.143 387.764 470.743C387.764 474.343 385.348 478.019 380.705 478.019ZM263.875 466.667C260.812 466.667 259.994 469.239 259.994 470.762C259.994 472.286 260.812 474.838 263.875 474.838H380.705C383.769 474.838 384.587 472.267 384.587 470.743C384.587 469.219 383.769 466.667 380.705 466.667H263.875Z" fill="#568194"/>
<path d="M182.494 425.012C187.746 425.012 187.746 416.841 182.494 416.841C177.243 416.841 177.243 425.012 182.494 425.012Z" fill="#568194"/>
<path d="M198.934 425.012C204.186 425.012 204.186 416.841 198.934 416.841C193.682 416.841 193.682 425.012 198.934 425.012Z" fill="#568194"/>
<path d="M215.374 425.012C220.626 425.012 220.626 416.841 215.374 416.841C210.122 416.841 210.122 425.012 215.374 425.012Z" fill="#568194"/>
<path d="M322.29 243.019C324.745 243.019 324.764 239.19 322.29 239.19C319.817 239.19 319.817 243.019 322.29 243.019Z" fill="#568194"/>
<path d="M651.792 470.267H611.529L627.018 419.355H636.303L651.792 470.267Z" fill="#FEFFFF"/>
<path d="M655.122 470.267H608.219V476.076H655.122V470.267Z" fill="#FEFFFF"/>
<path d="M615.411 457.544L611.529 470.267H651.792L647.929 457.544H615.411Z" fill="#568194"/>
<path d="M619.274 444.82H644.048L640.185 432.078H623.155L619.274 444.82Z" fill="#568194"/>
<path d="M668.251 475.753H677.175V441.125H723.031V475.753H731.955V441.125H741.412V413.469H733.858V410.917H720.843V413.469H680.219V410.917H667.204V413.469H658.927V441.125H668.232V475.753H668.251ZM738.558 416.364V416.479L733.059 438.23H723.241L728.778 416.364H738.577H738.558ZM712.928 438.23H703.109L708.646 416.364H718.465L712.928 438.23ZM692.815 438.23H682.997L688.534 416.364H698.353L692.815 438.23ZM668.403 416.364H678.221L672.684 438.23H662.866L668.403 416.364Z" fill="#FEFFFF"/>
<path d="M228.864 137.271L231.547 134.585C232.099 134.052 232.099 133.157 231.547 132.623L229.207 130.3C228.674 129.747 228.522 128.776 228.903 128.09L230.805 123.481C231.015 122.738 231.833 122.148 232.594 122.148H235.886C236.647 122.148 237.275 121.519 237.275 120.757V116.967C237.275 116.205 236.647 115.576 235.886 115.576H232.594C231.833 115.576 231.034 114.967 230.805 114.243L228.903 109.634C228.541 108.967 228.674 107.977 229.207 107.424L231.547 105.101C232.099 104.548 232.099 103.672 231.547 103.139L228.864 100.453C228.332 99.9199 227.437 99.9199 226.905 100.453L224.564 102.796C224.012 103.329 223.042 103.482 222.376 103.12L217.752 101.215C217.01 101.006 216.42 100.206 216.42 99.4246V96.1295C216.42 95.3677 215.792 94.7391 215.031 94.7391H211.245C210.484 94.7391 209.856 95.3677 209.856 96.1295V99.4246C209.856 100.187 209.266 100.986 208.524 101.215L203.9 103.12C203.234 103.482 202.245 103.348 201.712 102.796L199.372 100.472C198.839 99.9198 197.945 99.9198 197.412 100.472L194.729 103.158C194.177 103.691 194.177 104.567 194.729 105.12L197.05 107.443C197.583 107.996 197.735 108.986 197.374 109.653L195.471 114.262C195.262 115.005 194.443 115.595 193.682 115.595H190.372C189.61 115.595 188.983 116.205 188.983 116.986V120.776C188.983 121.538 189.61 122.167 190.372 122.167H193.682C194.443 122.167 195.243 122.776 195.471 123.5L197.374 128.109C197.735 128.776 197.602 129.766 197.05 130.319L194.729 132.642C194.177 133.195 194.177 134.071 194.729 134.604L197.412 137.29C197.945 137.842 198.82 137.842 199.372 137.29L201.712 134.966C202.245 134.433 203.234 134.28 203.919 134.661L208.524 136.566C209.266 136.776 209.856 137.576 209.856 138.356V141.671C209.856 142.432 210.484 143.061 211.245 143.061H215.031C215.792 143.061 216.42 142.432 216.42 141.671V138.356C216.42 137.595 217.01 136.795 217.752 136.566L222.376 134.661C223.042 134.299 224.031 134.433 224.564 134.966L226.905 137.29C227.437 137.842 228.332 137.842 228.864 137.29V137.271ZM213.148 129.938C207.04 129.938 202.074 124.966 202.074 118.852C202.074 112.738 207.04 107.767 213.148 107.767C219.256 107.767 224.222 112.719 224.222 118.852C224.222 124.986 219.256 129.938 213.148 129.938Z" fill="#FEFFFF"/>
<path d="M254.476 147.747L253.791 145.499C253.658 145.042 253.163 144.794 252.725 144.928L250.765 145.518C250.309 145.651 249.719 145.442 249.471 145.042L247.512 142.661C247.188 142.337 247.093 141.709 247.302 141.29L248.273 139.48C248.501 139.061 248.33 138.528 247.93 138.318L245.856 137.214C245.438 136.985 244.924 137.156 244.696 137.575L243.725 139.385C243.497 139.804 242.945 140.071 242.469 139.975L239.387 139.671C238.911 139.671 238.416 139.309 238.283 138.852L237.693 136.89C237.56 136.433 237.084 136.185 236.628 136.318L234.383 136.985C233.926 137.118 233.678 137.614 233.812 138.071L234.402 140.033C234.535 140.49 234.325 141.061 233.926 141.328L231.547 143.29C231.224 143.632 230.596 143.709 230.177 143.499L228.37 142.528C227.951 142.299 227.437 142.451 227.209 142.89L226.086 144.947C225.877 145.366 226.029 145.899 226.429 146.108L228.237 147.08C228.655 147.308 228.922 147.861 228.826 148.318L228.522 151.403C228.522 151.88 228.16 152.375 227.704 152.508L225.744 153.099C225.287 153.232 225.021 153.727 225.173 154.165L225.858 156.413C225.991 156.87 226.467 157.118 226.924 156.984L228.884 156.394C229.34 156.26 229.911 156.47 230.177 156.87L232.137 159.27C232.48 159.594 232.556 160.222 232.347 160.641L231.376 162.451C231.148 162.87 231.319 163.384 231.738 163.613L233.812 164.717C234.23 164.946 234.744 164.774 234.972 164.374L235.943 162.565C236.152 162.146 236.723 161.879 237.18 161.975L240.243 162.279C240.719 162.279 241.213 162.641 241.366 163.098L241.956 165.06C242.089 165.517 242.583 165.784 243.021 165.632L245.266 164.946C245.723 164.812 245.97 164.317 245.837 163.879L245.247 161.917C245.114 161.46 245.323 160.87 245.723 160.622L248.12 158.66C248.444 158.318 249.072 158.222 249.49 158.451L251.298 159.422C251.717 159.651 252.249 159.498 252.459 159.079L253.562 157.003C253.791 156.584 253.619 156.07 253.201 155.841L251.393 154.87C250.975 154.641 250.708 154.089 250.803 153.632L251.108 150.546C251.108 150.07 251.469 149.575 251.926 149.442L253.886 148.851C254.342 148.718 254.59 148.242 254.457 147.785L254.476 147.747ZM245.875 154.184C244.087 157.537 239.92 158.794 236.59 157.003C233.241 155.213 231.985 151.042 233.774 147.708C235.562 144.356 239.729 143.099 243.059 144.889C246.389 146.68 247.645 150.851 245.856 154.184H245.875Z" fill="#FEFFFF"/>
<path d="M366.51 191.135H304.48C303.396 191.135 302.501 190.259 302.501 189.154C302.501 188.05 303.377 187.174 304.48 187.174H366.51C367.595 187.174 368.489 188.05 368.489 189.154C368.489 190.259 367.614 191.135 366.51 191.135Z" fill="#548194"/>
<path d="M240.243 219.344H140.043C138.959 219.344 138.065 218.468 138.065 217.363C138.065 216.258 138.94 215.382 140.043 215.382H240.243C241.328 215.382 242.222 216.258 242.222 217.363C242.222 218.468 241.347 219.344 240.243 219.344Z" fill="#548194"/>
<path d="M720.634 272.751H620.434C619.35 272.751 618.455 271.875 618.455 270.77C618.455 269.665 619.331 268.789 620.434 268.789H720.634C721.718 268.789 722.613 269.665 722.613 270.77C722.613 271.875 721.738 272.751 720.634 272.751Z" fill="#548194"/>
<path d="M760.04 480H1.97887C0.894299 480 0 479.124 0 478.019C0 476.914 0.875271 476.038 1.97887 476.038H760.04C761.125 476.038 762.019 476.914 762.019 478.019C762.019 479.124 761.144 480 760.04 480Z" fill="#548194"/>
<path d="M481.97 166.336C477.727 166.336 473.731 167.993 470.725 171.003C465.606 176.126 464.579 184.088 468.251 190.335L468.518 190.773L452.401 206.906C452.401 206.906 451.621 207.668 451.602 208.735C451.602 209.554 452.002 210.373 452.82 211.192C453.676 212.049 454.589 212.506 455.522 212.506C456.625 212.506 457.405 211.858 457.425 211.858L473.503 195.764L473.941 196.03C476.376 197.459 479.154 198.221 481.989 198.221C486.232 198.221 490.228 196.564 493.235 193.554C499.438 187.345 499.438 177.231 493.235 171.022C490.228 168.012 486.232 166.355 481.97 166.355V166.336ZM481.97 193.459C475.805 193.459 470.782 188.431 470.782 182.259C470.782 176.088 475.805 171.06 481.97 171.06C488.135 171.06 493.158 176.088 493.158 182.259C493.158 188.431 488.135 193.459 481.97 193.459Z" fill="#FEFFFF"/>
<path d="M476.072 184.583H487.602V181.631H476.072V184.583Z" fill="#FEFFFF"/>
<path d="M186.433 476.343C185.348 476.343 184.454 475.467 184.454 474.362V322.235C184.454 321.149 185.329 320.254 186.433 320.254C187.536 320.254 188.412 321.13 188.412 322.235V474.362C188.412 475.448 187.536 476.343 186.433 476.343Z" fill="#548194"/>
<path d="M221.767 476.343C220.683 476.343 219.788 475.467 219.788 474.362V322.235C219.788 321.149 220.664 320.254 221.767 320.254C222.871 320.254 223.746 321.13 223.746 322.235V474.362C223.746 475.448 222.871 476.343 221.767 476.343Z" fill="#548194"/>
<path d="M221.767 334.596H186.452C185.367 334.596 184.473 333.72 184.473 332.615C184.473 331.511 185.348 330.635 186.452 330.635H221.767C222.852 330.635 223.746 331.511 223.746 332.615C223.746 333.72 222.871 334.596 221.767 334.596Z" fill="#548194"/>
<path d="M221.767 351.986H186.452C185.367 351.986 184.473 351.11 184.473 350.005C184.473 348.9 185.348 348.024 186.452 348.024H221.767C222.852 348.024 223.746 348.9 223.746 350.005C223.746 351.11 222.871 351.986 221.767 351.986Z" fill="#548194"/>
<path d="M221.767 369.376H186.452C185.367 369.376 184.473 368.5 184.473 367.395C184.473 366.29 185.348 365.414 186.452 365.414H221.767C222.852 365.414 223.746 366.29 223.746 367.395C223.746 368.5 222.871 369.376 221.767 369.376Z" fill="#548194"/>
<path d="M221.767 386.747H186.452C185.367 386.747 184.473 385.87 184.473 384.766C184.473 383.661 185.348 382.785 186.452 382.785H221.767C222.852 382.785 223.746 383.661 223.746 384.766C223.746 385.87 222.871 386.747 221.767 386.747Z" fill="#548194"/>
<path d="M221.767 404.136H186.452C185.367 404.136 184.473 403.26 184.473 402.155C184.473 401.051 185.348 400.175 186.452 400.175H221.767C222.852 400.175 223.746 401.051 223.746 402.155C223.746 403.26 222.871 404.136 221.767 404.136Z" fill="#548194"/>
<path d="M221.767 421.507H186.452C185.367 421.507 184.473 420.631 184.473 419.526C184.473 418.421 185.348 417.545 186.452 417.545H221.767C222.852 417.545 223.746 418.421 223.746 419.526C223.746 420.631 222.871 421.507 221.767 421.507Z" fill="#548194"/>
<path d="M221.767 438.897H186.452C185.367 438.897 184.473 438.021 184.473 436.916C184.473 435.811 185.348 434.935 186.452 434.935H221.767C222.852 434.935 223.746 435.811 223.746 436.916C223.746 438.021 222.871 438.897 221.767 438.897Z" fill="#548194"/>
<path d="M221.767 456.268H186.452C185.367 456.268 184.473 455.391 184.473 454.287C184.473 453.182 185.348 452.306 186.452 452.306H221.767C222.852 452.306 223.746 453.182 223.746 454.287C223.746 455.391 222.871 456.268 221.767 456.268Z" fill="#548194"/>
<path d="M138.35 329.606C137.265 329.606 136.371 328.73 136.371 327.625V319.93C136.371 318.844 137.246 317.949 138.35 317.949C139.454 317.949 140.329 318.825 140.329 319.93V327.625C140.329 328.711 139.454 329.606 138.35 329.606Z" fill="#548194"/>
<path d="M142.175 325.759H134.487C133.403 325.759 132.508 324.882 132.508 323.778C132.508 322.673 133.384 321.797 134.487 321.797H142.175C143.259 321.797 144.153 322.673 144.153 323.778C144.153 324.882 143.278 325.759 142.175 325.759Z" fill="#548194"/>
<path d="M315.802 54.5121C314.717 54.5121 313.823 53.636 313.823 52.5312V44.8363C313.823 43.7506 314.698 42.8554 315.802 42.8554C316.905 42.8554 317.781 43.7316 317.781 44.8363V52.5312C317.781 53.6169 316.905 54.5121 315.802 54.5121Z" fill="#548194"/>
<path d="M319.645 50.6647H311.958C310.874 50.6647 309.979 49.7885 309.979 48.6838C309.979 47.5791 310.855 46.7029 311.958 46.7029H319.645C320.73 46.7029 321.624 47.5791 321.624 48.6838C321.624 49.7885 320.749 50.6647 319.645 50.6647Z" fill="#548194"/>
<path d="M378.022 452.706C377.851 452.706 377.661 452.687 377.47 452.63L370.088 450.515C369.041 450.211 368.432 449.125 368.737 448.077C369.041 447.03 370.126 446.439 371.172 446.725L378.555 448.839C379.601 449.144 380.21 450.23 379.906 451.277C379.659 452.153 378.859 452.706 378.003 452.706H378.022Z" fill="#548194"/>
<path d="M373.265 455.353C373.094 455.353 372.904 455.334 372.714 455.277C371.667 454.972 371.058 453.887 371.363 452.839L373.475 445.449C373.779 444.401 374.864 443.811 375.91 444.097C376.957 444.401 377.566 445.487 377.261 446.535L375.149 453.925C374.902 454.801 374.103 455.353 373.246 455.353H373.265Z" fill="#548194"/>
<path d="M339.206 220.41C339.035 220.41 338.844 220.391 338.673 220.334L331.29 218.22C330.244 217.915 329.635 216.83 329.939 215.782C330.244 214.734 331.328 214.125 332.375 214.43L339.758 216.544C340.804 216.849 341.413 217.934 341.109 218.982C340.861 219.858 340.062 220.41 339.206 220.41Z" fill="#548194"/>
<path d="M334.449 223.039C334.278 223.039 334.087 223.02 333.897 222.963C332.851 222.658 332.242 221.572 332.546 220.525L334.658 213.134C334.963 212.087 336.047 211.477 337.094 211.782C338.14 212.087 338.749 213.173 338.445 214.22L336.333 221.61C336.085 222.486 335.286 223.039 334.43 223.039H334.449Z" fill="#548194"/>
<path d="M353.425 167.017C364.132 156.299 364.132 138.921 353.425 128.202C342.717 117.484 325.356 117.484 314.649 128.202C303.941 138.921 303.941 156.299 314.649 167.017C325.356 177.736 342.717 177.736 353.425 167.017Z" fill="#FEFFFF"/>
<path d="M334.03 168.165C345.369 168.165 354.561 158.963 354.561 147.613C354.561 136.263 345.369 127.062 334.03 127.062C322.691 127.062 313.499 136.263 313.499 147.613C313.499 158.963 322.691 168.165 334.03 168.165Z" fill="white"/>
<path d="M334.03 168.965C322.271 168.965 312.7 159.384 312.7 147.613C312.7 135.842 322.271 126.262 334.03 126.262C345.789 126.262 355.36 135.842 355.36 147.613C355.36 159.384 345.789 168.965 334.03 168.965ZM334.03 127.862C323.147 127.862 314.299 136.718 314.299 147.632C314.299 158.546 323.147 167.384 334.03 167.384C344.914 167.384 353.762 158.527 353.762 147.632C353.762 136.737 344.914 127.862 334.03 127.862Z" fill="#548194"/>
<path d="M334.03 148.394C333.593 148.394 333.231 148.032 333.231 147.594V137.137C333.231 136.699 333.593 136.337 334.03 136.337C334.468 136.337 334.829 136.699 334.829 137.137V147.594C334.829 148.032 334.468 148.394 334.03 148.394Z" fill="#548194"/>
<path d="M346.265 148.394H334.011C333.574 148.394 333.212 148.032 333.212 147.594C333.212 147.156 333.574 146.794 334.011 146.794H346.265C346.703 146.794 347.064 147.156 347.064 147.594C347.064 148.032 346.703 148.394 346.265 148.394Z" fill="#548194"/>
<path d="M334.829 129.366C334.829 129.823 334.468 130.185 334.011 130.185C333.555 130.185 333.193 129.823 333.193 129.366C333.193 128.909 333.555 128.547 334.011 128.547C334.468 128.547 334.829 128.909 334.829 129.366Z" fill="#548194"/>
<path d="M347.483 135.29C347.159 135.614 346.646 135.614 346.341 135.29C346.018 134.966 346.018 134.452 346.341 134.147C346.665 133.823 347.178 133.823 347.483 134.147C347.806 134.471 347.806 134.985 347.483 135.29Z" fill="#548194"/>
<path d="M352.24 148.413C351.783 148.413 351.422 148.051 351.422 147.594C351.422 147.137 351.783 146.775 352.24 146.775C352.696 146.775 353.058 147.137 353.058 147.594C353.058 148.051 352.696 148.413 352.24 148.413Z" fill="#548194"/>
<path d="M346.322 161.079C345.999 160.756 345.999 160.241 346.322 159.937C346.646 159.632 347.159 159.613 347.464 159.937C347.787 160.26 347.787 160.775 347.464 161.079C347.14 161.403 346.627 161.403 346.322 161.079Z" fill="#548194"/>
<path d="M333.212 165.841C333.212 165.384 333.574 165.022 334.03 165.022C334.487 165.022 334.848 165.384 334.848 165.841C334.848 166.298 334.487 166.66 334.03 166.66C333.574 166.66 333.212 166.298 333.212 165.841Z" fill="#548194"/>
<path d="M320.578 159.917C320.901 159.594 321.415 159.594 321.719 159.917C322.024 160.241 322.043 160.755 321.719 161.06C321.396 161.365 320.882 161.384 320.578 161.06C320.254 160.736 320.254 160.222 320.578 159.917Z" fill="#548194"/>
<path d="M315.802 148.432C316.254 148.432 316.62 148.066 316.62 147.613C316.62 147.161 316.254 146.794 315.802 146.794C315.35 146.794 314.984 147.161 314.984 147.613C314.984 148.066 315.35 148.432 315.802 148.432Z" fill="#548194"/>
<path d="M321.719 134.128C322.043 134.452 322.043 134.966 321.719 135.271C321.396 135.595 320.882 135.595 320.578 135.271C320.273 134.947 320.254 134.433 320.578 134.128C320.901 133.823 321.415 133.804 321.719 134.128Z" fill="#548194"/>
<path d="M374.122 137.118H362.61C362.172 137.118 361.811 136.756 361.811 136.318C361.811 135.88 362.172 135.518 362.61 135.518H374.122C374.559 135.518 374.921 135.88 374.921 136.318C374.921 136.756 374.559 137.118 374.122 137.118Z" fill="#548194"/>
<path d="M374.122 159.67H362.61C362.172 159.67 361.811 159.308 361.811 158.87C361.811 158.432 362.172 158.07 362.61 158.07H374.122C374.559 158.07 374.921 158.432 374.921 158.87C374.921 159.308 374.559 159.67 374.122 159.67Z" fill="#548194"/>
<path d="M388.43 148.413H366.929C366.491 148.413 366.13 148.051 366.13 147.613C366.13 147.175 366.491 146.813 366.929 146.813H388.43C388.868 146.813 389.23 147.175 389.23 147.613C389.23 148.051 388.868 148.413 388.43 148.413Z" fill="#548194"/>
<path d="M425.934 444.82H413.223V457.544H425.934V444.82Z" fill="white"/>
<path d="M426.942 458.534H412.253V443.83H426.942V458.534ZM414.232 456.553H424.982V445.792H414.232V456.553Z" fill="#568194"/>
<path d="M442.031 447.62H430.519C430.082 447.62 429.72 447.258 429.72 446.82C429.72 446.382 430.082 446.02 430.519 446.02H442.031C442.469 446.02 442.83 446.382 442.83 446.82C442.83 447.258 442.469 447.62 442.031 447.62Z" fill="#548194"/>
<path d="M446.369 456.325H430.805C430.215 456.325 429.739 455.963 429.739 455.525C429.739 455.087 430.215 454.725 430.805 454.725H446.369C446.959 454.725 447.435 455.087 447.435 455.525C447.435 455.963 446.959 456.325 446.369 456.325Z" fill="#548194"/>
<path d="M452.021 451.735H430.519C430.082 451.735 429.72 451.373 429.72 450.935C429.72 450.496 430.082 450.135 430.519 450.135H452.021C452.458 450.135 452.82 450.496 452.82 450.935C452.82 451.373 452.458 451.735 452.021 451.735Z" fill="#548194"/>
<path d="M134.05 270.77H146.76V258.047H134.05V270.77Z" fill="white"/>
<path d="M147.75 271.761H133.06V257.057H147.75V271.761ZM135.039 269.78H145.771V259.037H135.039V269.78Z" fill="#568194"/>
<path d="M117.952 260.847H129.464C129.902 260.847 130.263 260.485 130.263 260.047C130.263 259.609 129.902 259.247 129.464 259.247H117.952C117.515 259.247 117.153 259.609 117.153 260.047C117.153 260.485 117.515 260.847 117.952 260.847Z" fill="#548194"/>
<path d="M113.633 269.57H129.198C129.788 269.57 130.263 269.208 130.263 268.77C130.263 268.332 129.788 267.97 129.198 267.97H113.633C113.043 267.97 112.568 268.332 112.568 268.77C112.568 269.208 113.043 269.57 113.633 269.57Z" fill="#548194"/>
<path d="M107.963 264.961H129.464C129.902 264.961 130.263 264.599 130.263 264.161C130.263 263.723 129.902 263.361 129.464 263.361H107.963C107.525 263.361 107.164 263.723 107.164 264.161C107.164 264.599 107.525 264.961 107.963 264.961Z" fill="#548194"/>
<path d="M525.753 305.874H521.814V475.753H525.753V305.874Z" fill="#528094"/>
<path d="M524.231 287.284H523.355C516.892 287.284 511.653 292.528 511.653 298.998V314.711C511.653 321.181 516.892 326.425 523.355 326.425H524.231C530.693 326.425 535.933 321.181 535.933 314.711V298.998C535.933 292.528 530.693 287.284 524.231 287.284Z" fill="#FEFFFF"/>
<path d="M539.681 315.054C541.07 315.283 542.459 315.492 543.848 315.721C544.78 315.873 545.18 314.445 544.248 314.292C542.859 314.064 541.47 313.854 540.081 313.626C539.148 313.473 538.749 314.902 539.681 315.054Z" fill="#528094"/>
<path d="M539.548 306.007C540.632 305.816 541.717 305.797 542.821 305.893C543.772 305.988 543.753 304.502 542.821 304.407C541.584 304.293 540.385 304.35 539.148 304.578C538.216 304.75 538.615 306.178 539.548 306.007Z" fill="#528094"/>
<path d="M539.091 297.76C540.157 297.341 541.222 296.922 542.288 296.483C543.163 296.141 542.782 294.712 541.888 295.055C540.823 295.474 539.757 295.893 538.692 296.331C537.816 296.674 538.197 298.102 539.091 297.76Z" fill="#528094"/>
<path d="M502.805 316.445C503.89 316.292 504.956 316.045 506.002 315.683C506.896 315.378 506.516 313.949 505.602 314.254C504.556 314.616 503.509 314.864 502.406 315.016C501.473 315.149 501.873 316.578 502.805 316.445Z" fill="#528094"/>
<path d="M500.884 305.912C502.254 305.95 503.586 306.159 504.899 306.521C505.812 306.788 506.211 305.359 505.298 305.093C503.852 304.693 502.387 304.464 500.884 304.426C499.932 304.407 499.932 305.874 500.884 305.912Z" fill="#528094"/>
<path d="M502.178 293.722C503.243 294.064 504.309 294.407 505.374 294.75C506.287 295.036 506.668 293.607 505.774 293.322C504.708 292.979 503.643 292.636 502.577 292.293C501.664 292.007 501.283 293.436 502.178 293.722Z" fill="#528094"/>
<path d="M514.584 478.057L517.209 455.353H530.034L533.002 477.733L514.584 478.057Z" fill="#548194"/>
<path d="M152.411 369.357C151.822 365.738 149.272 356.424 143.659 359.376C134.563 364.157 145.542 382.271 134.582 385.47C133.993 378.252 132.451 373.28 129.179 373.566C122.462 374.176 124.25 389.813 124.136 393.337C124.022 396.841 123.851 400.441 123.699 404.06C115.783 405.489 117.362 384.842 112.548 381.985C105.071 377.547 103.491 387.432 103.682 392.003C104.024 399.775 106.117 409.089 113.424 413.203C115.821 414.574 120.064 416.098 123.375 415.831C123.337 422.04 123.604 428.231 124.631 434.135C124.631 434.192 124.745 434.192 124.764 434.135L129.198 434.383C129.198 434.383 129.198 434.44 129.198 434.459C129.16 436.402 132.204 436.421 132.223 434.459C132.28 430.707 134.582 412.288 134.849 396.67C138.388 397.203 142.84 395.546 145.371 393.68C152.925 388.137 153.8 377.947 152.411 369.357Z" fill="#82CAAF"/>
<path d="M130.663 436.745C130.206 436.745 129.769 436.63 129.388 436.402C128.912 436.116 128.589 435.678 128.437 435.164L125.164 434.992L123.984 435.03L123.794 434.287C122.919 429.278 122.519 423.678 122.519 416.726C118.885 416.726 114.889 415.031 113.005 413.964C105.223 409.565 103.187 399.622 102.844 392.061C102.711 389.013 103.339 382.728 106.745 380.69C108.477 379.661 110.57 379.852 112.967 381.28C115.288 382.651 116.183 386.899 117.21 391.813C118.599 398.46 119.855 403.241 122.9 403.317L122.976 401.679C123.109 398.86 123.223 396.06 123.318 393.318C123.318 392.784 123.318 391.946 123.28 390.937C123.071 384.785 122.671 373.319 129.141 372.728C130.13 372.633 131.043 372.919 131.843 373.585C133.65 375.109 134.792 378.614 135.363 384.289C139.454 382.461 139.225 377.737 138.997 372.309C138.75 366.824 138.502 361.148 143.316 358.614C144.876 357.795 146.38 357.719 147.75 358.424C151.764 360.443 153.153 368.309 153.287 369.204C154.352 375.795 154.809 387.813 145.904 394.346C143.43 396.175 139.244 397.775 135.705 397.584C135.477 407.774 134.43 419.012 133.726 426.516C133.384 430.269 133.098 433.24 133.079 434.459C133.079 435.316 132.642 436.04 131.919 436.44C131.538 436.649 131.119 436.745 130.701 436.745H130.663ZM125.335 433.316L130.035 433.564V434.383C129.997 434.783 130.149 434.897 130.244 434.954C130.473 435.087 130.815 435.087 131.062 434.954C131.253 434.84 131.348 434.668 131.348 434.421C131.348 433.126 131.633 430.288 131.995 426.345C132.718 418.65 133.802 407.012 133.974 396.632V395.68L134.944 395.813C138.217 396.308 142.479 394.708 144.857 392.975C153.039 386.975 152.583 375.661 151.574 369.471C151.137 366.747 149.595 361.262 146.95 359.929C146.075 359.49 145.124 359.548 144.039 360.1C140.158 362.138 140.386 367.033 140.614 372.233C140.862 377.947 141.147 384.404 134.811 386.27L133.821 386.556L133.745 385.528C133.155 378.328 131.785 375.757 130.72 374.88C130.282 374.499 129.807 374.347 129.255 374.404C124.384 374.842 124.745 385.68 124.935 390.88C124.974 391.946 124.993 392.803 124.993 393.375C124.897 396.118 124.783 398.917 124.65 401.755L124.517 404.784L123.851 404.898C118.447 405.87 116.925 398.575 115.574 392.137C114.699 388.004 113.804 383.718 112.13 382.709C110.303 381.623 108.781 381.413 107.62 382.118C105.109 383.623 104.405 388.956 104.538 391.965C104.861 399.108 106.726 408.46 113.842 412.479C116.297 413.869 120.312 415.241 123.299 414.993L124.212 414.917V415.831C124.174 422.764 124.536 428.345 125.335 433.297V433.316Z" fill="#56B18B"/>
<path d="M143.716 476.114H111.597C109.885 476.114 108.515 474.991 108.191 473.334L100.904 435.849L103.929 435.259L111.217 472.743C111.274 473.029 111.521 473.029 111.597 473.029H143.716C143.716 473.029 144.039 473.029 144.096 472.743L151.327 435.259L154.352 435.849L147.122 473.334C146.798 475.01 145.428 476.133 143.716 476.133V476.114Z" fill="#568194"/>
<path d="M101.227 423.793H154.542C155.456 423.793 156.198 424.802 156.198 426.021V434.135C156.198 435.373 155.456 436.364 154.542 436.364H101.227C100.314 436.364 99.5716 435.354 99.5716 434.135V426.021C99.5716 424.783 100.314 423.793 101.227 423.793Z" fill="#FEFFFF"/>
<path d="M154.542 437.221H101.227C99.857 437.221 98.7344 435.849 98.7344 434.135V426.021C98.7344 424.326 99.857 422.936 101.227 422.936H154.542C155.912 422.936 157.035 424.326 157.035 426.021V434.135C157.035 435.83 155.912 437.221 154.542 437.221ZM101.227 424.631C100.846 424.631 100.409 425.221 100.409 426.021V434.135C100.409 434.935 100.846 435.526 101.227 435.526H154.542C154.923 435.526 155.361 434.935 155.361 434.135V426.021C155.361 425.221 154.923 424.631 154.542 424.631H101.227Z" fill="#548194"/>
<path d="M154.542 437.087H101.227C99.9332 437.087 98.8676 435.773 98.8676 434.154V426.04C98.8676 424.421 99.9141 423.107 101.227 423.107H154.542C155.836 423.107 156.902 424.421 156.902 426.04V434.154C156.902 435.773 155.836 437.087 154.542 437.087ZM101.227 424.497C100.77 424.497 100.276 425.126 100.276 426.04V434.154C100.276 435.049 100.77 435.697 101.227 435.697H154.542C154.999 435.697 155.494 435.068 155.494 434.154V426.04C155.494 425.126 154.999 424.497 154.542 424.497H101.227Z" fill="#FEFFFF"/>
<path d="M154.542 437.925H101.227C99.4575 437.925 98.0304 436.23 98.0304 434.154V426.04C98.0304 423.964 99.4575 422.25 101.227 422.25H154.542C156.312 422.25 157.739 423.945 157.739 426.04V434.154C157.739 436.23 156.312 437.925 154.542 437.925ZM101.322 425.335C101.322 425.335 101.113 425.659 101.113 426.021V434.135C101.113 434.573 101.284 434.821 101.341 434.859H154.542C154.542 434.859 154.657 434.573 154.657 434.135V426.021C154.657 425.583 154.485 425.335 154.428 425.297H101.322V425.335Z" fill="#548194"/>
<path d="M107.03 391.927C107.906 392.042 108.781 392.156 109.656 392.27C110.608 392.384 110.589 390.899 109.656 390.784C108.781 390.67 107.906 390.556 107.03 390.442C106.079 390.327 106.098 391.813 107.03 391.927Z" fill="#56B18B"/>
<path d="M110.912 380.271V381.585C110.912 382.537 112.396 382.537 112.396 381.585V380.271C112.396 379.318 110.912 379.318 110.912 380.271Z" fill="#56B18B"/>
<path d="M116.031 393.87C116.677 393.508 117.305 393.146 117.952 392.803C118.79 392.346 118.047 391.051 117.21 391.527C116.563 391.889 115.935 392.251 115.288 392.594C114.451 393.051 115.193 394.346 116.031 393.87Z" fill="#56B18B"/>
<path d="M108.419 410.898C109.2 410.365 109.961 409.812 110.741 409.279C111.521 408.746 110.779 407.451 109.999 408.003C109.219 408.536 108.458 409.089 107.677 409.622C106.897 410.155 107.639 411.45 108.419 410.898Z" fill="#56B18B"/>
<path d="M102.882 398.175C103.434 398.384 103.986 398.613 104.538 398.822C105.432 399.165 105.813 397.737 104.937 397.394C104.386 397.184 103.834 396.956 103.282 396.746C102.388 396.403 102.007 397.832 102.882 398.175Z" fill="#56B18B"/>
<path d="M113.614 405.051C113.976 405.07 114.185 405.241 114.394 405.508C115.003 406.251 116.05 405.184 115.441 404.46C114.965 403.889 114.356 403.622 113.614 403.565C112.663 403.489 112.663 404.974 113.614 405.051Z" fill="#56B18B"/>
<path d="M116.868 412.022C116.716 413.05 116.83 413.945 117.229 414.917C117.591 415.793 118.866 415.031 118.504 414.174C118.257 413.603 118.2 413.031 118.295 412.422C118.447 411.488 117.02 411.088 116.868 412.022Z" fill="#56B18B"/>
<path d="M124.593 412.288L125.906 412.631C126.819 412.879 127.219 411.45 126.305 411.203C125.868 411.088 125.43 410.974 124.993 410.86C124.079 410.612 123.68 412.041 124.593 412.288Z" fill="#56B18B"/>
<path d="M129.331 397.718C129.255 398.556 129.578 399.317 130.225 399.87C130.948 400.479 131.995 399.432 131.272 398.822C130.891 398.498 130.777 398.194 130.815 397.718C130.91 396.765 129.426 396.765 129.331 397.718Z" fill="#56B18B"/>
<path d="M127.447 387.146C127.009 387.737 126.933 388.327 127.067 389.032C127.238 389.965 128.665 389.565 128.494 388.632C128.456 388.327 128.532 388.08 128.722 387.889C129.293 387.127 127.999 386.385 127.447 387.146Z" fill="#56B18B"/>
<path d="M135.572 391.47V392.784C135.572 393.737 137.056 393.737 137.056 392.784V391.47C137.056 390.518 135.572 390.518 135.572 391.47Z" fill="#56B18B"/>
<path d="M121.796 389.146C122.119 389.375 122.462 389.585 122.785 389.813C123.585 390.346 124.327 389.07 123.527 388.537C123.204 388.308 122.861 388.099 122.538 387.87C121.739 387.337 120.997 388.632 121.796 389.146Z" fill="#56B18B"/>
<path d="M124.27 376.861C124.555 377.204 124.688 377.547 124.726 377.985C124.802 378.937 126.286 378.937 126.21 377.985C126.153 377.128 125.868 376.461 125.316 375.814C124.688 375.09 123.661 376.137 124.27 376.861Z" fill="#56B18B"/>
<path d="M127.999 372.366V374.347C127.999 375.299 129.483 375.299 129.483 374.347V372.366C129.483 371.414 127.999 371.414 127.999 372.366Z" fill="#56B18B"/>
<path d="M137.151 381.071C137.361 381.299 137.57 381.528 137.798 381.737C138.464 382.423 139.511 381.375 138.845 380.69C138.635 380.461 138.426 380.233 138.198 380.023C137.532 379.337 136.485 380.385 137.151 381.071Z" fill="#56B18B"/>
<path d="M138.616 372.252C139.263 372.29 139.929 372.328 140.576 372.366C141.528 372.423 141.528 370.938 140.576 370.881C139.929 370.842 139.263 370.804 138.616 370.766C137.665 370.709 137.665 372.195 138.616 372.252Z" fill="#56B18B"/>
<path d="M140.728 360.386C141.166 360.824 141.604 361.262 142.041 361.7C142.707 362.367 143.754 361.319 143.088 360.652C142.65 360.214 142.213 359.776 141.775 359.338C141.109 358.671 140.062 359.719 140.728 360.386Z" fill="#56B18B"/>
<path d="M146.418 356.576V358.881C146.418 359.833 147.902 359.833 147.902 358.881V356.576C147.902 355.624 146.418 355.624 146.418 356.576Z" fill="#56B18B"/>
<path d="M149.101 370.442C149.31 370.119 149.538 369.776 149.748 369.452C150.28 368.652 148.986 367.909 148.473 368.709C148.263 369.033 148.035 369.376 147.826 369.7C147.293 370.5 148.587 371.242 149.101 370.442Z" fill="#56B18B"/>
<path d="M144.096 384.994C144.648 384.785 145.2 384.575 145.752 384.347C146.627 384.004 146.246 382.575 145.352 382.918C144.8 383.128 144.249 383.337 143.697 383.566C142.821 383.909 143.202 385.337 144.096 384.994Z" fill="#56B18B"/>
<path d="M150.642 382.918C151.194 382.804 151.745 382.69 152.278 382.575C153.211 382.385 152.811 380.956 151.879 381.147C151.327 381.261 150.775 381.375 150.242 381.49C149.31 381.68 149.709 383.109 150.642 382.918Z" fill="#56B18B"/>
<path d="M146.418 389.832V390.156C146.418 391.108 147.902 391.108 147.902 390.156V389.832C147.902 388.88 146.418 388.88 146.418 389.832Z" fill="#56B18B"/>
<path d="M133.707 412.498C134.031 412.269 134.373 412.06 134.697 411.831C135.477 411.298 134.754 410.022 133.955 410.555C133.631 410.784 133.289 410.993 132.965 411.222C132.185 411.755 132.908 413.031 133.707 412.498Z" fill="#56B18B"/>
<path d="M132.851 417.964C133.441 417.393 134.069 417.069 134.868 416.879C135.8 416.669 135.401 415.241 134.468 415.45C133.441 415.698 132.566 416.174 131.804 416.917C131.119 417.583 132.166 418.631 132.851 417.964Z" fill="#56B18B"/>
<path d="M126.762 418.86C126.876 419.069 126.99 419.298 127.105 419.507C127.542 420.364 128.817 419.602 128.379 418.764C128.265 418.555 128.151 418.326 128.037 418.117C127.599 417.26 126.325 418.022 126.762 418.86Z" fill="#56B18B"/>
<path d="M121.111 420.46C121.948 420.898 122.747 420.993 123.661 420.821C124.593 420.631 124.193 419.202 123.261 419.393C122.747 419.507 122.31 419.431 121.853 419.183C121.016 418.745 120.255 420.021 121.111 420.46Z" fill="#56B18B"/>
<path d="M133.346 406.403C134.335 406.289 135.325 406.155 136.295 406.041C137.227 405.927 137.246 404.441 136.295 404.555C135.306 404.67 134.316 404.803 133.346 404.917C132.413 405.032 132.394 406.517 133.346 406.403Z" fill="#56B18B"/>
<path d="M265.911 341.472C281.837 327.054 297.764 312.635 313.69 298.236C316.049 296.103 312.548 292.617 310.208 294.75C294.281 309.169 278.355 323.587 262.429 337.987C260.07 340.12 263.571 343.605 265.911 341.472Z" fill="#E0EEF5"/>
<path d="M319.912 363.528C335.838 349.11 351.764 334.691 367.69 320.292C370.05 318.159 366.549 314.673 364.208 316.806C348.282 331.225 332.356 345.643 316.43 360.043C314.07 362.176 317.571 365.662 319.912 363.528Z" fill="#E0EEF5"/>
<path d="M261.23 379.871C294.624 347.281 327.998 314.692 361.392 282.103C363.675 279.875 360.174 276.389 357.91 278.617C324.516 311.207 291.142 343.796 257.748 376.385C255.465 378.614 258.966 382.099 261.23 379.871Z" fill="#E0EEF5"/>
<path d="M414.308 75.8827H412.158V213.858H414.308V75.8827Z" fill="#568194"/>
<path d="M421.976 213.839C421.976 218.677 418.056 222.601 413.223 222.601C408.39 222.601 404.471 218.677 404.471 213.839C404.471 209.001 408.39 205.078 413.223 205.078C418.056 205.078 421.976 209.001 421.976 213.839Z" fill="#568194"/>
<path d="M413.356 243.228C413.204 243.228 410.35 243.209 408.276 241.114C406.887 239.724 406.183 237.8 406.183 235.381C406.183 234.734 406.697 234.219 407.344 234.219C407.991 234.219 408.504 234.734 408.504 235.381C408.504 237.152 408.98 238.543 409.912 239.476C411.32 240.867 413.337 240.905 413.356 240.905C416.629 240.905 419.274 238.238 419.274 234.981C419.274 231.724 416.61 229.058 413.356 229.058C412.71 229.058 412.196 228.543 412.196 227.896V221.458C412.196 220.81 412.71 220.296 413.356 220.296C414.003 220.296 414.517 220.81 414.517 221.458V226.81C418.513 227.381 421.595 230.829 421.595 234.981C421.595 239.533 417.904 243.228 413.356 243.228Z" fill="#568194"/>
<path d="M367.405 248.619C366.967 248.543 366.587 248.181 366.529 247.724C366.434 247.133 366.853 246.6 367.443 246.505L414.803 239.514C415.392 239.419 415.944 239.838 416.02 240.429C416.116 241.019 415.697 241.552 415.107 241.648L367.747 248.638C367.633 248.638 367.519 248.638 367.405 248.638V248.619Z" fill="#568194"/>
<path d="M458.319 264.389C458.205 264.389 458.11 264.332 458.014 264.275L414.46 241.514C413.927 241.248 413.737 240.6 414.003 240.067C414.27 239.533 414.917 239.343 415.45 239.61L459.004 262.371C459.537 262.637 459.727 263.304 459.46 263.818C459.232 264.237 458.775 264.466 458.319 264.37V264.389Z" fill="#568194"/>
<path d="M354.182 246.373L470.168 266.552C476.241 267.609 480.315 273.402 479.259 279.482L467.653 346.325C466.597 352.405 460.81 356.482 454.736 355.426L338.751 335.246C332.677 334.189 328.604 328.396 329.659 322.316L341.266 255.473C342.321 249.393 348.109 245.316 354.182 246.373Z" fill="white"/>
<path d="M456.34 356.995C455.598 356.995 454.856 356.938 454.095 356.805L338.92 336.768C335.476 336.177 332.489 334.272 330.472 331.415C328.455 328.558 327.694 325.092 328.284 321.644L339.739 255.609C340.975 248.504 347.749 243.724 354.847 244.962L470.021 264.999C473.465 265.59 476.452 267.494 478.469 270.351C480.486 273.208 481.247 276.675 480.657 280.122L469.203 346.158C468.099 352.5 462.562 356.995 456.34 356.995ZM352.62 247.743C347.806 247.743 343.525 251.209 342.669 256.123L331.214 322.159C330.758 324.825 331.347 327.511 332.908 329.72C334.468 331.93 336.789 333.396 339.434 333.873L454.608 353.91C460.088 354.881 465.34 351.167 466.291 345.682L477.746 279.646C478.203 276.98 477.613 274.294 476.053 272.104C474.492 269.894 472.171 268.427 469.526 267.951L354.352 247.914C353.762 247.819 353.191 247.762 352.62 247.762V247.743Z" fill="#568194"/>
<path d="M466.913 273.061L355.052 253.599C351.17 252.924 347.475 255.527 346.8 259.413L336.201 320.458C335.526 324.344 338.126 328.042 342.009 328.718L453.87 348.18C457.752 348.855 461.447 346.252 462.122 342.366L472.721 281.322C473.396 277.435 470.796 273.737 466.913 273.061Z" fill="#FEFFFF"/>
<path d="M454.913 349.719C454.399 349.719 453.885 349.681 453.372 349.586L342.041 330.215C339.7 329.816 337.665 328.52 336.295 326.578C334.925 324.635 334.392 322.273 334.81 319.93L345.314 259.399C346.151 254.58 350.756 251.323 355.589 252.161L466.919 271.532C471.752 272.37 474.987 276.98 474.15 281.817L463.647 342.348C463.247 344.691 461.953 346.729 460.012 348.1C458.509 349.167 456.74 349.719 454.913 349.719ZM453.885 346.672C455.446 346.939 457.006 346.596 458.3 345.682C459.594 344.767 460.45 343.415 460.716 341.853L471.22 281.322C471.771 278.103 469.621 275.037 466.406 274.465L355.075 255.095C351.859 254.542 348.796 256.695 348.225 259.914L337.722 320.444C337.455 322.006 337.798 323.568 338.711 324.863C339.624 326.159 340.975 327.016 342.536 327.282L453.866 346.653L453.885 346.672Z" fill="#548194"/>
<path d="M400.836 338.939L429.777 312.388L445.799 346.748L400.836 338.939Z" fill="white"/>
<path d="M447.492 348.043L398.686 339.548L430.101 310.731L447.492 348.043ZM402.986 338.291L444.105 345.453L429.454 314.007L402.986 338.291Z" fill="#568194"/>
<path d="M343.601 328.977L394.919 281.913L423.308 342.844L343.601 328.977Z" fill="white"/>
<path d="M425.001 344.139L341.451 329.606L395.242 280.256L425.001 344.139ZM345.732 328.349L421.595 341.548L394.557 283.551L345.713 328.368L345.732 328.349Z" fill="#568194"/>
<path d="M455.921 290.827C455.236 294.731 451.526 297.36 447.625 296.674C443.725 295.988 441.099 292.274 441.784 288.37C442.469 284.465 446.179 281.836 450.08 282.522C453.98 283.208 456.606 286.922 455.921 290.827Z" fill="white"/>
<path d="M448.881 297.779C448.405 297.779 447.93 297.741 447.473 297.664C443.04 296.883 440.052 292.655 440.832 288.217C441.213 286.065 442.393 284.198 444.181 282.941C445.97 281.684 448.12 281.189 450.27 281.57C452.42 281.951 454.285 283.132 455.541 284.922C456.797 286.712 457.272 288.865 456.911 291.017C456.53 293.169 455.351 295.036 453.562 296.293C452.173 297.264 450.556 297.779 448.881 297.779ZM448.843 283.417C447.587 283.417 446.35 283.798 445.285 284.541C443.934 285.493 443.04 286.922 442.754 288.541C442.469 290.179 442.849 291.817 443.782 293.169C444.733 294.522 446.16 295.417 447.778 295.703C449.395 295.988 451.05 295.626 452.401 294.674C453.752 293.722 454.646 292.293 454.932 290.674C455.522 287.303 453.257 284.103 449.89 283.513C449.528 283.455 449.167 283.417 448.824 283.417H448.843Z" fill="#568194"/>
<path d="M501.968 71.2353H394.405V83.0824H501.968V71.2353Z" fill="#FEFFFF"/>
<path d="M595.432 316.178H559.717V0.152374H595.432V316.178ZM563.256 312.635H591.893V3.69509H563.256V312.654V312.635Z" fill="#568194"/>
<path d="M594.975 34.8367H560.155V0H594.975V34.8367ZM563.751 31.2559H591.398V3.58081H563.751V31.2559Z" fill="#568194"/>
<path d="M563.232 0.521079L560.703 3.0531L591.931 34.3127L594.46 31.7807L563.232 0.521079Z" fill="#568194"/>
<path d="M591.931 0.534554L560.703 31.7942L563.232 34.3262L594.46 3.06657L591.931 0.534554Z" fill="#568194"/>
<path d="M594.975 66.1116H560.155V31.2559H594.975V66.0926V66.1116ZM563.751 62.5308H591.398V34.8557H563.751V62.5308Z" fill="#568194"/>
<path d="M563.22 31.7839L560.691 34.3159L591.919 65.5755L594.448 63.0435L563.22 31.7839Z" fill="#568194"/>
<path d="M591.919 31.7973L560.691 63.0569L563.22 65.589L594.448 34.3294L591.919 31.7973Z" fill="#568194"/>
<path d="M594.975 97.3676H560.155V62.5118H594.975V97.3676ZM563.751 93.7868H591.398V66.1117H563.751V93.7868Z" fill="#568194"/>
<path d="M563.222 63.0411L560.692 65.5732L591.92 96.8328L594.45 94.3007L563.222 63.0411Z" fill="#568194"/>
<path d="M591.939 63.0736L560.711 94.3332L563.241 96.8652L594.469 65.6056L591.939 63.0736Z" fill="#568194"/>
<path d="M594.975 128.643H560.155V93.8058H594.975V128.643ZM563.751 125.062H591.398V97.3866H563.751V125.062Z" fill="#568194"/>
<path d="M563.228 94.3039L560.699 96.8359L591.927 128.096L594.457 125.564L563.228 94.3039Z" fill="#568194"/>
<path d="M591.927 94.3174L560.699 125.577L563.228 128.109L594.456 96.8494L591.927 94.3174Z" fill="#568194"/>
<path d="M594.975 159.898H560.155V125.062H594.975V159.898ZM563.751 156.318H591.398V128.643H563.751V156.318Z" fill="#568194"/>
<path d="M563.23 125.58L560.7 128.112L591.928 159.372L594.458 156.84L563.23 125.58Z" fill="#568194"/>
<path d="M591.934 125.599L560.706 156.859L563.235 159.391L594.463 128.131L591.934 125.599Z" fill="#568194"/>
<path d="M594.975 191.173H560.155V156.318H594.975V191.173ZM563.751 187.593H591.398V159.917H563.751V187.593Z" fill="#568194"/>
<path d="M563.218 156.843L560.688 159.375L591.916 190.635L594.446 188.103L563.218 156.843Z" fill="#568194"/>
<path d="M591.935 156.875L560.707 188.135L563.237 190.667L594.465 159.408L591.935 156.875Z" fill="#568194"/>
<path d="M594.975 222.429H560.155V187.593H594.975V222.429ZM563.751 218.848H591.398V191.173H563.751V218.848Z" fill="#568194"/>
<path d="M563.238 188.1L560.708 190.632L591.937 221.892L594.466 219.36L563.238 188.1Z" fill="#568194"/>
<path d="M591.923 188.138L560.695 219.398L563.225 221.93L594.453 190.67L591.923 188.138Z" fill="#568194"/>
<path d="M594.975 253.685H560.155V218.848H594.975V253.685ZM563.751 250.104H591.398V222.429H563.751V250.104Z" fill="#568194"/>
<path d="M563.226 219.363L560.696 221.895L591.924 253.155L594.454 250.623L563.226 219.363Z" fill="#568194"/>
<path d="M591.944 219.396L560.715 250.655L563.245 253.187L594.473 221.928L591.944 219.396Z" fill="#568194"/>
<path d="M594.975 284.96H560.155V250.123H594.975V284.96ZM563.751 281.379H591.398V253.704H563.751V281.379Z" fill="#568194"/>
<path d="M563.233 250.626L560.703 253.158L591.931 284.417L594.461 281.885L563.233 250.626Z" fill="#568194"/>
<path d="M591.931 250.658L560.703 281.918L563.233 284.45L594.461 253.19L591.931 250.658Z" fill="#568194"/>
<path d="M594.975 316.216H560.155V281.379H594.975V316.216ZM563.751 312.635H591.398V284.96H563.751V312.635Z" fill="#568194"/>
<path d="M563.234 281.883L560.705 284.415L591.933 315.675L594.462 313.143L563.234 281.883Z" fill="#568194"/>
<path d="M591.932 281.912L560.699 313.166L563.228 315.699L594.461 284.444L591.932 281.912Z" fill="#568194"/>
<path d="M657.12 65.6355H622.318V30.7988H657.12V65.6545V65.6355ZM625.895 62.0547H653.542V34.3796H625.895V62.0547Z" fill="#568194"/>
<path d="M654.058 31.3272L622.836 62.5923L625.365 65.1239L656.588 33.8588L654.058 31.3272Z" fill="#568194"/>
<path d="M625.373 31.3195L622.843 33.8515L654.071 65.1111L656.601 62.5791L625.373 31.3195Z" fill="#568194"/>
<path d="M625.895 65.6355H591.094V30.7988H625.895V65.6545V65.6355ZM594.671 62.0547H622.318V34.3796H594.671V62.0547Z" fill="#568194"/>
<path d="M622.831 31.319L591.608 62.584L594.138 65.1156L625.361 33.8505L622.831 31.319Z" fill="#568194"/>
<path d="M594.128 31.3208L591.599 33.8528L622.827 65.1124L625.356 62.5804L594.128 31.3208Z" fill="#568194"/>
<path d="M594.671 65.6355H559.869V30.7988H594.671V65.6545V65.6355ZM563.446 62.0547H591.094V34.3796H563.446V62.0547Z" fill="#568194"/>
<path d="M563.427 65.6355H528.626V30.7988H563.427V65.6545V65.6355ZM532.203 62.0547H559.85V34.3796H532.203V62.0547Z" fill="#568194"/>
<path d="M560.37 31.3155L529.142 62.5752L531.671 65.1072L562.899 33.8476L560.37 31.3155Z" fill="#568194"/>
<path d="M531.671 31.329L529.142 33.8611L560.37 65.1207L562.899 62.5886L531.671 31.329Z" fill="#568194"/>
<path d="M532.203 65.6355H497.402V30.7988H532.203V65.6545V65.6355ZM500.979 62.0547H528.626V34.3796H500.979V62.0547Z" fill="#568194"/>
<path d="M529.125 31.3169L497.897 62.5765L500.426 65.1085L531.655 33.8489L529.125 31.3169Z" fill="#568194"/>
<path d="M500.44 31.3169L497.911 33.8489L529.139 65.1085L531.668 62.5765L500.44 31.3169Z" fill="#568194"/>
<path d="M500.96 65.6355H466.158V30.7988H500.96V65.6545V65.6355ZM469.735 62.0547H497.382V34.3796H469.735V62.0547Z" fill="#568194"/>
<path d="M467.947 65.6355H436.722C435.999 65.6355 435.352 65.1974 435.067 64.5308C434.782 63.8641 434.953 63.0832 435.448 62.588L466.672 31.3321L469.203 33.8653L441.023 62.0737H467.186L497.896 31.3321L500.427 33.8653L469.203 65.1212C468.86 65.4641 468.403 65.6545 467.947 65.6545V65.6355Z" fill="#568194"/>
<path d="M469.209 31.3047L466.679 33.8367L497.907 65.0963L500.437 62.5643L469.209 31.3047Z" fill="#568194"/>
<path d="M595.508 351.034H559.717V316.197H595.508V351.034ZM563.408 347.453H591.836V319.778H563.408V347.453Z" fill="#568194"/>
<path d="M592.369 350.5L560.269 319.244L562.857 316.711L594.975 347.967L592.369 350.5Z" fill="#568194"/>
<path d="M562.857 350.5L560.269 347.967L592.369 316.711L594.975 319.244L562.857 350.5Z" fill="#568194"/>
<path d="M595.508 476.076H559.717V441.24H595.508V476.076ZM563.408 472.496H591.836V444.82H563.408V472.496Z" fill="#568194"/>
<path d="M592.369 475.562L560.269 444.287L562.857 441.773L594.975 473.029L592.369 475.562Z" fill="#568194"/>
<path d="M562.857 475.562L560.269 473.029L592.369 441.773L594.975 444.287L562.857 475.562Z" fill="#568194"/>
<path d="M595.508 379.337H559.717V344.501H595.508V379.337ZM563.408 375.757H591.836V348.081H563.408V375.757Z" fill="#568194"/>
<path d="M592.369 378.804L560.269 347.548L562.857 345.015L594.975 376.271L592.369 378.804Z" fill="#568194"/>
<path d="M562.857 378.804L560.269 376.271L592.369 345.015L594.975 347.548L562.857 378.804Z" fill="#568194"/>
<path d="M595.508 410.593H559.717V375.757H595.508V410.593ZM563.408 407.012H591.836V379.337H563.408V407.012Z" fill="#568194"/>
<path d="M592.369 410.079L560.269 378.804L562.857 376.271L594.975 407.546L592.369 410.079Z" fill="#568194"/>
<path d="M562.857 410.079L560.269 407.546L592.369 376.271L594.975 378.804L562.857 410.079Z" fill="#568194"/>
<path d="M595.508 441.849H559.717V407.012H595.508V441.849ZM563.408 438.268H591.836V410.593H563.408V438.268Z" fill="#568194"/>
<path d="M592.369 441.335L560.269 410.079L562.857 407.546L594.975 438.802L592.369 441.335Z" fill="#568194"/>
<path d="M562.857 441.335L560.269 438.802L592.369 407.546L594.975 410.079L562.857 441.335Z" fill="#568194"/>
<path d="M196.175 189.612C199.981 189.612 200 183.688 196.175 183.688C192.35 183.688 192.35 189.612 196.175 189.612Z" fill="#548194"/>
<path d="M517.152 127.728C520.958 127.728 520.977 121.805 517.152 121.805C513.328 121.805 513.328 127.728 517.152 127.728Z" fill="#548194"/>
<path d="M650.022 339.739H651.335C652.876 339.739 654.361 338.368 654.304 336.768C654.227 335.168 653.01 333.796 651.335 333.796H650.022C648.481 333.796 646.997 335.168 647.054 336.768C647.13 338.368 648.348 339.739 650.022 339.739Z" fill="#548194"/>
<path d="M79.0789 383.204C82.8844 383.204 82.9035 377.28 79.0789 377.28C75.2543 377.28 75.2543 383.204 79.0789 383.204Z" fill="#548194"/>
<path d="M361.925 98.758C365.73 98.758 365.749 92.8344 361.925 92.8344C358.1 92.8344 358.1 98.758 361.925 98.758Z" fill="#548194"/>
</g>
<defs>
<clipPath id="clip0_4_272">
<rect width="762" height="480" fill="white"/>
</clipPath>
</defs>
</svg>
