<svg width="802" height="504" viewBox="0 0 802 504" fill="none" xmlns="http://www.w3.org/2000/svg">
<g clip-path="url(#clip0_4_1121)">
<path d="M536.509 485.781C535.428 482.261 532.945 478.961 529.44 477.821C525.935 476.681 521.469 478.401 520.368 481.921C517.144 479.221 512.177 481.361 509.574 484.681C505.368 490.041 508.612 498.8 509.313 499.38C510.074 500 512.117 499.88 512.117 499.88L543.579 499.7C543.579 499.7 549.346 499.28 552.01 498.22C557.377 496.08 561.022 486.881 557.557 482.261C555.214 479.121 550.568 478.441 546.823 479.641C543.078 480.841 539.433 483.181 536.489 485.781" fill="#83CBB6"/>
<path d="M511.677 500.94C510.875 500.94 509.454 500.84 508.653 500.18C507.411 499.18 504.287 489.721 508.753 484.041C510.635 481.641 513.439 479.981 516.102 479.701C517.484 479.541 518.786 479.781 519.907 480.381C520.588 479.161 521.65 478.161 523.012 477.441C525.074 476.361 527.598 476.141 529.76 476.821C532.885 477.821 535.508 480.461 536.99 484.021C540.054 481.541 543.398 479.661 546.543 478.661C550.308 477.461 555.615 477.881 558.418 481.641C560.04 483.801 560.401 487.001 559.44 490.421C558.278 494.5 555.534 497.94 552.41 499.18C549.627 500.28 543.919 500.72 543.659 500.74L512.137 500.92C512.037 500.92 511.877 500.92 511.677 500.92V500.94ZM516.903 481.741C516.703 481.741 516.523 481.741 516.323 481.781C514.24 482.001 511.917 483.401 510.395 485.341C506.71 490.041 509.454 497.88 510.054 498.68C510.195 498.78 511.236 498.92 512.077 498.88L543.579 498.7C543.579 498.7 549.146 498.28 551.629 497.3C554.133 496.3 556.456 493.34 557.417 489.901C558.218 487.101 557.958 484.561 556.736 482.921C554.533 479.981 550.227 479.681 547.143 480.661C543.879 481.701 540.334 483.801 537.19 486.581C536.93 486.821 536.569 486.901 536.229 486.801C535.889 486.701 535.628 486.441 535.508 486.101C534.407 482.481 532.003 479.761 529.12 478.821C527.477 478.301 525.555 478.481 523.973 479.301C522.671 479.981 521.75 481.021 521.369 482.241C521.269 482.581 521.009 482.821 520.668 482.921C520.348 483.021 519.968 482.941 519.707 482.721C518.926 482.061 517.985 481.741 516.923 481.741H516.903Z" fill="#56B18B"/>
<path d="M503.426 484.601C502.524 486.341 502.144 488.241 502.344 490.201C502.444 491.181 504.006 491.201 503.906 490.201C503.726 488.501 503.986 486.901 504.767 485.381C505.228 484.501 503.886 483.701 503.426 484.601Z" fill="#56B18B"/>
<path d="M498.879 485.841C498.399 487.601 498.359 489.361 498.739 491.141C498.96 492.121 500.462 491.701 500.241 490.721C499.901 489.221 499.961 487.741 500.381 486.241C500.642 485.281 499.14 484.861 498.879 485.821V485.841Z" fill="#56B18B"/>
<path d="M507.611 482.681C508.612 482.681 508.612 481.121 507.611 481.121C506.61 481.121 506.61 482.681 507.611 482.681Z" fill="#56B18B"/>
<path d="M512.037 490.201V491.581C512.037 492.581 513.599 492.581 513.599 491.581V490.201C513.599 489.201 512.037 489.201 512.037 490.201Z" fill="#56B18B"/>
<path d="M538.332 492.62V493.32C538.332 494.32 539.894 494.32 539.894 493.32V492.62C539.894 491.62 538.332 491.62 538.332 492.62Z" fill="#56B18B"/>
<path d="M535.448 490.761L535.788 491.101C536.489 491.8 537.591 490.701 536.89 490.001L536.549 489.661C535.848 488.961 534.747 490.061 535.448 490.761Z" fill="#56B18B"/>
<path d="M92.8227 456.462H40.093C38.9515 456.462 38.0103 455.542 38.0103 454.382C38.0103 453.222 38.9315 452.302 40.093 452.302H92.8227C93.9642 452.302 94.9054 453.222 94.9054 454.382C94.9054 455.542 93.9842 456.462 92.8227 456.462Z" fill="#263772"/>
<path d="M557.136 273.849H555.634C555.634 272.609 554.613 271.589 553.371 271.589C552.13 271.589 551.108 272.609 551.108 273.849H549.606C549.606 271.769 551.289 270.089 553.371 270.089C555.454 270.089 557.136 271.769 557.136 273.849Z" fill="#263772"/>
<path d="M562.524 186.273H561.022C561.022 185.033 560 184.013 558.759 184.013C557.517 184.013 556.496 185.033 556.496 186.273H554.994C554.994 184.193 556.676 182.513 558.759 182.513C560.841 182.513 562.524 184.193 562.524 186.273Z" fill="#263772"/>
<path d="M375.056 490.581H303.381L304.602 487.701C309.309 476.561 309.789 467.042 309.068 456.142L308.928 453.942L369.348 453.762V455.822C369.408 462.862 371.331 478.841 374.194 487.881L375.056 490.581ZM309.569 486.441H369.448C367.145 477.741 365.583 465.162 365.263 457.922L313.334 458.082C313.835 467.742 313.234 476.521 309.569 486.441Z" fill="#263772"/>
<path d="M282.794 457.882C228.382 457.882 184.304 457.582 182.381 456.902C177.715 455.242 171.647 448.802 171.547 444.222C171.367 434.323 170.946 420.843 170.445 405.224C168.963 358.146 166.921 293.688 169.564 258.01C170.045 251.51 175.432 246.49 181.84 246.49H182.041L495.715 246.95C502.344 247.07 507.671 252.41 507.831 259.13C508.072 269.549 508.412 280.209 508.753 290.988C510.194 336.187 511.676 382.925 506.67 427.103C506.47 428.843 506.389 430.763 506.289 432.763C505.869 442.042 505.348 453.582 493.372 455.942C487.524 457.102 371.431 457.882 282.774 457.882H282.794ZM181.88 249.83C177.174 249.83 173.249 253.51 172.889 258.27C170.265 293.768 172.288 358.146 173.77 405.144C174.27 420.763 174.691 434.263 174.871 444.182C174.931 447.062 179.758 452.442 183.483 453.782C190.151 455.142 485.061 454.142 492.731 452.702C502.124 450.842 502.544 441.602 502.965 432.643C503.065 430.563 503.145 428.563 503.365 426.763C508.352 382.805 506.87 336.207 505.428 291.128C505.088 280.329 504.747 269.669 504.507 259.23C504.387 254.31 500.522 250.41 495.695 250.31L182.041 249.85H181.9L181.88 249.83Z" fill="#263772"/>
<path fill-rule="evenodd" clip-rule="evenodd" d="M486.964 257.73L191.413 257.35C186.106 257.27 181.64 260.91 181.239 265.669C177.935 305.168 182.441 387.585 183.102 420.763C183.162 424.003 188.449 428.843 192.254 430.043C196.74 431.463 477.591 430.383 484.46 429.183C496.797 427.043 494.694 414.424 495.715 406.364C501.563 360.746 497.978 311.148 496.817 266.529C496.697 261.69 492.331 257.83 486.944 257.75L486.964 257.73Z" fill="#263772"/>
<g clip-path="url(#clip1_4_1121)">
<path fill-rule="evenodd" clip-rule="evenodd" d="M484.19 260.705L194.198 260.338C188.991 260.26 184.609 263.775 184.216 268.37C180.974 306.507 185.395 386.082 186.044 418.116C186.103 421.244 191.29 425.917 195.024 427.076C199.425 428.447 474.994 427.404 481.734 426.246C493.838 424.179 491.775 411.996 492.777 404.214C498.515 360.169 494.997 312.28 493.858 269.201C493.74 264.528 489.456 260.801 484.171 260.724L484.19 260.705Z" fill="#E0EEF5"/>
</g>
<path d="M400.69 501.92H277.727C272.841 501.92 270.297 498.08 270.297 494.3C270.297 490.52 272.841 486.661 277.727 486.661H400.69C405.576 486.661 408.12 490.5 408.12 494.28C408.12 498.06 405.576 501.92 400.69 501.92ZM277.727 490C274.503 490 273.642 492.7 273.642 494.3C273.642 495.9 274.503 498.58 277.727 498.58H400.69C403.914 498.58 404.775 495.88 404.775 494.28C404.775 492.68 403.914 490 400.69 490H277.727Z" fill="#263772"/>
<path d="M192.074 446.262C197.601 446.262 197.601 437.683 192.074 437.683C186.547 437.683 186.547 446.262 192.074 446.262Z" fill="#263772"/>
<path d="M209.377 446.262C214.904 446.262 214.904 437.683 209.377 437.683C203.849 437.683 203.849 446.262 209.377 446.262Z" fill="#263772"/>
<path d="M226.68 446.262C232.207 446.262 232.207 437.683 226.68 437.683C221.152 437.683 221.152 446.262 226.68 446.262Z" fill="#263772"/>
<path d="M339.208 255.17C341.792 255.17 341.812 251.15 339.208 251.15C336.605 251.15 336.605 255.17 339.208 255.17Z" fill="#263772"/>
<path d="M686.007 493.78H643.631L659.932 440.323H669.705L686.007 493.78Z" fill="#82CAAF"/>
<path d="M689.511 493.78H640.146V499.88H689.511V493.78Z" fill="#82CAAF"/>
<path d="M647.716 480.421L643.631 493.78H686.007L681.941 480.421H647.716Z" fill="#263772"/>
<path d="M651.781 467.062H677.856L673.79 453.682H655.867L651.781 467.062Z" fill="#263772"/>
<path d="M703.33 499.54H712.722V463.182H760.986V499.54H770.378V463.182H780.331V434.143H772.381V431.463H758.683V434.143H715.926V431.463H702.228V434.143H693.517V463.182H703.31V499.54H703.33ZM777.327 437.183V437.303L771.54 460.142H761.206L767.034 437.183H777.347H777.327ZM750.352 460.142H740.018L745.846 437.183H756.179L750.352 460.142ZM729.184 460.142H718.85L724.678 437.183H735.011L729.184 460.142ZM703.49 437.183H713.823L707.996 460.142H697.662L703.49 437.183Z" fill="#78C2AA"/>
<path d="M240.878 144.134L243.702 141.314C244.283 140.754 244.283 139.814 243.702 139.254L241.239 136.815C240.678 136.235 240.518 135.215 240.918 134.495L242.921 129.655C243.141 128.875 244.002 128.255 244.804 128.255H248.268C249.069 128.255 249.73 127.595 249.73 126.795V122.815C249.73 122.015 249.069 121.355 248.268 121.355H244.804C244.002 121.355 243.161 120.715 242.921 119.955L240.918 115.115C240.538 114.415 240.678 113.375 241.239 112.796L243.702 110.356C244.283 109.776 244.283 108.856 243.702 108.296L240.878 105.476C240.318 104.916 239.376 104.916 238.816 105.476L236.352 107.936C235.772 108.496 234.75 108.656 234.049 108.276L229.183 106.276C228.402 106.056 227.781 105.216 227.781 104.396V100.936C227.781 100.136 227.12 99.476 226.319 99.476H222.334C221.533 99.476 220.872 100.136 220.872 100.936V104.396C220.872 105.196 220.251 106.036 219.47 106.276L214.604 108.276C213.903 108.656 212.861 108.516 212.301 107.936L209.837 105.496C209.277 104.916 208.335 104.916 207.775 105.496L204.951 108.316C204.37 108.876 204.37 109.796 204.951 110.376L207.394 112.816C207.955 113.395 208.115 114.435 207.735 115.135L205.732 119.975C205.512 120.755 204.65 121.375 203.849 121.375H200.365C199.564 121.375 198.903 122.015 198.903 122.835V126.815C198.903 127.615 199.564 128.275 200.365 128.275H203.849C204.65 128.275 205.492 128.915 205.732 129.675L207.735 134.515C208.115 135.215 207.975 136.255 207.394 136.835L204.951 139.274C204.37 139.854 204.37 140.774 204.951 141.334L207.775 144.154C208.335 144.734 209.257 144.734 209.837 144.154L212.301 141.714C212.861 141.154 213.903 140.994 214.624 141.394L219.47 143.394C220.251 143.614 220.872 144.454 220.872 145.274V148.754C220.872 149.554 221.533 150.214 222.334 150.214H226.319C227.12 150.214 227.781 149.554 227.781 148.754V145.274C227.781 144.474 228.402 143.634 229.183 143.394L234.049 141.394C234.75 141.014 235.792 141.154 236.352 141.714L238.816 144.154C239.376 144.734 240.318 144.734 240.878 144.154V144.134ZM224.336 136.435C217.908 136.435 212.681 131.215 212.681 124.795C212.681 118.375 217.908 113.156 224.336 113.156C230.765 113.156 235.992 118.355 235.992 124.795C235.992 131.235 230.765 136.435 224.336 136.435Z" fill="#263772"/>
<path d="M267.834 155.134L267.113 152.774C266.973 152.294 266.452 152.034 265.992 152.174L263.929 152.794C263.448 152.934 262.827 152.714 262.567 152.294L260.504 149.794C260.164 149.454 260.064 148.794 260.284 148.354L261.305 146.454C261.546 146.014 261.365 145.454 260.945 145.234L258.762 144.074C258.321 143.834 257.781 144.014 257.54 144.454L256.519 146.354C256.279 146.794 255.698 147.074 255.197 146.974L251.953 146.654C251.452 146.654 250.932 146.274 250.792 145.794L250.171 143.734C250.03 143.254 249.53 142.994 249.049 143.134L246.686 143.834C246.205 143.974 245.945 144.494 246.085 144.974L246.706 147.034C246.846 147.514 246.626 148.114 246.205 148.394L243.702 150.454C243.362 150.814 242.701 150.894 242.26 150.674L240.358 149.654C239.917 149.414 239.376 149.574 239.136 150.034L237.955 152.194C237.734 152.634 237.894 153.194 238.315 153.414L240.218 154.434C240.658 154.674 240.938 155.254 240.838 155.734L240.518 158.974C240.518 159.474 240.137 159.994 239.657 160.134L237.594 160.754C237.113 160.894 236.833 161.414 236.993 161.874L237.714 164.233C237.854 164.713 238.355 164.973 238.836 164.833L240.898 164.213C241.379 164.073 241.98 164.293 242.26 164.713L244.323 167.233C244.683 167.573 244.764 168.233 244.543 168.673L243.522 170.573C243.282 171.013 243.462 171.553 243.902 171.793L246.085 172.953C246.526 173.193 247.067 173.013 247.307 172.593L248.328 170.693C248.549 170.253 249.149 169.973 249.63 170.073L252.854 170.393C253.355 170.393 253.876 170.773 254.036 171.253L254.657 173.313C254.797 173.793 255.317 174.073 255.778 173.913L258.141 173.193C258.622 173.053 258.882 172.533 258.742 172.073L258.121 170.013C257.981 169.533 258.201 168.913 258.622 168.653L261.145 166.593C261.486 166.233 262.146 166.133 262.587 166.373L264.49 167.393C264.93 167.633 265.491 167.473 265.711 167.033L266.873 164.853C267.113 164.413 266.933 163.873 266.492 163.633L264.59 162.614C264.149 162.374 263.869 161.794 263.969 161.314L264.289 158.074C264.289 157.574 264.67 157.054 265.15 156.914L267.213 156.294C267.694 156.154 267.954 155.654 267.814 155.174L267.834 155.134ZM258.782 161.894C256.9 165.413 252.514 166.733 249.009 164.853C245.484 162.974 244.163 158.594 246.045 155.094C247.928 151.574 252.314 150.254 255.818 152.134C259.323 154.014 260.645 158.394 258.762 161.894H258.782Z" fill="#263772"/>
<path d="M385.75 200.692H320.464C319.322 200.692 318.381 199.772 318.381 198.612C318.381 197.452 319.302 196.532 320.464 196.532H385.75C386.891 196.532 387.833 197.452 387.833 198.612C387.833 199.772 386.911 200.692 385.75 200.692Z" fill="#263772"/>
<path d="M252.854 230.311H147.395C146.253 230.311 145.312 229.391 145.312 228.231C145.312 227.071 146.233 226.151 147.395 226.151H252.854C253.996 226.151 254.937 227.071 254.937 228.231C254.937 229.391 254.016 230.311 252.854 230.311Z" fill="#263772"/>
<path d="M758.462 286.389H653.003C651.861 286.389 650.92 285.469 650.92 284.309C650.92 283.149 651.841 282.229 653.003 282.229H758.462C759.604 282.229 760.545 283.149 760.545 284.309C760.545 285.469 759.624 286.389 758.462 286.389Z" fill="#263772"/>
<path d="M799.937 504H2.08275C0.941244 504 0 503.08 0 501.92C0 500.76 0.921217 499.84 2.08275 499.84H799.937C801.079 499.84 802.02 500.76 802.02 501.92C802.02 503.08 801.099 504 799.937 504Z" fill="#263772"/>
<path d="M507.271 174.653C502.805 174.653 498.599 176.393 495.435 179.553C490.048 184.933 488.966 193.292 492.832 199.852L493.112 200.312L476.149 217.251C476.149 217.251 475.328 218.051 475.308 219.171C475.308 220.031 475.729 220.891 476.59 221.751C477.491 222.651 478.452 223.131 479.434 223.131C480.595 223.131 481.416 222.451 481.436 222.451L498.359 205.552L498.819 205.832C501.383 207.332 504.307 208.132 507.291 208.132C511.757 208.132 515.962 206.392 519.126 203.232C525.655 196.712 525.655 186.093 519.126 179.573C515.962 176.413 511.757 174.673 507.271 174.673V174.653ZM507.271 203.132C500.782 203.132 495.495 197.852 495.495 191.372C495.495 184.893 500.782 179.613 507.271 179.613C513.759 179.613 519.046 184.893 519.046 191.372C519.046 197.852 513.759 203.132 507.271 203.132Z" fill="#263772"/>
<path d="M501.062 193.812H513.198V190.712H501.062V193.812Z" fill="#263772"/>
<path d="M196.219 500.16C195.078 500.16 194.137 499.24 194.137 498.08V338.347C194.137 337.207 195.058 336.267 196.219 336.267C197.381 336.267 198.302 337.187 198.302 338.347V498.08C198.302 499.22 197.381 500.16 196.219 500.16Z" fill="#263772"/>
<path d="M233.409 500.16C232.267 500.16 231.326 499.24 231.326 498.08V338.347C231.326 337.207 232.247 336.267 233.409 336.267C234.57 336.267 235.491 337.187 235.491 338.347V498.08C235.491 499.22 234.57 500.16 233.409 500.16Z" fill="#263772"/>
<path d="M233.409 351.326H196.239C195.098 351.326 194.157 350.406 194.157 349.246C194.157 348.086 195.078 347.166 196.239 347.166H233.409C234.55 347.166 235.491 348.086 235.491 349.246C235.491 350.406 234.57 351.326 233.409 351.326Z" fill="#263772"/>
<path d="M233.409 369.585H196.239C195.098 369.585 194.157 368.665 194.157 367.505C194.157 366.345 195.078 365.426 196.239 365.426H233.409C234.55 365.426 235.491 366.345 235.491 367.505C235.491 368.665 234.57 369.585 233.409 369.585Z" fill="#263772"/>
<path d="M233.409 387.845H196.239C195.098 387.845 194.157 386.925 194.157 385.765C194.157 384.605 195.078 383.685 196.239 383.685H233.409C234.55 383.685 235.491 384.605 235.491 385.765C235.491 386.925 234.57 387.845 233.409 387.845Z" fill="#263772"/>
<path d="M233.409 406.084H196.239C195.098 406.084 194.157 405.164 194.157 404.004C194.157 402.844 195.078 401.924 196.239 401.924H233.409C234.55 401.924 235.491 402.844 235.491 404.004C235.491 405.164 234.57 406.084 233.409 406.084Z" fill="#263772"/>
<path d="M233.409 424.343H196.239C195.098 424.343 194.157 423.423 194.157 422.263C194.157 421.103 195.078 420.183 196.239 420.183H233.409C234.55 420.183 235.491 421.103 235.491 422.263C235.491 423.423 234.57 424.343 233.409 424.343Z" fill="#263772"/>
<path d="M233.409 442.583H196.239C195.098 442.583 194.157 441.663 194.157 440.503C194.157 439.343 195.078 438.423 196.239 438.423H233.409C234.55 438.423 235.491 439.343 235.491 440.503C235.491 441.663 234.57 442.583 233.409 442.583Z" fill="#263772"/>
<path d="M233.409 460.842H196.239C195.098 460.842 194.157 459.922 194.157 458.762C194.157 457.602 195.078 456.682 196.239 456.682H233.409C234.55 456.682 235.491 457.602 235.491 458.762C235.491 459.922 234.57 460.842 233.409 460.842Z" fill="#263772"/>
<path d="M233.409 479.081H196.239C195.098 479.081 194.157 478.161 194.157 477.001C194.157 475.841 195.078 474.921 196.239 474.921H233.409C234.55 474.921 235.491 475.841 235.491 477.001C235.491 478.161 234.57 479.081 233.409 479.081Z" fill="#263772"/>
<path d="M145.613 346.086C144.471 346.086 143.53 345.166 143.53 344.006V335.927C143.53 334.787 144.451 333.847 145.613 333.847C146.774 333.847 147.695 334.767 147.695 335.927V344.006C147.695 345.146 146.774 346.086 145.613 346.086Z" fill="#263772"/>
<path d="M149.638 342.046H141.547C140.406 342.046 139.464 341.126 139.464 339.967C139.464 338.807 140.386 337.887 141.547 337.887H149.638C150.779 337.887 151.721 338.807 151.721 339.967C151.721 341.126 150.799 342.046 149.638 342.046Z" fill="#263772"/>
<path d="M332.379 57.2377C331.238 57.2377 330.297 56.3178 330.297 55.1578V47.0781C330.297 45.9382 331.218 44.9982 332.379 44.9982C333.541 44.9982 334.462 45.9182 334.462 47.0781V55.1578C334.462 56.2978 333.541 57.2377 332.379 57.2377Z" fill="#263772"/>
<path d="M336.425 53.1979H328.334C327.192 53.1979 326.251 52.2779 326.251 51.118C326.251 49.958 327.172 49.0381 328.334 49.0381H336.425C337.566 49.0381 338.507 49.958 338.507 51.118C338.507 52.2779 337.586 53.1979 336.425 53.1979Z" fill="#263772"/>
<path d="M397.866 475.341C397.686 475.341 397.486 475.321 397.285 475.261L389.515 473.041C388.414 472.721 387.773 471.581 388.093 470.481C388.414 469.381 389.555 468.761 390.657 469.061L398.427 471.281C399.528 471.601 400.169 472.741 399.849 473.841C399.588 474.761 398.747 475.341 397.846 475.341H397.866Z" fill="#263772"/>
<path d="M392.859 478.121C392.679 478.121 392.479 478.101 392.279 478.041C391.177 477.721 390.536 476.581 390.857 475.481L393.08 467.721C393.4 466.621 394.542 466.001 395.643 466.301C396.745 466.621 397.385 467.761 397.065 468.861L394.842 476.621C394.582 477.541 393.741 478.121 392.839 478.121H392.859Z" fill="#263772"/>
<path d="M357.012 231.431C356.832 231.431 356.632 231.411 356.451 231.351L348.681 229.131C347.58 228.811 346.939 227.671 347.259 226.571C347.58 225.471 348.721 224.831 349.822 225.151L357.593 227.371C358.694 227.691 359.335 228.831 359.015 229.931C358.754 230.851 357.913 231.431 357.012 231.431Z" fill="#263772"/>
<path d="M352.005 234.191C351.825 234.191 351.625 234.171 351.425 234.111C350.323 233.791 349.682 232.651 350.003 231.551L352.226 223.791C352.546 222.691 353.688 222.051 354.789 222.371C355.891 222.691 356.531 223.831 356.211 224.931L353.988 232.691C353.728 233.611 352.887 234.191 351.985 234.191H352.005Z" fill="#263772"/>
<path d="M371.977 175.368C383.247 164.114 383.247 145.867 371.977 134.612C360.707 123.358 342.435 123.358 331.166 134.612C319.896 145.867 319.896 164.114 331.166 175.368C342.435 186.623 360.707 186.623 371.977 175.368Z" fill="#263772"/>
<path d="M351.565 176.573C363.499 176.573 373.173 166.912 373.173 154.994C373.173 143.076 363.499 133.415 351.565 133.415C339.631 133.415 329.956 143.076 329.956 154.994C329.956 166.912 339.631 176.573 351.565 176.573Z" fill="#FEFFFF"/>
<path d="M351.565 177.413C339.188 177.413 329.115 167.353 329.115 154.994C329.115 142.634 339.188 132.575 351.565 132.575C363.941 132.575 374.014 142.634 374.014 154.994C374.014 167.353 363.941 177.413 351.565 177.413ZM351.565 134.255C340.11 134.255 330.797 143.554 330.797 155.014C330.797 166.473 340.11 175.753 351.565 175.753C363.02 175.753 372.332 166.453 372.332 155.014C372.332 143.574 363.02 134.255 351.565 134.255Z" fill="#263772"/>
<path d="M351.564 155.814C351.104 155.814 350.723 155.434 350.723 154.974V143.994C350.723 143.534 351.104 143.154 351.564 143.154C352.025 143.154 352.406 143.534 352.406 143.994V154.974C352.406 155.434 352.025 155.814 351.564 155.814Z" fill="#263772"/>
<path d="M364.442 155.814H351.544C351.084 155.814 350.703 155.434 350.703 154.974C350.703 154.514 351.084 154.134 351.544 154.134H364.442C364.902 154.134 365.283 154.514 365.283 154.974C365.283 155.434 364.902 155.814 364.442 155.814Z" fill="#263772"/>
<path d="M352.406 135.835C352.406 136.315 352.025 136.695 351.544 136.695C351.064 136.695 350.683 136.315 350.683 135.835C350.683 135.355 351.064 134.975 351.544 134.975C352.025 134.975 352.406 135.355 352.406 135.835Z" fill="#263772"/>
<path d="M365.723 142.054C365.383 142.394 364.842 142.394 364.522 142.054C364.181 141.714 364.181 141.174 364.522 140.854C364.862 140.514 365.403 140.514 365.723 140.854C366.064 141.194 366.064 141.734 365.723 142.054Z" fill="#263772"/>
<path d="M370.73 155.834C370.249 155.834 369.869 155.454 369.869 154.974C369.869 154.494 370.249 154.114 370.73 154.114C371.21 154.114 371.591 154.494 371.591 154.974C371.591 155.454 371.21 155.834 370.73 155.834Z" fill="#263772"/>
<path d="M364.502 169.133C364.161 168.793 364.161 168.253 364.502 167.933C364.842 167.613 365.383 167.593 365.703 167.933C366.044 168.273 366.044 168.813 365.703 169.133C365.363 169.473 364.822 169.473 364.502 169.133Z" fill="#263772"/>
<path d="M350.703 174.133C350.703 173.653 351.084 173.273 351.565 173.273C352.045 173.273 352.426 173.653 352.426 174.133C352.426 174.613 352.045 174.993 351.565 174.993C351.084 174.993 350.703 174.613 350.703 174.133Z" fill="#263772"/>
<path d="M337.406 167.913C337.746 167.573 338.287 167.573 338.608 167.913C338.928 168.253 338.948 168.793 338.608 169.113C338.267 169.433 337.726 169.453 337.406 169.113C337.066 168.773 337.066 168.233 337.406 167.913Z" fill="#263772"/>
<path d="M332.379 155.854C332.855 155.854 333.24 155.469 333.24 154.994C333.24 154.519 332.855 154.134 332.379 154.134C331.904 154.134 331.518 154.519 331.518 154.994C331.518 155.469 331.904 155.854 332.379 155.854Z" fill="#263772"/>
<path d="M338.607 140.834C338.948 141.174 338.948 141.714 338.607 142.034C338.267 142.374 337.726 142.374 337.406 142.034C337.085 141.694 337.065 141.154 337.406 140.834C337.746 140.514 338.287 140.494 338.607 140.834Z" fill="#263772"/>
<path d="M393.76 143.974H381.644C381.184 143.974 380.803 143.594 380.803 143.134C380.803 142.674 381.184 142.294 381.644 142.294H393.76C394.221 142.294 394.601 142.674 394.601 143.134C394.601 143.594 394.221 143.974 393.76 143.974Z" fill="#263772"/>
<path d="M393.76 167.653H381.644C381.184 167.653 380.803 167.273 380.803 166.813C380.803 166.353 381.184 165.973 381.644 165.973H393.76C394.221 165.973 394.601 166.353 394.601 166.813C394.601 167.273 394.221 167.653 393.76 167.653Z" fill="#263772"/>
<path d="M408.82 155.834H386.19C385.73 155.834 385.349 155.454 385.349 154.994C385.349 154.534 385.73 154.154 386.19 154.154H408.82C409.281 154.154 409.662 154.534 409.662 154.994C409.662 155.454 409.281 155.834 408.82 155.834Z" fill="#263772"/>
<path d="M448.292 467.061H434.915V480.421H448.292V467.061Z" fill="#FEFFFF"/>
<path d="M449.354 481.461H433.894V466.021H449.354V481.461ZM435.976 479.381H447.291V468.081H435.976V479.381Z" fill="#263772"/>
<path d="M465.235 470.001H453.119C452.658 470.001 452.278 469.621 452.278 469.161C452.278 468.701 452.658 468.321 453.119 468.321H465.235C465.696 468.321 466.076 468.701 466.076 469.161C466.076 469.621 465.696 470.001 465.235 470.001Z" fill="#263772"/>
<path d="M469.801 479.141H453.419C452.799 479.141 452.298 478.761 452.298 478.301C452.298 477.841 452.799 477.461 453.419 477.461H469.801C470.422 477.461 470.922 477.841 470.922 478.301C470.922 478.761 470.422 479.141 469.801 479.141Z" fill="#263772"/>
<path d="M475.749 474.321H453.119C452.658 474.321 452.278 473.941 452.278 473.481C452.278 473.021 452.658 472.641 453.119 472.641H475.749C476.209 472.641 476.59 473.021 476.59 473.481C476.59 473.941 476.209 474.321 475.749 474.321Z" fill="#263772"/>
<path d="M141.086 284.309H154.464V270.949H141.086V284.309Z" fill="#FEFFFF"/>
<path d="M155.506 285.349H140.045V269.909H155.506V285.349ZM142.128 283.269H153.423V271.989H142.128V283.269Z" fill="#263772"/>
<path d="M124.144 273.889H136.26C136.721 273.889 137.101 273.509 137.101 273.049C137.101 272.589 136.721 272.209 136.26 272.209H124.144C123.683 272.209 123.303 272.589 123.303 273.049C123.303 273.509 123.683 273.889 124.144 273.889Z" fill="#263772"/>
<path d="M119.598 283.049H135.98C136.601 283.049 137.101 282.669 137.101 282.209C137.101 281.749 136.601 281.369 135.98 281.369H119.598C118.977 281.369 118.477 281.749 118.477 282.209C118.477 282.669 118.977 283.049 119.598 283.049Z" fill="#263772"/>
<path d="M113.63 278.209H136.26C136.721 278.209 137.101 277.829 137.101 277.369C137.101 276.909 136.721 276.529 136.26 276.529H113.63C113.17 276.529 112.789 276.909 112.789 277.369C112.789 277.829 113.17 278.209 113.63 278.209Z" fill="#263772"/>
<path d="M553.351 321.167H549.206V499.54H553.351V321.167Z" fill="#263772"/>
<path d="M551.749 301.648H550.828C544.026 301.648 538.512 307.155 538.512 313.948V330.447C538.512 337.24 544.026 342.746 550.828 342.746H551.749C558.551 342.746 564.066 337.24 564.066 330.447V313.948C564.066 307.155 558.551 301.648 551.749 301.648Z" fill="#83CBB6"/>
<path d="M568.011 330.807C569.473 331.047 570.935 331.267 572.396 331.507C573.378 331.667 573.798 330.167 572.817 330.007C571.355 329.767 569.893 329.547 568.431 329.307C567.45 329.147 567.029 330.647 568.011 330.807Z" fill="#263772"/>
<path d="M567.87 321.307C569.012 321.107 570.153 321.087 571.315 321.187C572.316 321.287 572.296 319.727 571.315 319.627C570.013 319.507 568.752 319.567 567.45 319.807C566.469 319.987 566.889 321.487 567.87 321.307Z" fill="#263772"/>
<path d="M567.39 312.648C568.511 312.208 569.633 311.768 570.754 311.308C571.676 310.948 571.275 309.448 570.334 309.808C569.212 310.248 568.091 310.688 566.969 311.148C566.048 311.508 566.449 313.008 567.39 312.648Z" fill="#263772"/>
<path d="M529.2 332.267C530.341 332.107 531.463 331.847 532.564 331.467C533.505 331.147 533.105 329.647 532.143 329.967C531.042 330.347 529.941 330.607 528.779 330.767C527.798 330.907 528.218 332.407 529.2 332.267Z" fill="#263772"/>
<path d="M527.177 321.207C528.619 321.247 530.021 321.467 531.402 321.847C532.364 322.127 532.784 320.627 531.823 320.347C530.301 319.927 528.759 319.687 527.177 319.647C526.175 319.627 526.175 321.167 527.177 321.207Z" fill="#263772"/>
<path d="M528.539 308.408C529.66 308.768 530.782 309.128 531.903 309.488C532.864 309.788 533.265 308.288 532.324 307.988C531.202 307.628 530.081 307.268 528.959 306.908C527.998 306.608 527.597 308.108 528.539 308.408Z" fill="#263772"/>
<path d="M541.596 501.96L544.36 478.121H557.857L560.982 501.62L541.596 501.96Z" fill="#263772"/>
<path d="M160.412 387.825C159.791 384.025 157.108 374.245 151.2 377.345C141.627 382.365 153.182 401.384 141.647 404.744C141.026 397.164 139.404 391.944 135.96 392.244C128.89 392.884 130.773 409.304 130.653 413.004C130.532 416.683 130.352 420.463 130.192 424.263C121.861 425.763 123.523 404.084 118.457 401.084C110.586 396.424 108.924 406.804 109.124 411.604C109.485 419.763 111.688 429.543 119.378 433.863C121.901 435.303 126.367 436.903 129.852 436.623C129.812 443.142 130.092 449.642 131.173 455.842C131.173 455.902 131.293 455.902 131.314 455.842L135.98 456.102C135.98 456.102 135.98 456.162 135.98 456.182C135.94 458.222 139.144 458.242 139.164 456.182C139.224 452.242 141.647 432.903 141.928 416.503C145.652 417.063 150.339 415.324 153.002 413.364C160.953 407.544 161.874 396.844 160.412 387.825Z" fill="#83CBB6"/>
<path d="M137.522 458.582C137.041 458.582 136.58 458.462 136.18 458.222C135.679 457.922 135.339 457.462 135.179 456.922L131.734 456.742L130.492 456.782L130.292 456.002C129.371 450.742 128.95 444.862 128.95 437.563C125.125 437.563 120.92 435.783 118.937 434.663C110.746 430.043 108.603 419.603 108.243 411.664C108.103 408.464 108.764 401.864 112.348 399.724C114.171 398.644 116.374 398.844 118.897 400.344C121.34 401.784 122.282 406.244 123.363 411.404C124.825 418.383 126.147 423.403 129.351 423.483L129.431 421.763C129.571 418.803 129.691 415.864 129.791 412.984C129.791 412.424 129.791 411.544 129.751 410.484C129.531 404.024 129.111 391.984 135.92 391.365C136.961 391.265 137.922 391.564 138.763 392.264C140.666 393.864 141.867 397.544 142.468 403.504C146.774 401.584 146.534 396.624 146.293 390.925C146.033 385.165 145.773 379.205 150.839 376.545C152.481 375.685 154.064 375.605 155.505 376.345C159.731 378.465 161.193 386.725 161.333 387.665C162.455 394.584 162.935 407.204 153.563 414.064C150.959 415.984 146.554 417.663 142.829 417.463C142.588 428.163 141.487 439.963 140.746 447.842C140.385 451.782 140.085 454.902 140.065 456.182C140.065 457.082 139.604 457.842 138.843 458.262C138.443 458.482 138.002 458.582 137.562 458.582H137.522ZM131.914 454.982L136.861 455.242V456.102C136.821 456.522 136.981 456.642 137.081 456.702C137.321 456.842 137.682 456.842 137.942 456.702C138.143 456.582 138.243 456.402 138.243 456.142C138.243 454.782 138.543 451.802 138.924 447.662C139.685 439.583 140.826 427.363 141.006 416.464V415.464L142.028 415.604C145.472 416.124 149.958 414.444 152.461 412.624C161.073 406.324 160.592 394.444 159.531 387.945C159.07 385.085 157.448 379.325 154.664 377.925C153.743 377.465 152.742 377.525 151.6 378.105C147.515 380.245 147.755 385.385 147.996 390.845C148.256 396.844 148.556 403.624 141.887 405.584L140.846 405.884L140.766 404.804C140.145 397.244 138.703 394.544 137.582 393.624C137.121 393.224 136.621 393.064 136.04 393.124C130.913 393.584 131.293 404.964 131.494 410.424C131.534 411.544 131.554 412.444 131.554 413.044C131.454 415.924 131.334 418.863 131.193 421.843L131.053 425.023L130.352 425.143C124.665 426.163 123.063 418.503 121.641 411.744C120.72 407.404 119.778 402.904 118.016 401.844C116.093 400.704 114.491 400.484 113.27 401.224C110.626 402.804 109.885 408.404 110.025 411.564C110.366 419.063 112.328 428.883 119.818 433.103C122.402 434.563 126.627 436.003 129.771 435.743L130.733 435.663V436.623C130.693 443.902 131.073 449.762 131.914 454.962V454.982Z" fill="#56B18B"/>
<path d="M151.26 499.92H117.455C115.653 499.92 114.211 498.74 113.87 497L106.2 457.642L109.384 457.022L117.055 496.38C117.115 496.68 117.375 496.68 117.455 496.68H151.26C151.26 496.68 151.6 496.68 151.66 496.38L159.27 457.022L162.455 457.642L154.845 497C154.504 498.76 153.062 499.94 151.26 499.94V499.92Z" fill="#263772"/>
<path d="M106.541 444.982H162.655C163.616 444.982 164.397 446.042 164.397 447.322V455.842C164.397 457.142 163.616 458.182 162.655 458.182H106.541C105.579 458.182 104.798 457.122 104.798 455.842V447.322C104.798 446.022 105.579 444.982 106.541 444.982Z" fill="#FEFFFF"/>
<path d="M162.655 459.082H106.541C105.099 459.082 103.917 457.642 103.917 455.842V447.322C103.917 445.542 105.099 444.082 106.541 444.082H162.655C164.097 444.082 165.278 445.542 165.278 447.322V455.842C165.278 457.622 164.097 459.082 162.655 459.082ZM106.541 445.862C106.14 445.862 105.68 446.482 105.68 447.322V455.842C105.68 456.682 106.14 457.302 106.541 457.302H162.655C163.055 457.302 163.516 456.682 163.516 455.842V447.322C163.516 446.482 163.055 445.862 162.655 445.862H106.541Z" fill="#263772"/>
<path d="M162.655 458.942H106.541C105.179 458.942 104.057 457.562 104.057 455.862V447.342C104.057 445.642 105.159 444.262 106.541 444.262H162.655C164.017 444.262 165.138 445.642 165.138 447.342V455.862C165.138 457.562 164.017 458.942 162.655 458.942ZM106.541 445.722C106.06 445.722 105.539 446.382 105.539 447.342V455.862C105.539 456.802 106.06 457.482 106.541 457.482H162.655C163.135 457.482 163.656 456.822 163.656 455.862V447.342C163.656 446.382 163.135 445.722 162.655 445.722H106.541Z" fill="#FEFFFF"/>
<path d="M162.655 459.822H106.541C104.678 459.822 103.176 458.042 103.176 455.862V447.342C103.176 445.162 104.678 443.362 106.541 443.362H162.655C164.517 443.362 166.019 445.142 166.019 447.342V455.862C166.019 458.042 164.517 459.822 162.655 459.822ZM106.641 446.602C106.641 446.602 106.421 446.942 106.421 447.322V455.842C106.421 456.302 106.601 456.562 106.661 456.602H162.655C162.655 456.602 162.775 456.302 162.775 455.842V447.322C162.775 446.862 162.595 446.602 162.535 446.562H106.641V446.602Z" fill="#263772"/>
<path d="M112.649 411.524C113.57 411.644 114.491 411.764 115.412 411.884C116.414 412.004 116.394 410.444 115.412 410.324C114.491 410.204 113.57 410.084 112.649 409.964C111.647 409.844 111.667 411.404 112.649 411.524Z" fill="#56B18B"/>
<path d="M116.734 399.284V400.664C116.734 401.664 118.296 401.664 118.296 400.664V399.284C118.296 398.284 116.734 398.284 116.734 399.284Z" fill="#56B18B"/>
<path d="M122.121 413.564C122.802 413.184 123.463 412.804 124.144 412.444C125.025 411.964 124.244 410.604 123.363 411.104C122.682 411.484 122.021 411.864 121.34 412.224C120.459 412.704 121.24 414.064 122.121 413.564Z" fill="#56B18B"/>
<path d="M114.111 431.443C114.932 430.883 115.733 430.303 116.554 429.743C117.375 429.183 116.594 427.823 115.773 428.403C114.952 428.963 114.151 429.543 113.33 430.103C112.509 430.663 113.29 432.023 114.111 431.443Z" fill="#56B18B"/>
<path d="M108.283 418.083C108.864 418.303 109.445 418.543 110.025 418.763C110.967 419.123 111.367 417.623 110.446 417.263C109.865 417.043 109.284 416.803 108.704 416.583C107.762 416.224 107.362 417.723 108.283 418.083Z" fill="#56B18B"/>
<path d="M119.578 425.303C119.958 425.323 120.179 425.503 120.399 425.783C121.04 426.563 122.141 425.443 121.5 424.683C121 424.083 120.359 423.803 119.578 423.743C118.577 423.663 118.577 425.223 119.578 425.303Z" fill="#56B18B"/>
<path d="M123.003 432.623C122.842 433.703 122.962 434.643 123.383 435.663C123.764 436.583 125.105 435.783 124.725 434.883C124.464 434.283 124.404 433.683 124.505 433.043C124.665 432.063 123.163 431.643 123.003 432.623Z" fill="#56B18B"/>
<path d="M131.133 432.903L132.515 433.263C133.476 433.523 133.897 432.023 132.936 431.763C132.475 431.643 132.014 431.523 131.554 431.403C130.593 431.143 130.172 432.643 131.133 432.903Z" fill="#56B18B"/>
<path d="M136.12 417.603C136.04 418.483 136.38 419.283 137.061 419.863C137.822 420.503 138.923 419.403 138.162 418.763C137.762 418.423 137.642 418.103 137.682 417.603C137.782 416.604 136.22 416.604 136.12 417.603Z" fill="#56B18B"/>
<path d="M134.137 406.504C133.676 407.124 133.596 407.744 133.737 408.484C133.917 409.464 135.419 409.044 135.239 408.064C135.198 407.744 135.279 407.484 135.479 407.284C136.08 406.484 134.718 405.704 134.137 406.504Z" fill="#56B18B"/>
<path d="M142.688 411.044V412.424C142.688 413.424 144.251 413.424 144.251 412.424V411.044C144.251 410.044 142.688 410.044 142.688 411.044Z" fill="#56B18B"/>
<path d="M128.189 408.604C128.53 408.844 128.89 409.064 129.231 409.304C130.072 409.864 130.853 408.524 130.012 407.964C129.671 407.724 129.311 407.504 128.97 407.264C128.129 406.704 127.348 408.064 128.189 408.604Z" fill="#56B18B"/>
<path d="M130.793 395.704C131.093 396.064 131.233 396.424 131.273 396.884C131.353 397.884 132.916 397.884 132.835 396.884C132.775 395.984 132.475 395.284 131.894 394.604C131.233 393.844 130.152 394.944 130.793 395.704Z" fill="#56B18B"/>
<path d="M134.718 390.985V393.064C134.718 394.064 136.28 394.064 136.28 393.064V390.985C136.28 389.985 134.718 389.985 134.718 390.985Z" fill="#56B18B"/>
<path d="M144.351 400.124C144.571 400.364 144.791 400.604 145.032 400.824C145.733 401.544 146.834 400.444 146.133 399.724C145.913 399.484 145.692 399.244 145.452 399.024C144.751 398.304 143.65 399.404 144.351 400.124Z" fill="#56B18B"/>
<path d="M145.893 390.865C146.573 390.905 147.274 390.945 147.955 390.985C148.957 391.045 148.957 389.485 147.955 389.425C147.274 389.385 146.573 389.345 145.893 389.305C144.891 389.245 144.891 390.805 145.893 390.865Z" fill="#56B18B"/>
<path d="M148.116 378.405C148.576 378.865 149.037 379.325 149.497 379.785C150.198 380.485 151.3 379.385 150.599 378.685C150.138 378.225 149.678 377.765 149.217 377.305C148.516 376.605 147.415 377.705 148.116 378.405Z" fill="#56B18B"/>
<path d="M154.104 374.405V376.825C154.104 377.825 155.666 377.825 155.666 376.825V374.405C155.666 373.405 154.104 373.405 154.104 374.405Z" fill="#56B18B"/>
<path d="M156.927 388.965C157.148 388.625 157.388 388.265 157.608 387.925C158.169 387.085 156.807 386.305 156.266 387.145C156.046 387.485 155.806 387.845 155.586 388.185C155.025 389.025 156.387 389.805 156.927 388.965Z" fill="#56B18B"/>
<path d="M151.66 404.244C152.241 404.024 152.822 403.804 153.403 403.564C154.324 403.204 153.923 401.704 152.982 402.064C152.401 402.284 151.821 402.504 151.24 402.744C150.319 403.104 150.719 404.604 151.66 404.244Z" fill="#56B18B"/>
<path d="M158.549 402.064C159.13 401.944 159.711 401.824 160.272 401.704C161.253 401.504 160.832 400.004 159.851 400.204C159.27 400.324 158.69 400.444 158.129 400.564C157.148 400.764 157.568 402.264 158.549 402.064Z" fill="#56B18B"/>
<path d="M154.104 409.324V409.664C154.104 410.664 155.666 410.664 155.666 409.664V409.324C155.666 408.324 154.104 408.324 154.104 409.324Z" fill="#56B18B"/>
<path d="M140.726 433.123C141.066 432.883 141.427 432.663 141.767 432.423C142.588 431.863 141.827 430.523 140.986 431.083C140.646 431.323 140.285 431.543 139.945 431.783C139.124 432.343 139.885 433.683 140.726 433.123Z" fill="#56B18B"/>
<path d="M139.825 438.863C140.446 438.263 141.106 437.923 141.948 437.723C142.929 437.503 142.508 436.003 141.527 436.223C140.446 436.483 139.524 436.983 138.723 437.763C138.002 438.463 139.104 439.563 139.825 438.863Z" fill="#56B18B"/>
<path d="M133.416 439.803C133.536 440.023 133.656 440.263 133.777 440.483C134.237 441.383 135.579 440.583 135.118 439.703C134.998 439.483 134.878 439.243 134.758 439.023C134.297 438.123 132.956 438.923 133.416 439.803Z" fill="#56B18B"/>
<path d="M127.468 441.483C128.35 441.943 129.191 442.043 130.152 441.863C131.133 441.663 130.713 440.163 129.731 440.363C129.191 440.483 128.73 440.403 128.249 440.143C127.368 439.683 126.567 441.023 127.468 441.483Z" fill="#56B18B"/>
<path d="M140.345 426.723C141.387 426.603 142.428 426.463 143.449 426.343C144.431 426.223 144.451 424.663 143.449 424.783C142.408 424.903 141.367 425.043 140.345 425.163C139.364 425.283 139.344 426.843 140.345 426.723Z" fill="#56B18B"/>
<path d="M279.87 358.546C296.632 343.406 313.394 328.267 330.156 313.148C332.64 310.908 328.955 307.248 326.492 309.488C309.729 324.627 292.967 339.767 276.205 354.886C273.722 357.126 277.407 360.786 279.87 358.546Z" fill="#BED6E4"/>
<path d="M336.705 381.705C353.467 366.565 370.229 351.426 386.991 336.307C389.475 334.067 385.79 330.407 383.327 332.647C366.564 347.786 349.802 362.926 333.04 378.045C330.557 380.285 334.242 383.945 336.705 381.705Z" fill="#BED6E4"/>
<path d="M274.943 398.864C310.09 364.646 345.216 330.427 380.363 296.208C382.766 293.868 379.081 290.209 376.698 292.548C341.551 326.767 306.425 360.986 271.279 395.204C268.875 397.544 272.56 401.204 274.943 398.864Z" fill="#BED6E4"/>
<path d="M436.056 79.6768H433.793V224.551H436.056V79.6768Z" fill="#263772"/>
<path d="M444.127 224.531C444.127 229.611 440.002 233.731 434.915 233.731C429.828 233.731 425.703 229.611 425.703 224.531C425.703 219.451 429.828 215.331 434.915 215.331C440.002 215.331 444.127 219.451 444.127 224.531Z" fill="#263772"/>
<path d="M435.055 255.39C434.895 255.39 431.891 255.37 429.708 253.17C428.246 251.71 427.505 249.69 427.505 247.15C427.505 246.47 428.046 245.93 428.726 245.93C429.407 245.93 429.948 246.47 429.948 247.15C429.948 249.01 430.449 250.47 431.43 251.45C432.912 252.91 435.035 252.95 435.055 252.95C438.499 252.95 441.283 250.15 441.283 246.73C441.283 243.31 438.479 240.51 435.055 240.51C434.374 240.51 433.833 239.971 433.833 239.291V232.531C433.833 231.851 434.374 231.311 435.055 231.311C435.736 231.311 436.276 231.851 436.276 232.531V238.151C440.482 238.751 443.726 242.37 443.726 246.73C443.726 251.51 439.841 255.39 435.055 255.39Z" fill="#263772"/>
<path d="M386.691 261.05C386.23 260.97 385.83 260.59 385.77 260.11C385.669 259.49 386.11 258.93 386.731 258.83L436.577 251.49C437.198 251.39 437.778 251.83 437.858 252.45C437.959 253.07 437.518 253.63 436.897 253.73L387.051 261.07C386.931 261.07 386.811 261.07 386.691 261.07V261.05Z" fill="#263772"/>
<path d="M482.377 277.609C482.257 277.609 482.157 277.549 482.057 277.489L436.216 253.59C435.656 253.31 435.455 252.63 435.736 252.07C436.016 251.51 436.697 251.31 437.258 251.59L483.098 275.489C483.659 275.769 483.859 276.469 483.579 277.009C483.339 277.449 482.858 277.689 482.377 277.589V277.609Z" fill="#263772"/>
<path d="M372.775 258.691L494.848 279.88C501.241 280.989 505.528 287.072 504.417 293.456L492.202 363.641C491.09 370.025 484.999 374.306 478.607 373.197L356.533 352.008C350.14 350.899 345.853 344.816 346.964 338.432L359.18 268.247C360.291 261.863 366.382 257.582 372.775 258.691Z" fill="#FEFFFF"/>
<path d="M480.294 374.845C479.513 374.845 478.732 374.785 477.931 374.645L356.711 353.606C353.086 352.986 349.942 350.986 347.819 347.986C345.697 344.986 344.896 341.346 345.516 337.727L357.572 268.389C358.874 260.93 366.003 255.91 373.473 257.21L494.694 278.249C498.318 278.869 501.462 280.869 503.585 283.869C505.708 286.869 506.509 290.508 505.888 294.128L493.832 363.466C492.671 370.125 486.843 374.845 480.294 374.845ZM371.13 260.13C366.064 260.13 361.558 263.77 360.656 268.929L348.6 338.267C348.12 341.066 348.741 343.886 350.383 346.206C352.025 348.526 354.468 350.066 357.252 350.566L478.472 371.605C484.24 372.625 489.767 368.725 490.768 362.966L502.824 293.628C503.305 290.828 502.684 288.009 501.042 285.709C499.4 283.389 496.956 281.849 494.173 281.349L372.953 260.31C372.332 260.21 371.731 260.15 371.13 260.15V260.13Z" fill="#263772"/>
<path d="M491.423 286.715L373.69 266.279C369.603 265.57 365.715 268.303 365.005 272.384L353.849 336.481C353.139 340.561 355.876 344.444 359.962 345.154L477.695 365.589C481.781 366.298 485.67 363.565 486.38 359.484L497.536 295.388C498.246 291.307 495.509 287.424 491.423 286.715Z" fill="#FEFFFF"/>
<path d="M478.793 367.205C478.252 367.205 477.711 367.165 477.17 367.065L359.996 346.726C357.532 346.306 355.389 344.946 353.948 342.906C352.506 340.866 351.945 338.387 352.385 335.927L363.44 272.369C364.321 267.309 369.168 263.89 374.254 264.769L491.429 285.109C496.516 285.989 499.92 290.828 499.039 295.908L487.985 359.466C487.564 361.926 486.202 364.066 484.16 365.505C482.578 366.625 480.715 367.205 478.793 367.205ZM477.711 364.006C479.353 364.286 480.995 363.926 482.357 362.966C483.719 362.006 484.62 360.586 484.901 358.946L495.955 295.388C496.536 292.008 494.273 288.789 490.889 288.189L373.714 267.849C370.329 267.269 367.105 269.529 366.504 272.909L355.45 336.467C355.169 338.107 355.53 339.747 356.491 341.106C357.452 342.466 358.874 343.366 360.516 343.646L477.691 363.986L477.711 364.006Z" fill="#263772"/>
<path d="M421.877 355.886L452.337 328.007L469.2 364.086L421.877 355.886Z" fill="#FEFFFF"/>
<path d="M470.982 365.446L419.614 356.526L452.678 326.267L470.982 365.446ZM424.14 355.206L467.417 362.726L451.997 329.707L424.14 355.206Z" fill="#263772"/>
<path d="M361.638 345.426L415.649 296.008L445.529 359.986L361.638 345.426Z" fill="#FEFFFF"/>
<path d="M447.311 361.346L359.375 346.086L415.99 294.268L447.311 361.346ZM363.881 344.766L443.726 358.626L415.269 297.728L363.861 344.786L363.881 344.766Z" fill="#263772"/>
<path d="M479.854 305.368C479.133 309.468 475.228 312.228 471.122 311.508C467.017 310.788 464.253 306.888 464.974 302.788C465.695 298.688 469.6 295.928 473.706 296.648C477.811 297.368 480.575 301.268 479.854 305.368Z" fill="#FEFFFF"/>
<path d="M472.444 312.668C471.943 312.668 471.443 312.628 470.962 312.548C466.296 311.728 463.152 307.288 463.973 302.628C464.373 300.368 465.615 298.408 467.498 297.088C469.38 295.768 471.643 295.248 473.906 295.648C476.169 296.048 478.132 297.288 479.453 299.168C480.775 301.048 481.276 303.308 480.895 305.568C480.495 307.828 479.253 309.788 477.371 311.108C475.909 312.128 474.206 312.668 472.444 312.668ZM472.404 297.588C471.082 297.588 469.781 297.988 468.659 298.768C467.237 299.768 466.296 301.268 465.996 302.968C465.695 304.688 466.096 306.408 467.077 307.828C468.078 309.248 469.58 310.188 471.283 310.488C472.985 310.788 474.727 310.408 476.149 309.408C477.571 308.408 478.512 306.908 478.813 305.208C479.433 301.668 477.05 298.308 473.506 297.688C473.125 297.628 472.745 297.588 472.384 297.588H472.404Z" fill="#263772"/>
<path d="M528.318 74.797H415.109V87.2365H528.318V74.797Z" fill="#263772"/>
<path d="M626.688 331.987H589.099V0.159988H626.688V331.987ZM592.824 328.267H622.963V3.87984H592.824V328.287V328.267Z" fill="#263772"/>
<path d="M626.208 36.5785H589.559V0H626.208V36.5785ZM593.344 32.8187H622.443V3.75985H593.344V32.8187Z" fill="#263772"/>
<path d="M592.798 0.547141L590.136 3.20576L623.004 36.0284L625.666 33.3697L592.798 0.547141Z" fill="#263772"/>
<path d="M623.004 0.561262L590.136 33.3839L592.798 36.0425L625.666 3.21988L623.004 0.561262Z" fill="#263772"/>
<path d="M626.208 69.4172H589.559V32.8187H626.208V69.3972V69.4172ZM593.344 65.6574H622.443V36.5985H593.344V65.6574Z" fill="#263772"/>
<path d="M592.786 33.3731L590.124 36.0317L622.991 68.8543L625.653 66.1957L592.786 33.3731Z" fill="#263772"/>
<path d="M622.991 33.3872L590.124 66.2098L592.786 68.8684L625.653 36.0458L622.991 33.3872Z" fill="#263772"/>
<path d="M626.208 102.236H589.559V65.6374H626.208V102.236ZM593.344 98.4761H622.443V69.4172H593.344V98.4761Z" fill="#263772"/>
<path d="M592.787 66.1932L590.125 68.8518L622.992 101.674L625.654 99.0158L592.787 66.1932Z" fill="#263772"/>
<path d="M623.012 66.2273L590.145 99.0499L592.807 101.709L625.674 68.8859L623.012 66.2273Z" fill="#263772"/>
<path d="M626.208 135.075H589.559V98.4961H626.208V135.075ZM593.344 131.315H622.443V102.256H593.344V131.315Z" fill="#263772"/>
<path d="M592.794 99.0191L590.132 101.678L622.999 134.5L625.662 131.842L592.794 99.0191Z" fill="#263772"/>
<path d="M622.999 99.0332L590.132 131.856L592.794 134.514L625.662 101.692L622.999 99.0332Z" fill="#263772"/>
<path d="M626.208 167.893H589.559V131.315H626.208V167.893ZM593.344 164.133H622.443V135.075H593.344V164.133Z" fill="#263772"/>
<path d="M592.796 131.859L590.134 134.518L623.001 167.34L625.663 164.682L592.796 131.859Z" fill="#263772"/>
<path d="M623.007 131.879L590.139 164.702L592.802 167.36L625.669 134.538L623.007 131.879Z" fill="#263772"/>
<path d="M626.208 200.732H589.559V164.133H626.208V200.732ZM593.344 196.972H622.443V167.913H593.344V196.972Z" fill="#263772"/>
<path d="M592.783 164.685L590.121 167.344L622.988 200.166L625.65 197.508L592.783 164.685Z" fill="#263772"/>
<path d="M623.008 164.719L590.141 197.542L592.803 200.2L625.67 167.378L623.008 164.719Z" fill="#263772"/>
<path d="M626.208 233.551H589.559V196.972H626.208V233.551ZM593.344 229.791H622.443V200.732H593.344V229.791Z" fill="#263772"/>
<path d="M592.804 197.505L590.142 200.164L623.009 232.986L625.672 230.328L592.804 197.505Z" fill="#263772"/>
<path d="M622.995 197.545L590.128 230.368L592.79 233.026L625.657 200.204L622.995 197.545Z" fill="#263772"/>
<path d="M626.208 266.369H589.559V229.791H626.208V266.369ZM593.344 262.61H622.443V233.551H593.344V262.61Z" fill="#263772"/>
<path d="M592.792 230.331L590.129 232.99L622.997 265.812L625.659 263.154L592.792 230.331Z" fill="#263772"/>
<path d="M623.017 230.365L590.149 263.188L592.812 265.846L625.679 233.024L623.017 230.365Z" fill="#263772"/>
<path d="M626.208 299.208H589.559V262.63H626.208V299.208ZM593.344 295.448H622.443V266.389H593.344V295.448Z" fill="#263772"/>
<path d="M592.799 263.157L590.137 265.816L623.004 298.638L625.666 295.98L592.799 263.157Z" fill="#263772"/>
<path d="M623.004 263.191L590.137 296.014L592.799 298.672L625.666 265.85L623.004 263.191Z" fill="#263772"/>
<path d="M626.208 332.027H589.559V295.448H626.208V332.027ZM593.344 328.267H622.443V299.208H593.344V328.267Z" fill="#263772"/>
<path d="M592.8 295.977L590.138 298.636L623.005 331.458L625.668 328.8L592.8 295.977Z" fill="#263772"/>
<path d="M623.005 296.008L590.132 328.824L592.793 331.483L625.666 298.667L623.005 296.008Z" fill="#263772"/>
<path d="M691.614 68.9173H654.986V32.3387H691.614V68.9373V68.9173ZM658.751 65.1574H687.849V36.0986H658.751V65.1574Z" fill="#263772"/>
<path d="M688.392 32.8936L655.53 65.7219L658.193 68.3801L691.055 35.5518L688.392 32.8936Z" fill="#263772"/>
<path d="M658.201 32.8855L655.539 35.5441L688.406 68.3667L691.068 65.7081L658.201 32.8855Z" fill="#263772"/>
<path d="M658.75 68.9173H622.122V32.3387H658.75V68.9373V68.9173ZM625.887 65.1574H654.986V36.0986H625.887V65.1574Z" fill="#263772"/>
<path d="M655.525 32.8849L622.664 65.7132L625.326 68.3713L658.188 35.543L655.525 32.8849Z" fill="#263772"/>
<path d="M625.316 32.8868L622.654 35.5454L655.521 68.368L658.183 65.7094L625.316 32.8868Z" fill="#263772"/>
<path d="M625.887 68.9173H589.259V32.3387H625.887V68.9373V68.9173ZM593.024 65.1574H622.122V36.0986H593.024V65.1574Z" fill="#263772"/>
<path d="M593.004 68.9173H556.375V32.3387H593.004V68.9373V68.9173ZM560.14 65.1574H589.239V36.0986H560.14V65.1574Z" fill="#263772"/>
<path d="M589.786 32.8813L556.918 65.7039L559.58 68.3626L592.448 35.5399L589.786 32.8813Z" fill="#263772"/>
<path d="M559.58 32.8955L556.918 35.5541L589.786 68.3767L592.448 65.7181L559.58 32.8955Z" fill="#263772"/>
<path d="M560.14 68.9173H523.512V32.3387H560.14V68.9373V68.9173ZM527.277 65.1574H556.375V36.0986H527.277V65.1574Z" fill="#263772"/>
<path d="M556.901 32.8827L524.033 65.7053L526.696 68.3639L559.563 35.5413L556.901 32.8827Z" fill="#263772"/>
<path d="M526.71 32.8827L524.048 35.5414L556.915 68.364L559.577 65.7053L526.71 32.8827Z" fill="#263772"/>
<path d="M527.257 68.9173H490.628V32.3387H527.257V68.9373V68.9173ZM494.393 65.1574H523.492V36.0986H494.393V65.1574Z" fill="#263772"/>
<path d="M492.511 68.9172H459.647C458.886 68.9172 458.206 68.4573 457.905 67.7573C457.605 67.0573 457.785 66.2374 458.306 65.7174L491.169 32.8987L493.833 35.5586L464.173 65.1774H491.71L524.033 32.8987L526.696 35.5586L493.833 68.3773C493.472 68.7373 492.992 68.9373 492.511 68.9373V68.9172Z" fill="#263772"/>
<path d="M493.839 32.87L491.177 35.5286L524.044 68.3512L526.707 65.6926L493.839 32.87Z" fill="#263772"/>
<path d="M626.768 368.585H589.099V332.007H626.768V368.585ZM592.984 364.826H622.903V335.767H592.984V364.826Z" fill="#263772"/>
<path d="M623.464 368.025L589.679 335.207L592.403 332.547L626.208 365.366L623.464 368.025Z" fill="#263772"/>
<path d="M592.403 368.025L589.679 365.366L623.464 332.547L626.208 335.207L592.403 368.025Z" fill="#263772"/>
<path d="M626.768 499.88H589.099V463.302H626.768V499.88ZM592.984 496.12H622.903V467.061H592.984V496.12Z" fill="#263772"/>
<path d="M623.464 499.34L589.679 466.502L592.403 463.862L626.208 496.68L623.464 499.34Z" fill="#263772"/>
<path d="M592.403 499.34L589.679 496.68L623.464 463.862L626.208 466.502L592.403 499.34Z" fill="#263772"/>
<path d="M626.768 398.304H589.099V361.726H626.768V398.304ZM592.984 394.544H622.903V365.486H592.984V394.544Z" fill="#263772"/>
<path d="M623.464 397.744L589.679 364.926L592.403 362.266L626.208 395.084L623.464 397.744Z" fill="#263772"/>
<path d="M592.403 397.744L589.679 395.084L623.464 362.266L626.208 364.926L592.403 397.744Z" fill="#263772"/>
<path d="M626.768 431.123H589.099V394.544H626.768V431.123ZM592.984 427.363H622.903V398.304H592.984V427.363Z" fill="#263772"/>
<path d="M623.464 430.583L589.679 397.744L592.403 395.084L626.208 427.923L623.464 430.583Z" fill="#263772"/>
<path d="M592.403 430.583L589.679 427.923L623.464 395.084L626.208 397.744L592.403 430.583Z" fill="#263772"/>
<path d="M626.768 463.942H589.099V427.363H626.768V463.942ZM592.984 460.182H622.903V431.123H592.984V460.182Z" fill="#263772"/>
<path d="M623.464 463.402L589.679 430.583L592.403 427.923L626.208 460.742L623.464 463.402Z" fill="#263772"/>
<path d="M592.403 463.402L589.679 460.742L623.464 427.923L626.208 430.583L592.403 463.402Z" fill="#263772"/>
<path d="M206.473 199.092C210.478 199.092 210.498 192.872 206.473 192.872C202.448 192.872 202.448 199.092 206.473 199.092Z" fill="#263772"/>
<path d="M544.299 134.115C548.305 134.115 548.325 127.895 544.299 127.895C540.274 127.895 540.274 134.115 544.299 134.115Z" fill="#263772"/>
<path d="M684.144 356.726H685.526C687.148 356.726 688.71 355.286 688.65 353.606C688.57 351.926 687.288 350.486 685.526 350.486H684.144C682.522 350.486 680.96 351.926 681.02 353.606C681.1 355.286 682.382 356.726 684.144 356.726Z" fill="#263772"/>
<path d="M83.23 402.364C87.2353 402.364 87.2554 396.144 83.23 396.144C79.2047 396.144 79.2047 402.364 83.23 402.364Z" fill="#263772"/>
<path d="M380.924 103.696C384.929 103.696 384.949 97.4761 380.924 97.4761C376.898 97.4761 376.898 103.696 380.924 103.696Z" fill="#263772"/>
</g>
<defs>
<clipPath id="clip0_4_1121">
<rect width="802" height="504" fill="white"/>
</clipPath>
<clipPath id="clip1_4_1121">
<rect width="313" height="168" fill="white" transform="translate(183 260)"/>
</clipPath>
</defs>
</svg>
