<?xml version="1.0" encoding="UTF-8"?>
<svg id="Layer_2" data-name="Layer 2" xmlns="http://www.w3.org/2000/svg" xmlns:xlink="http://www.w3.org/1999/xlink" viewBox="0 0 2414.94 302.99">
  <defs>
    <style>
      .cls-1 {
        fill: none;
        stroke: url(#linear-gradient);
        stroke-miterlimit: 10;
      }
    </style>
    <linearGradient id="linear-gradient" x1="1207.47" y1="1063.89" x2="1207.47" y2="760.89" gradientTransform="translate(0 1063.89) scale(1 -1)" gradientUnits="userSpaceOnUse">
      <stop offset="0" stop-color="#7acab7"/>
      <stop offset=".28" stop-color="#7acab7" stop-opacity=".45"/>
      <stop offset=".5" stop-color="#7acab7" stop-opacity="0"/>
    </linearGradient>
  </defs>
  <g id="Layer_1-2" data-name="Layer 1">
    <path class="cls-1" d="M76.05,226.95c-1.89,1.89-3.51,3.93-4.89,6.09-8.72,13.73-7.1,32.15,4.89,44.13l-12.56,12.56c-1.89-1.88-3.51-3.93-4.89-6.09-7.35-11.57-7.35-26.47,0-38.04,1.37-2.16,3-4.21,4.89-6.09l12.56-12.56m-12.56,12.56c-1.89,1.89-3.93,3.51-6.09,4.89-11.57,7.35-26.47,7.35-38.04,0-2.16-1.37-4.21-3-6.09-4.89L.71,226.95c1.89,1.89,3.93,3.51,6.09,4.89,13.73,8.73,32.15,7.1,44.13-4.89l12.56,12.56m-50.23,0c1.89,1.89,3.52,3.93,4.89,6.09,7.35,11.58,7.35,26.48,0,38.05-1.37,2.16-3,4.2-4.88,6.08l-12.56,12.56c1.88-1.88,3.51-3.92,4.88-6.08,8.73-13.73,7.11-32.16-4.88-44.14l12.56-12.56m62.78,62.78c-1.89-1.89-3.93-3.51-6.09-4.89-13.73-8.73-32.15-7.1-44.13,4.89l-12.56-12.56c1.89-1.89,3.94-3.52,6.1-4.89,11.57-7.35,26.46-7.35,38.03,0,2.16,1.37,4.21,3,6.09,4.89l12.56,12.56m75.43-75.34c-1.89,1.89-3.51,3.93-4.89,6.09-8.72,13.73-7.1,32.15,4.89,44.13l-12.56,12.56c-1.89-1.88-3.51-3.93-4.89-6.09-7.35-11.57-7.35-26.47,0-38.04,1.37-2.16,3-4.21,4.89-6.09l12.56-12.56m-12.56,12.56c-1.89,1.89-3.93,3.51-6.09,4.89-11.57,7.35-26.47,7.35-38.04,0-2.16-1.37-4.21-3-6.09-4.89l-12.56-12.56c1.89,1.89,3.93,3.51,6.09,4.89,13.73,8.73,32.15,7.1,44.13-4.89l12.56,12.56m-50.23,0c1.89,1.89,3.52,3.93,4.89,6.09,7.35,11.58,7.35,26.48,0,38.05-1.37,2.16-3,4.2-4.88,6.08l-12.56,12.56c1.88-1.88,3.51-3.92,4.88-6.08,8.73-13.73,7.11-32.16-4.88-44.14l12.56-12.56m62.78,62.78c-1.89-1.89-3.93-3.51-6.09-4.89-13.73-8.73-32.15-7.1-44.13,4.89l-12.56-12.56c1.89-1.89,3.94-3.52,6.1-4.89,11.57-7.35,26.46-7.35,38.03,0,2.16,1.37,4.21,3,6.09,4.89l12.56,12.56m75.43-75.34c-1.89,1.89-3.51,3.93-4.89,6.09-8.72,13.73-7.1,32.15,4.89,44.13l-12.56,12.56c-1.89-1.88-3.51-3.93-4.89-6.09-7.35-11.57-7.35-26.47,0-38.04,1.37-2.16,3-4.21,4.89-6.09l12.56-12.56m-12.56,12.56c-1.89,1.89-3.93,3.51-6.09,4.89-11.57,7.35-26.47,7.35-38.04,0-2.16-1.37-4.21-3-6.09-4.89l-12.56-12.56c1.89,1.89,3.93,3.51,6.09,4.89,13.73,8.73,32.15,7.1,44.13-4.89l12.56,12.56m-50.23,0c1.89,1.89,3.52,3.93,4.89,6.09,7.35,11.58,7.35,26.48,0,38.05-1.37,2.16-3,4.2-4.88,6.08l-12.56,12.56c1.88-1.88,3.51-3.92,4.88-6.08,8.73-13.73,7.11-32.16-4.88-44.14l12.56-12.56m62.78,62.78c-1.89-1.89-3.93-3.51-6.09-4.89-13.73-8.73-32.15-7.1-44.13,4.89l-12.56-12.56c1.89-1.89,3.94-3.52,6.1-4.89,11.57-7.35,26.46-7.35,38.03,0,2.16,1.37,4.21,3,6.09,4.89l12.56,12.56m75.43-75.34c-1.89,1.89-3.51,3.93-4.89,6.09-8.72,13.73-7.1,32.15,4.89,44.13l-12.56,12.56c-1.89-1.88-3.51-3.93-4.89-6.09-7.35-11.57-7.35-26.47,0-38.04,1.37-2.16,3-4.21,4.89-6.09l12.56-12.56m-12.56,12.56c-1.89,1.89-3.93,3.51-6.09,4.89-11.57,7.35-26.47,7.35-38.04,0-2.16-1.37-4.21-3-6.09-4.89l-12.56-12.56c1.89,1.89,3.93,3.51,6.09,4.89,13.73,8.73,32.15,7.1,44.13-4.89l12.56,12.56m-50.23,0c1.89,1.89,3.52,3.93,4.89,6.09,7.35,11.58,7.35,26.48,0,38.05-1.37,2.16-3,4.2-4.88,6.08l-12.56,12.56c1.88-1.88,3.51-3.92,4.88-6.08,8.73-13.73,7.11-32.16-4.88-44.14l12.56-12.56m62.78,62.78c-1.89-1.89-3.93-3.51-6.09-4.89-13.73-8.73-32.15-7.1-44.13,4.89l-12.56-12.56c1.89-1.89,3.94-3.52,6.1-4.89,11.57-7.35,26.46-7.35,38.03,0,2.16,1.37,4.21,3,6.09,4.89l12.56,12.56m75.43-75.34c-1.89,1.89-3.51,3.93-4.89,6.09-8.72,13.73-7.1,32.15,4.89,44.13l-12.56,12.56c-1.89-1.88-3.51-3.93-4.89-6.09-7.35-11.57-7.35-26.47,0-38.04,1.37-2.16,3-4.21,4.89-6.09l12.56-12.56m-12.56,12.56c-1.89,1.89-3.93,3.51-6.09,4.89-11.57,7.35-26.47,7.35-38.04,0-2.16-1.37-4.21-3-6.09-4.89l-12.56-12.56c1.89,1.89,3.93,3.51,6.09,4.89,13.73,8.73,32.15,7.1,44.13-4.89l12.56,12.56m-50.23,0c1.89,1.89,3.52,3.93,4.89,6.09,7.35,11.58,7.35,26.48,0,38.05-1.37,2.16-3,4.2-4.88,6.08l-12.56,12.56c1.88-1.88,3.51-3.92,4.88-6.08,8.73-13.73,7.11-32.16-4.88-44.14l12.56-12.56m62.78,62.78c-1.89-1.89-3.93-3.51-6.09-4.89-13.73-8.73-32.15-7.1-44.13,4.89l-12.56-12.56c1.89-1.89,3.94-3.52,6.1-4.89,11.57-7.35,26.46-7.35,38.03,0,2.16,1.37,4.21,3,6.09,4.89l12.56,12.56m75.43-75.34c-1.89,1.89-3.51,3.93-4.89,6.09-8.72,13.73-7.1,32.15,4.89,44.13l-12.56,12.56c-1.89-1.88-3.51-3.93-4.89-6.09-7.35-11.57-7.35-26.47,0-38.04,1.37-2.16,3-4.21,4.89-6.09l12.56-12.56m-12.56,12.56c-1.89,1.89-3.93,3.51-6.09,4.89-11.57,7.35-26.47,7.35-38.04,0-2.16-1.37-4.21-3-6.09-4.89l-12.56-12.56c1.89,1.89,3.93,3.51,6.09,4.89,13.73,8.73,32.15,7.1,44.13-4.89l12.56,12.56m-50.23,0c1.89,1.89,3.52,3.93,4.89,6.09,7.35,11.58,7.35,26.48,0,38.05-1.37,2.16-3,4.2-4.88,6.08l-12.56,12.56c1.88-1.88,3.51-3.92,4.88-6.08,8.73-13.73,7.11-32.16-4.88-44.14l12.56-12.56m62.78,62.78c-1.89-1.89-3.93-3.51-6.09-4.89-13.73-8.73-32.15-7.1-44.13,4.89l-12.56-12.56c1.89-1.89,3.94-3.52,6.1-4.89,11.57-7.35,26.46-7.35,38.03,0,2.16,1.37,4.21,3,6.09,4.89l12.56,12.56m75.43-75.34c-1.89,1.89-3.51,3.93-4.89,6.09-8.72,13.73-7.1,32.15,4.89,44.13l-12.56,12.56c-1.89-1.88-3.51-3.93-4.89-6.09-7.35-11.57-7.35-26.47,0-38.04,1.37-2.16,3-4.21,4.89-6.09l12.56-12.56m-12.56,12.56c-1.89,1.89-3.93,3.51-6.09,4.89-11.57,7.35-26.47,7.35-38.04,0-2.16-1.37-4.21-3-6.09-4.89l-12.56-12.56c1.89,1.89,3.93,3.51,6.09,4.89,13.73,8.73,32.15,7.1,44.13-4.89l12.56,12.56m-50.23,0c1.89,1.89,3.52,3.93,4.89,6.09,7.35,11.58,7.35,26.48,0,38.05-1.37,2.16-3,4.2-4.88,6.08l-12.56,12.56c1.88-1.88,3.51-3.92,4.88-6.08,8.73-13.73,7.11-32.16-4.88-44.14l12.56-12.56m62.78,62.78c-1.89-1.89-3.93-3.51-6.09-4.89-13.73-8.73-32.15-7.1-44.13,4.89l-12.56-12.56c1.89-1.89,3.94-3.52,6.1-4.89,11.57-7.35,26.46-7.35,38.03,0,2.16,1.37,4.21,3,6.09,4.89l12.56,12.56m75.43-75.34c-1.89,1.89-3.51,3.93-4.89,6.09-8.72,13.73-7.1,32.15,4.89,44.13l-12.56,12.56c-1.89-1.88-3.51-3.93-4.89-6.09-7.35-11.57-7.35-26.47,0-38.04,1.37-2.16,3-4.21,4.89-6.09l12.56-12.56m-12.56,12.56c-1.89,1.89-3.93,3.51-6.09,4.89-11.57,7.35-26.47,7.35-38.04,0-2.16-1.37-4.21-3-6.09-4.89l-12.56-12.56c1.89,1.89,3.93,3.51,6.09,4.89,13.73,8.73,32.15,7.1,44.13-4.89l12.56,12.56m-50.23,0c1.89,1.89,3.52,3.93,4.89,6.09,7.35,11.58,7.35,26.48,0,38.05-1.37,2.16-3,4.2-4.88,6.08l-12.56,12.56c1.88-1.88,3.51-3.92,4.88-6.08,8.73-13.73,7.11-32.16-4.88-44.14l12.56-12.56m62.78,62.78c-1.89-1.89-3.93-3.51-6.09-4.89-13.73-8.73-32.15-7.1-44.13,4.89l-12.56-12.56c1.89-1.89,3.94-3.52,6.1-4.89,11.57-7.35,26.46-7.35,38.03,0,2.16,1.37,4.21,3,6.09,4.89l12.56,12.56m75.43-75.34c-1.89,1.89-3.51,3.93-4.89,6.09-8.72,13.73-7.1,32.15,4.89,44.13l-12.56,12.56c-1.89-1.88-3.51-3.93-4.89-6.09-7.35-11.57-7.35-26.47,0-38.04,1.37-2.16,3-4.21,4.89-6.09l12.56-12.56m-12.56,12.56c-1.89,1.89-3.93,3.51-6.09,4.89-11.57,7.35-26.47,7.35-38.04,0-2.16-1.37-4.21-3-6.09-4.89l-12.56-12.56c1.89,1.89,3.93,3.51,6.09,4.89,13.73,8.73,32.15,7.1,44.13-4.89l12.56,12.56m-50.23,0c1.89,1.89,3.52,3.93,4.89,6.09,7.35,11.58,7.35,26.48,0,38.05-1.37,2.16-3,4.2-4.88,6.08l-12.56,12.56c1.88-1.88,3.51-3.92,4.88-6.08,8.73-13.73,7.11-32.16-4.88-44.14l12.56-12.56m62.78,62.78c-1.89-1.89-3.93-3.51-6.09-4.89-13.73-8.73-32.15-7.1-44.13,4.89l-12.56-12.56c1.89-1.89,3.94-3.52,6.1-4.89,11.57-7.35,26.46-7.35,38.03,0,2.16,1.37,4.21,3,6.09,4.89l12.56,12.56m75.43-75.34c-1.89,1.89-3.51,3.93-4.89,6.09-8.72,13.73-7.1,32.15,4.89,44.13l-12.56,12.56c-1.89-1.88-3.51-3.93-4.89-6.09-7.35-11.57-7.35-26.47,0-38.04,1.37-2.16,3-4.21,4.89-6.09l12.56-12.56m-12.56,12.56c-1.89,1.89-3.93,3.51-6.09,4.89-11.57,7.35-26.47,7.35-38.04,0-2.16-1.37-4.21-3-6.09-4.89l-12.56-12.56c1.89,1.89,3.93,3.51,6.09,4.89,13.73,8.73,32.15,7.1,44.13-4.89l12.56,12.56m-50.23,0c1.89,1.89,3.52,3.93,4.89,6.09,7.35,11.58,7.35,26.48,0,38.05-1.37,2.16-3,4.2-4.88,6.08l-12.56,12.56c1.88-1.88,3.51-3.92,4.88-6.08,8.73-13.73,7.11-32.16-4.88-44.14l12.56-12.56m62.78,62.78c-1.89-1.89-3.93-3.51-6.09-4.89-13.73-8.73-32.15-7.1-44.13,4.89l-12.56-12.56c1.89-1.89,3.94-3.52,6.1-4.89,11.57-7.35,26.46-7.35,38.03,0,2.16,1.37,4.21,3,6.09,4.89l12.56,12.56m75.43-75.34c-1.89,1.89-3.51,3.93-4.89,6.09-8.72,13.73-7.1,32.15,4.89,44.13l-12.56,12.56c-1.89-1.88-3.51-3.93-4.89-6.09-7.35-11.57-7.35-26.47,0-38.04,1.37-2.16,3-4.21,4.89-6.09l12.56-12.56m-12.56,12.56c-1.89,1.89-3.93,3.51-6.09,4.89-11.57,7.35-26.47,7.35-38.04,0-2.16-1.37-4.21-3-6.09-4.89l-12.56-12.56c1.89,1.89,3.93,3.51,6.09,4.89,13.73,8.73,32.15,7.1,44.13-4.89l12.56,12.56m-50.23,0c1.89,1.89,3.52,3.93,4.89,6.09,7.35,11.58,7.35,26.48,0,38.05-1.37,2.16-3,4.2-4.88,6.08l-12.56,12.56c1.88-1.88,3.51-3.92,4.88-6.08,8.73-13.73,7.11-32.16-4.88-44.14l12.56-12.56m62.78,62.78c-1.89-1.89-3.93-3.51-6.09-4.89-13.73-8.73-32.15-7.1-44.13,4.89l-12.56-12.56c1.89-1.89,3.94-3.52,6.1-4.89,11.57-7.35,26.46-7.35,38.03,0,2.16,1.37,4.21,3,6.09,4.89l12.56,12.56m75.43-75.34c-1.89,1.89-3.51,3.93-4.89,6.09-8.72,13.73-7.1,32.15,4.89,44.13l-12.56,12.56c-1.89-1.88-3.51-3.93-4.89-6.09-7.35-11.57-7.35-26.47,0-38.04,1.37-2.16,3-4.21,4.89-6.09l12.56-12.56m-12.56,12.56c-1.89,1.89-3.93,3.51-6.09,4.89-11.57,7.35-26.47,7.35-38.04,0-2.16-1.37-4.21-3-6.09-4.89l-12.56-12.56c1.89,1.89,3.93,3.51,6.09,4.89,13.73,8.73,32.15,7.1,44.13-4.89l12.56,12.56m-50.23,0c1.89,1.89,3.52,3.93,4.89,6.09,7.35,11.58,7.35,26.48,0,38.05-1.37,2.16-3,4.2-4.88,6.08l-12.56,12.56c1.88-1.88,3.51-3.92,4.88-6.08,8.73-13.73,7.11-32.16-4.88-44.14l12.56-12.56m62.78,62.78c-1.89-1.89-3.93-3.51-6.09-4.89-13.73-8.73-32.15-7.1-44.13,4.89l-12.56-12.56c1.89-1.89,3.94-3.52,6.1-4.89,11.57-7.35,26.46-7.35,38.03,0,2.16,1.37,4.21,3,6.09,4.89l12.56,12.56m75.43-75.34c-1.89,1.89-3.51,3.93-4.89,6.09-8.72,13.73-7.1,32.15,4.89,44.13l-12.56,12.56c-1.89-1.88-3.51-3.93-4.89-6.09-7.35-11.57-7.35-26.47,0-38.04,1.37-2.16,3-4.21,4.89-6.09l12.56-12.56m-12.56,12.56c-1.89,1.89-3.93,3.51-6.09,4.89-11.57,7.35-26.47,7.35-38.04,0-2.16-1.37-4.21-3-6.09-4.89l-12.56-12.56c1.89,1.89,3.93,3.51,6.09,4.89,13.73,8.73,32.15,7.1,44.13-4.89l12.56,12.56m-50.23,0c1.89,1.89,3.52,3.93,4.89,6.09,7.35,11.58,7.35,26.48,0,38.05-1.37,2.16-3,4.2-4.88,6.08l-12.56,12.56c1.88-1.88,3.51-3.92,4.88-6.08,8.73-13.73,7.11-32.16-4.88-44.14l12.56-12.56m62.78,62.78c-1.89-1.89-3.93-3.51-6.09-4.89-13.73-8.73-32.15-7.1-44.13,4.89l-12.56-12.56c1.89-1.89,3.94-3.52,6.1-4.89,11.57-7.35,26.46-7.35,38.03,0,2.16,1.37,4.21,3,6.09,4.89l12.56,12.56m75.43-75.34c-1.89,1.89-3.51,3.93-4.89,6.09-8.72,13.73-7.1,32.15,4.89,44.13l-12.56,12.56c-1.89-1.88-3.51-3.93-4.89-6.09-7.35-11.57-7.35-26.47,0-38.04,1.37-2.16,3-4.21,4.89-6.09l12.56-12.56m-12.56,12.56c-1.89,1.89-3.93,3.51-6.09,4.89-11.57,7.35-26.47,7.35-38.04,0-2.16-1.37-4.21-3-6.09-4.89l-12.56-12.56c1.89,1.89,3.93,3.51,6.09,4.89,13.73,8.73,32.15,7.1,44.13-4.89l12.56,12.56m-50.23,0c1.89,1.89,3.52,3.93,4.89,6.09,7.35,11.58,7.35,26.48,0,38.05-1.37,2.16-3,4.2-4.88,6.08l-12.56,12.56c1.88-1.88,3.51-3.92,4.88-6.08,8.73-13.73,7.11-32.16-4.88-44.14l12.56-12.56m62.78,62.78c-1.89-1.89-3.93-3.51-6.09-4.89-13.73-8.73-32.15-7.1-44.13,4.89l-12.56-12.56c1.89-1.89,3.94-3.52,6.1-4.89,11.57-7.35,26.46-7.35,38.03,0,2.16,1.37,4.21,3,6.09,4.89l12.56,12.56m75.43-75.34c-1.89,1.89-3.51,3.93-4.89,6.09-8.72,13.73-7.1,32.15,4.89,44.13l-12.56,12.56c-1.89-1.88-3.51-3.93-4.89-6.09-7.35-11.57-7.35-26.47,0-38.04,1.37-2.16,3-4.21,4.89-6.09l12.56-12.56m-12.56,12.56c-1.89,1.89-3.93,3.51-6.09,4.89-11.57,7.35-26.47,7.35-38.04,0-2.16-1.37-4.21-3-6.09-4.89l-12.56-12.56c1.89,1.89,3.93,3.51,6.09,4.89,13.73,8.73,32.15,7.1,44.13-4.89l12.56,12.56m-50.23,0c1.89,1.89,3.52,3.93,4.89,6.09,7.35,11.58,7.35,26.48,0,38.05-1.37,2.16-3,4.2-4.88,6.08l-12.56,12.56c1.88-1.88,3.51-3.92,4.88-6.08,8.73-13.73,7.11-32.16-4.88-44.14l12.56-12.56m62.78,62.78c-1.89-1.89-3.93-3.51-6.09-4.89-13.73-8.73-32.15-7.1-44.13,4.89l-12.56-12.56c1.89-1.89,3.94-3.52,6.1-4.89,11.57-7.35,26.46-7.35,38.03,0,2.16,1.37,4.21,3,6.09,4.89l12.56,12.56m75.43-75.34c-1.89,1.89-3.51,3.93-4.89,6.09-8.72,13.73-7.1,32.15,4.89,44.13l-12.56,12.56c-1.89-1.88-3.51-3.93-4.89-6.09-7.35-11.57-7.35-26.47,0-38.04,1.37-2.16,3-4.21,4.89-6.09l12.56-12.56m-12.56,12.56c-1.89,1.89-3.93,3.51-6.09,4.89-11.57,7.35-26.47,7.35-38.04,0-2.16-1.37-4.21-3-6.09-4.89l-12.56-12.56c1.89,1.89,3.93,3.51,6.09,4.89,13.73,8.73,32.15,7.1,44.13-4.89l12.56,12.56m-50.23,0c1.89,1.89,3.52,3.93,4.89,6.09,7.35,11.58,7.35,26.48,0,38.05-1.37,2.16-3,4.2-4.88,6.08l-12.56,12.56c1.88-1.88,3.51-3.92,4.88-6.08,8.73-13.73,7.11-32.16-4.88-44.14l12.56-12.56m62.78,62.78c-1.89-1.89-3.93-3.51-6.09-4.89-13.73-8.73-32.15-7.1-44.13,4.89l-12.56-12.56c1.89-1.89,3.94-3.52,6.1-4.89,11.57-7.35,26.46-7.35,38.03,0,2.16,1.37,4.21,3,6.09,4.89l12.56,12.56m75.43-75.34c-1.89,1.89-3.51,3.93-4.89,6.09-8.72,13.73-7.1,32.15,4.89,44.13l-12.56,12.56c-1.89-1.88-3.51-3.93-4.89-6.09-7.35-11.57-7.35-26.47,0-38.04,1.37-2.16,3-4.21,4.89-6.09l12.56-12.56m-12.56,12.56c-1.89,1.89-3.93,3.51-6.09,4.89-11.57,7.35-26.47,7.35-38.04,0-2.16-1.37-4.21-3-6.09-4.89l-12.56-12.56c1.89,1.89,3.93,3.51,6.09,4.89,13.73,8.73,32.15,7.1,44.13-4.89l12.56,12.56m-50.23,0c1.89,1.89,3.52,3.93,4.89,6.09,7.35,11.58,7.35,26.48,0,38.05-1.37,2.16-3,4.2-4.88,6.08l-12.56,12.56c1.88-1.88,3.51-3.92,4.88-6.08,8.73-13.73,7.11-32.16-4.88-44.14l12.56-12.56m62.78,62.78c-1.89-1.89-3.93-3.51-6.09-4.89-13.73-8.73-32.15-7.1-44.13,4.89l-12.56-12.56c1.89-1.89,3.94-3.52,6.1-4.89,11.57-7.35,26.46-7.35,38.03,0,2.16,1.37,4.21,3,6.09,4.89l12.56,12.56m75.43-75.34c-1.89,1.89-3.51,3.93-4.89,6.09-8.72,13.73-7.1,32.15,4.89,44.13l-12.56,12.56c-1.89-1.88-3.51-3.93-4.89-6.09-7.35-11.57-7.35-26.47,0-38.04,1.37-2.16,3-4.21,4.89-6.09l12.56-12.56m-12.56,12.56c-1.89,1.89-3.93,3.51-6.09,4.89-11.57,7.35-26.47,7.35-38.04,0-2.16-1.37-4.21-3-6.09-4.89l-12.56-12.56c1.89,1.89,3.93,3.51,6.09,4.89,13.73,8.73,32.15,7.1,44.13-4.89l12.56,12.56m-50.23,0c1.89,1.89,3.52,3.93,4.89,6.09,7.35,11.58,7.35,26.48,0,38.05-1.37,2.16-3,4.2-4.88,6.08l-12.56,12.56c1.88-1.88,3.51-3.92,4.88-6.08,8.73-13.73,7.11-32.16-4.88-44.14l12.56-12.56m62.78,62.78c-1.89-1.89-3.93-3.51-6.09-4.89-13.73-8.73-32.15-7.1-44.13,4.89l-12.56-12.56c1.89-1.89,3.94-3.52,6.1-4.89,11.57-7.35,26.46-7.35,38.03,0,2.16,1.37,4.21,3,6.09,4.89l12.56,12.56m75.43-75.34c-1.89,1.89-3.51,3.93-4.89,6.09-8.72,13.73-7.1,32.15,4.89,44.13l-12.56,12.56c-1.89-1.88-3.51-3.93-4.89-6.09-7.35-11.57-7.35-26.47,0-38.04,1.37-2.16,3-4.21,4.89-6.09l12.56-12.56m-12.56,12.56c-1.89,1.89-3.93,3.51-6.09,4.89-11.57,7.35-26.47,7.35-38.04,0-2.16-1.37-4.21-3-6.09-4.89l-12.56-12.56c1.89,1.89,3.93,3.51,6.09,4.89,13.73,8.73,32.15,7.1,44.13-4.89l12.56,12.56m-50.23,0c1.89,1.89,3.52,3.93,4.89,6.09,7.35,11.58,7.35,26.48,0,38.05-1.37,2.16-3,4.2-4.88,6.08l-12.56,12.56c1.88-1.88,3.51-3.92,4.88-6.08,8.73-13.73,7.11-32.16-4.88-44.14l12.56-12.56m62.78,62.78c-1.89-1.89-3.93-3.51-6.09-4.89-13.73-8.73-32.15-7.1-44.13,4.89l-12.56-12.56c1.89-1.89,3.94-3.52,6.1-4.89,11.57-7.35,26.46-7.35,38.03,0,2.16,1.37,4.21,3,6.09,4.89l12.56,12.56m75.43-75.34c-1.89,1.89-3.51,3.93-4.89,6.09-8.72,13.73-7.1,32.15,4.89,44.13l-12.56,12.56c-1.89-1.88-3.51-3.93-4.89-6.09-7.35-11.57-7.35-26.47,0-38.04,1.37-2.16,3-4.21,4.89-6.09l12.56-12.56m-12.56,12.56c-1.89,1.89-3.93,3.51-6.09,4.89-11.57,7.35-26.47,7.35-38.04,0-2.16-1.37-4.21-3-6.09-4.89l-12.56-12.56c1.89,1.89,3.93,3.51,6.09,4.89,13.73,8.73,32.15,7.1,44.13-4.89l12.56,12.56m-50.23,0c1.89,1.89,3.52,3.93,4.89,6.09,7.35,11.58,7.35,26.48,0,38.05-1.37,2.16-3,4.2-4.88,6.08l-12.56,12.56c1.88-1.88,3.51-3.92,4.88-6.08,8.73-13.73,7.11-32.16-4.88-44.14l12.56-12.56m62.78,62.78c-1.89-1.89-3.93-3.51-6.09-4.89-13.73-8.73-32.15-7.1-44.13,4.89l-12.56-12.56c1.89-1.89,3.94-3.52,6.1-4.89,11.57-7.35,26.46-7.35,38.03,0,2.16,1.37,4.21,3,6.09,4.89l12.56,12.56m75.43-75.34c-1.89,1.89-3.51,3.93-4.89,6.09-8.72,13.73-7.1,32.15,4.89,44.13l-12.56,12.56c-1.89-1.88-3.51-3.93-4.89-6.09-7.35-11.57-7.35-26.47,0-38.04,1.37-2.16,3-4.21,4.89-6.09l12.56-12.56m-12.56,12.56c-1.89,1.89-3.93,3.51-6.09,4.89-11.57,7.35-26.47,7.35-38.04,0-2.16-1.37-4.21-3-6.09-4.89l-12.56-12.56c1.89,1.89,3.93,3.51,6.09,4.89,13.73,8.73,32.15,7.1,44.13-4.89l12.56,12.56m-50.23,0c1.89,1.89,3.52,3.93,4.89,6.09,7.35,11.58,7.35,26.48,0,38.05-1.37,2.16-3,4.2-4.88,6.08l-12.56,12.56c1.88-1.88,3.51-3.92,4.88-6.08,8.73-13.73,7.11-32.16-4.88-44.14l12.56-12.56m62.78,62.78c-1.89-1.89-3.93-3.51-6.09-4.89-13.73-8.73-32.15-7.1-44.13,4.89l-12.56-12.56c1.89-1.89,3.94-3.52,6.1-4.89,11.57-7.35,26.46-7.35,38.03,0,2.16,1.37,4.21,3,6.09,4.89l12.56,12.56m75.43-75.34c-1.89,1.89-3.51,3.93-4.89,6.09-8.72,13.73-7.1,32.15,4.89,44.13l-12.56,12.56c-1.89-1.88-3.51-3.93-4.89-6.09-7.35-11.57-7.35-26.47,0-38.04,1.37-2.16,3-4.21,4.89-6.09l12.56-12.56m-12.56,12.56c-1.89,1.89-3.93,3.51-6.09,4.89-11.57,7.35-26.47,7.35-38.04,0-2.16-1.37-4.21-3-6.09-4.89l-12.56-12.56c1.89,1.89,3.93,3.51,6.09,4.89,13.73,8.73,32.15,7.1,44.13-4.89l12.56,12.56m-50.23,0c1.89,1.89,3.52,3.93,4.89,6.09,7.35,11.58,7.35,26.48,0,38.05-1.37,2.16-3,4.2-4.88,6.08l-12.56,12.56c1.88-1.88,3.51-3.92,4.88-6.08,8.73-13.73,7.11-32.16-4.88-44.14l12.56-12.56m62.78,62.78c-1.89-1.89-3.93-3.51-6.09-4.89-13.73-8.73-32.15-7.1-44.13,4.89l-12.56-12.56c1.89-1.89,3.94-3.52,6.1-4.89,11.57-7.35,26.46-7.35,38.03,0,2.16,1.37,4.21,3,6.09,4.89l12.56,12.56m75.43-75.34c-1.89,1.89-3.51,3.93-4.89,6.09-8.72,13.73-7.1,32.15,4.89,44.13l-12.56,12.56c-1.89-1.88-3.51-3.93-4.89-6.09-7.35-11.57-7.35-26.47,0-38.04,1.37-2.16,3-4.21,4.89-6.09l12.56-12.56m-12.56,12.56c-1.89,1.89-3.93,3.51-6.09,4.89-11.57,7.35-26.47,7.35-38.04,0-2.16-1.37-4.21-3-6.09-4.89l-12.56-12.56c1.89,1.89,3.93,3.51,6.09,4.89,13.73,8.73,32.15,7.1,44.13-4.89l12.56,12.56m-50.23,0c1.89,1.89,3.52,3.93,4.89,6.09,7.35,11.58,7.35,26.48,0,38.05-1.37,2.16-3,4.2-4.88,6.08l-12.56,12.56c1.88-1.88,3.51-3.92,4.88-6.08,8.73-13.73,7.11-32.16-4.88-44.14l12.56-12.56m62.78,62.78c-1.89-1.89-3.93-3.51-6.09-4.89-13.73-8.73-32.15-7.1-44.13,4.89l-12.56-12.56c1.89-1.89,3.94-3.52,6.1-4.89,11.57-7.35,26.46-7.35,38.03,0,2.16,1.37,4.21,3,6.09,4.89l12.56,12.56m75.43-75.34c-1.89,1.89-3.51,3.93-4.89,6.09-8.72,13.73-7.1,32.15,4.89,44.13l-12.56,12.56c-1.89-1.88-3.51-3.93-4.89-6.09-7.35-11.57-7.35-26.47,0-38.04,1.37-2.16,3-4.21,4.89-6.09l12.56-12.56m-12.56,12.56c-1.89,1.89-3.93,3.51-6.09,4.89-11.57,7.35-26.47,7.35-38.04,0-2.16-1.37-4.21-3-6.09-4.89l-12.56-12.56c1.89,1.89,3.93,3.51,6.09,4.89,13.73,8.73,32.15,7.1,44.13-4.89l12.56,12.56m-50.23,0c1.89,1.89,3.52,3.93,4.89,6.09,7.35,11.58,7.35,26.48,0,38.05-1.37,2.16-3,4.2-4.88,6.08l-12.56,12.56c1.88-1.88,3.51-3.92,4.88-6.08,8.73-13.73,7.11-32.16-4.88-44.14l12.56-12.56m62.78,62.78c-1.89-1.89-3.93-3.51-6.09-4.89-13.73-8.73-32.15-7.1-44.13,4.89l-12.56-12.56c1.89-1.89,3.94-3.52,6.1-4.89,11.57-7.35,26.46-7.35,38.03,0,2.16,1.37,4.21,3,6.09,4.89l12.56,12.56m75.43-75.34c-1.89,1.89-3.51,3.93-4.89,6.09-8.72,13.73-7.1,32.15,4.89,44.13l-12.56,12.56c-1.89-1.88-3.51-3.93-4.89-6.09-7.35-11.57-7.35-26.47,0-38.04,1.37-2.16,3-4.21,4.89-6.09l12.56-12.56m-12.56,12.56c-1.89,1.89-3.93,3.51-6.09,4.89-11.57,7.35-26.47,7.35-38.04,0-2.16-1.37-4.21-3-6.09-4.89l-12.56-12.56c1.89,1.89,3.93,3.51,6.09,4.89,13.73,8.73,32.15,7.1,44.13-4.89l12.56,12.56m-50.23,0c1.89,1.89,3.52,3.93,4.89,6.09,7.35,11.58,7.35,26.48,0,38.05-1.37,2.16-3,4.2-4.88,6.08l-12.56,12.56c1.88-1.88,3.51-3.92,4.88-6.08,8.73-13.73,7.11-32.16-4.88-44.14l12.56-12.56m62.78,62.78c-1.89-1.89-3.93-3.51-6.09-4.89-13.73-8.73-32.15-7.1-44.13,4.89l-12.56-12.56c1.89-1.89,3.94-3.52,6.1-4.89,11.57-7.35,26.46-7.35,38.03,0,2.16,1.37,4.21,3,6.09,4.89l12.56,12.56m75.43-75.34c-1.89,1.89-3.51,3.93-4.89,6.09-8.72,13.73-7.1,32.15,4.89,44.13l-12.56,12.56c-1.89-1.88-3.51-3.93-4.89-6.09-7.35-11.57-7.35-26.47,0-38.04,1.37-2.16,3-4.21,4.89-6.09l12.56-12.56m-12.56,12.56c-1.89,1.89-3.93,3.51-6.09,4.89-11.57,7.35-26.47,7.35-38.04,0-2.16-1.37-4.21-3-6.09-4.89l-12.56-12.56c1.89,1.89,3.93,3.51,6.09,4.89,13.73,8.73,32.15,7.1,44.13-4.89l12.56,12.56m-50.23,0c1.89,1.89,3.52,3.93,4.89,6.09,7.35,11.58,7.35,26.48,0,38.05-1.37,2.16-3,4.2-4.88,6.08l-12.56,12.56c1.88-1.88,3.51-3.92,4.88-6.08,8.73-13.73,7.11-32.16-4.88-44.14l12.56-12.56m62.78,62.78c-1.89-1.89-3.93-3.51-6.09-4.89-13.73-8.73-32.15-7.1-44.13,4.89l-12.56-12.56c1.89-1.89,3.94-3.52,6.1-4.89,11.57-7.35,26.46-7.35,38.03,0,2.16,1.37,4.21,3,6.09,4.89l12.56,12.56m75.43-75.34c-1.89,1.89-3.51,3.93-4.89,6.09-8.72,13.73-7.1,32.15,4.89,44.13l-12.56,12.56c-1.89-1.88-3.51-3.93-4.89-6.09-7.35-11.57-7.35-26.47,0-38.04,1.37-2.16,3-4.21,4.89-6.09l12.56-12.56m-12.56,12.56c-1.89,1.89-3.93,3.51-6.09,4.89-11.57,7.35-26.47,7.35-38.04,0-2.16-1.37-4.21-3-6.09-4.89l-12.56-12.56c1.89,1.89,3.93,3.51,6.09,4.89,13.73,8.73,32.15,7.1,44.13-4.89l12.56,12.56m-50.23,0c1.89,1.89,3.52,3.93,4.89,6.09,7.35,11.58,7.35,26.48,0,38.05-1.37,2.16-3,4.2-4.88,6.08l-12.56,12.56c1.88-1.88,3.51-3.92,4.88-6.08,8.73-13.73,7.11-32.16-4.88-44.14l12.56-12.56m62.78,62.78c-1.89-1.89-3.93-3.51-6.09-4.89-13.73-8.73-32.15-7.1-44.13,4.89l-12.56-12.56c1.89-1.89,3.94-3.52,6.1-4.89,11.57-7.35,26.46-7.35,38.03,0,2.16,1.37,4.21,3,6.09,4.89l12.56,12.56m75.43-75.34c-1.89,1.89-3.51,3.93-4.89,6.09-8.72,13.73-7.1,32.15,4.89,44.13l-12.56,12.56c-1.89-1.88-3.51-3.93-4.89-6.09-7.35-11.57-7.35-26.47,0-38.04,1.37-2.16,3-4.21,4.89-6.09l12.56-12.56m-12.56,12.56c-1.89,1.89-3.93,3.51-6.09,4.89-11.57,7.35-26.47,7.35-38.04,0-2.16-1.37-4.21-3-6.09-4.89l-12.56-12.56c1.89,1.89,3.93,3.51,6.09,4.89,13.73,8.73,32.15,7.1,44.13-4.89l12.56,12.56m-50.23,0c1.89,1.89,3.52,3.93,4.89,6.09,7.35,11.58,7.35,26.48,0,38.05-1.37,2.16-3,4.2-4.88,6.08l-12.56,12.56c1.88-1.88,3.51-3.92,4.88-6.08,8.73-13.73,7.11-32.16-4.88-44.14l12.56-12.56m62.78,62.78c-1.89-1.89-3.93-3.51-6.09-4.89-13.73-8.73-32.15-7.1-44.13,4.89l-12.56-12.56c1.89-1.89,3.94-3.52,6.1-4.89,11.57-7.35,26.46-7.35,38.03,0,2.16,1.37,4.21,3,6.09,4.89l12.56,12.56m75.43-75.34c-1.89,1.89-3.51,3.93-4.89,6.09-8.72,13.73-7.1,32.15,4.89,44.13l-12.56,12.56c-1.89-1.88-3.51-3.93-4.89-6.09-7.35-11.57-7.35-26.47,0-38.04,1.37-2.16,3-4.21,4.89-6.09l12.56-12.56m-12.56,12.56c-1.89,1.89-3.93,3.51-6.09,4.89-11.57,7.35-26.47,7.35-38.04,0-2.16-1.37-4.21-3-6.09-4.89l-12.56-12.56c1.89,1.89,3.93,3.51,6.09,4.89,13.73,8.73,32.15,7.1,44.13-4.89l12.56,12.56m-50.23,0c1.89,1.89,3.52,3.93,4.89,6.09,7.35,11.58,7.35,26.48,0,38.05-1.37,2.16-3,4.2-4.88,6.08l-12.56,12.56c1.88-1.88,3.51-3.92,4.88-6.08,8.73-13.73,7.11-32.16-4.88-44.14l12.56-12.56m62.78,62.78c-1.89-1.89-3.93-3.51-6.09-4.89-13.73-8.73-32.15-7.1-44.13,4.89l-12.56-12.56c1.89-1.89,3.94-3.52,6.1-4.89,11.57-7.35,26.46-7.35,38.03,0,2.16,1.37,4.21,3,6.09,4.89l12.56,12.56m75.43-75.34c-1.89,1.89-3.51,3.93-4.89,6.09-8.72,13.73-7.1,32.15,4.89,44.13l-12.56,12.56c-1.89-1.88-3.51-3.93-4.89-6.09-7.35-11.57-7.35-26.47,0-38.04,1.37-2.16,3-4.21,4.89-6.09l12.56-12.56m-12.56,12.56c-1.89,1.89-3.93,3.51-6.09,4.89-11.57,7.35-26.47,7.35-38.04,0-2.16-1.37-4.21-3-6.09-4.89l-12.56-12.56c1.89,1.89,3.93,3.51,6.09,4.89,13.73,8.73,32.15,7.1,44.13-4.89l12.56,12.56m-50.23,0c1.89,1.89,3.52,3.93,4.89,6.09,7.35,11.58,7.35,26.48,0,38.05-1.37,2.16-3,4.2-4.88,6.08l-12.56,12.56c1.88-1.88,3.51-3.92,4.88-6.08,8.73-13.73,7.11-32.16-4.88-44.14l12.56-12.56m62.78,62.78c-1.89-1.89-3.93-3.51-6.09-4.89-13.73-8.73-32.15-7.1-44.13,4.89l-12.56-12.56c1.89-1.89,3.94-3.52,6.1-4.89,11.57-7.35,26.46-7.35,38.03,0,2.16,1.37,4.21,3,6.09,4.89l12.56,12.56m75.43-75.34c-1.89,1.89-3.51,3.93-4.89,6.09-8.72,13.73-7.1,32.15,4.89,44.13l-12.56,12.56c-1.89-1.88-3.51-3.93-4.89-6.09-7.35-11.57-7.35-26.47,0-38.04,1.37-2.16,3-4.21,4.89-6.09l12.56-12.56m-12.56,12.56c-1.89,1.89-3.93,3.51-6.09,4.89-11.57,7.35-26.47,7.35-38.04,0-2.16-1.37-4.21-3-6.09-4.89l-12.56-12.56c1.89,1.89,3.93,3.51,6.09,4.89,13.73,8.73,32.15,7.1,44.13-4.89l12.56,12.56m-50.23,0c1.89,1.89,3.52,3.93,4.89,6.09,7.35,11.58,7.35,26.48,0,38.05-1.37,2.16-3,4.2-4.88,6.08l-12.56,12.56c1.88-1.88,3.51-3.92,4.88-6.08,8.73-13.73,7.11-32.16-4.88-44.14l12.56-12.56m62.78,62.78c-1.89-1.89-3.93-3.51-6.09-4.89-13.73-8.73-32.15-7.1-44.13,4.89l-12.56-12.56c1.89-1.89,3.94-3.52,6.1-4.89,11.57-7.35,26.46-7.35,38.03,0,2.16,1.37,4.21,3,6.09,4.89l12.56,12.56m75.43-75.34c-1.89,1.89-3.51,3.93-4.89,6.09-8.72,13.73-7.1,32.15,4.89,44.13l-12.56,12.56c-1.89-1.88-3.51-3.93-4.89-6.09-7.35-11.57-7.35-26.47,0-38.04,1.37-2.16,3-4.21,4.89-6.09l12.56-12.56m-12.56,12.56c-1.89,1.89-3.93,3.51-6.09,4.89-11.57,7.35-26.47,7.35-38.04,0-2.16-1.37-4.21-3-6.09-4.89l-12.56-12.56c1.89,1.89,3.93,3.51,6.09,4.89,13.73,8.73,32.15,7.1,44.13-4.89l12.56,12.56m-50.23,0c1.89,1.89,3.52,3.93,4.89,6.09,7.35,11.58,7.35,26.48,0,38.05-1.37,2.16-3,4.2-4.88,6.08l-12.56,12.56c1.88-1.88,3.51-3.92,4.88-6.08,8.73-13.73,7.11-32.16-4.88-44.14l12.56-12.56m62.78,62.78c-1.89-1.89-3.93-3.51-6.09-4.89-13.73-8.73-32.15-7.1-44.13,4.89l-12.56-12.56c1.89-1.89,3.94-3.52,6.1-4.89,11.57-7.35,26.46-7.35,38.03,0,2.16,1.37,4.21,3,6.09,4.89l12.56,12.56M76.05,151.53c-1.89,1.89-3.51,3.93-4.89,6.09-8.72,13.73-7.1,32.15,4.89,44.13l-12.56,12.56c-1.89-1.88-3.51-3.93-4.89-6.09-7.35-11.57-7.35-26.47,0-38.04,1.37-2.16,3-4.21,4.89-6.09l12.56-12.56m-12.56,12.56c-1.89,1.89-3.93,3.51-6.09,4.89-11.57,7.35-26.47,7.35-38.04,0-2.16-1.37-4.21-3-6.09-4.89L.71,151.53c1.89,1.89,3.93,3.51,6.09,4.89,13.73,8.73,32.15,7.1,44.13-4.89l12.56,12.56m-50.23,0c1.89,1.89,3.52,3.93,4.89,6.09,7.35,11.58,7.35,26.48,0,38.05-1.37,2.16-3,4.2-4.88,6.08L.71,226.87c1.88-1.88,3.51-3.92,4.88-6.08,8.73-13.73,7.11-32.16-4.88-44.14l12.56-12.56m62.78,62.78c-1.89-1.89-3.93-3.51-6.09-4.89-13.73-8.73-32.15-7.1-44.13,4.89l-12.56-12.56c1.89-1.89,3.94-3.52,6.1-4.89,11.57-7.35,26.46-7.35,38.03,0,2.16,1.37,4.21,3,6.09,4.89l12.56,12.56m75.43-75.34c-1.89,1.89-3.51,3.93-4.89,6.09-8.72,13.73-7.1,32.15,4.89,44.13l-12.56,12.56c-1.89-1.88-3.51-3.93-4.89-6.09-7.35-11.57-7.35-26.47,0-38.04,1.37-2.16,3-4.21,4.89-6.09l12.56-12.56m-12.56,12.56c-1.89,1.89-3.93,3.51-6.09,4.89-11.57,7.35-26.47,7.35-38.04,0-2.16-1.37-4.21-3-6.09-4.89l-12.56-12.56c1.89,1.89,3.93,3.51,6.09,4.89,13.73,8.73,32.15,7.1,44.13-4.89l12.56,12.56m-50.23,0c1.89,1.89,3.52,3.93,4.89,6.09,7.35,11.58,7.35,26.48,0,38.05-1.37,2.16-3,4.2-4.88,6.08l-12.56,12.56c1.88-1.88,3.51-3.92,4.88-6.08,8.73-13.73,7.11-32.16-4.88-44.14l12.56-12.56m62.78,62.78c-1.89-1.89-3.93-3.51-6.09-4.89-13.73-8.73-32.15-7.1-44.13,4.89l-12.56-12.56c1.89-1.89,3.94-3.52,6.1-4.89,11.57-7.35,26.46-7.35,38.03,0,2.16,1.37,4.21,3,6.09,4.89l12.56,12.56m75.43-75.34c-1.89,1.89-3.51,3.93-4.89,6.09-8.72,13.73-7.1,32.15,4.89,44.13l-12.56,12.56c-1.89-1.88-3.51-3.93-4.89-6.09-7.35-11.57-7.35-26.47,0-38.04,1.37-2.16,3-4.21,4.89-6.09l12.56-12.56m-12.56,12.56c-1.89,1.89-3.93,3.51-6.09,4.89-11.57,7.35-26.47,7.35-38.04,0-2.16-1.37-4.21-3-6.09-4.89l-12.56-12.56c1.89,1.89,3.93,3.51,6.09,4.89,13.73,8.73,32.15,7.1,44.13-4.89l12.56,12.56m-50.23,0c1.89,1.89,3.52,3.93,4.89,6.09,7.35,11.58,7.35,26.48,0,38.05-1.37,2.16-3,4.2-4.88,6.08l-12.56,12.56c1.88-1.88,3.51-3.92,4.88-6.08,8.73-13.73,7.11-32.16-4.88-44.14l12.56-12.56m62.78,62.78c-1.89-1.89-3.93-3.51-6.09-4.89-13.73-8.73-32.15-7.1-44.13,4.89l-12.56-12.56c1.89-1.89,3.94-3.52,6.1-4.89,11.57-7.35,26.46-7.35,38.03,0,2.16,1.37,4.21,3,6.09,4.89l12.56,12.56m75.43-75.34c-1.89,1.89-3.51,3.93-4.89,6.09-8.72,13.73-7.1,32.15,4.89,44.13l-12.56,12.56c-1.89-1.88-3.51-3.93-4.89-6.09-7.35-11.57-7.35-26.47,0-38.04,1.37-2.16,3-4.21,4.89-6.09l12.56-12.56m-12.56,12.56c-1.89,1.89-3.93,3.51-6.09,4.89-11.57,7.35-26.47,7.35-38.04,0-2.16-1.37-4.21-3-6.09-4.89l-12.56-12.56c1.89,1.89,3.93,3.51,6.09,4.89,13.73,8.73,32.15,7.1,44.13-4.89l12.56,12.56m-50.23,0c1.89,1.89,3.52,3.93,4.89,6.09,7.35,11.58,7.35,26.48,0,38.05-1.37,2.16-3,4.2-4.88,6.08l-12.56,12.56c1.88-1.88,3.51-3.92,4.88-6.08,8.73-13.73,7.11-32.16-4.88-44.14l12.56-12.56m62.78,62.78c-1.89-1.89-3.93-3.51-6.09-4.89-13.73-8.73-32.15-7.1-44.13,4.89l-12.56-12.56c1.89-1.89,3.94-3.52,6.1-4.89,11.57-7.35,26.46-7.35,38.03,0,2.16,1.37,4.21,3,6.09,4.89l12.56,12.56m75.43-75.34c-1.89,1.89-3.51,3.93-4.89,6.09-8.72,13.73-7.1,32.15,4.89,44.13l-12.56,12.56c-1.89-1.88-3.51-3.93-4.89-6.09-7.35-11.57-7.35-26.47,0-38.04,1.37-2.16,3-4.21,4.89-6.09l12.56-12.56m-12.56,12.56c-1.89,1.89-3.93,3.51-6.09,4.89-11.57,7.35-26.47,7.35-38.04,0-2.16-1.37-4.21-3-6.09-4.89l-12.56-12.56c1.89,1.89,3.93,3.51,6.09,4.89,13.73,8.73,32.15,7.1,44.13-4.89l12.56,12.56m-50.23,0c1.89,1.89,3.52,3.93,4.89,6.09,7.35,11.58,7.35,26.48,0,38.05-1.37,2.16-3,4.2-4.88,6.08l-12.56,12.56c1.88-1.88,3.51-3.92,4.88-6.08,8.73-13.73,7.11-32.16-4.88-44.14l12.56-12.56m62.78,62.78c-1.89-1.89-3.93-3.51-6.09-4.89-13.73-8.73-32.15-7.1-44.13,4.89l-12.56-12.56c1.89-1.89,3.94-3.52,6.1-4.89,11.57-7.35,26.46-7.35,38.03,0,2.16,1.37,4.21,3,6.09,4.89l12.56,12.56m75.43-75.34c-1.89,1.89-3.51,3.93-4.89,6.09-8.72,13.73-7.1,32.15,4.89,44.13l-12.56,12.56c-1.89-1.88-3.51-3.93-4.89-6.09-7.35-11.57-7.35-26.47,0-38.04,1.37-2.16,3-4.21,4.89-6.09l12.56-12.56m-12.56,12.56c-1.89,1.89-3.93,3.51-6.09,4.89-11.57,7.35-26.47,7.35-38.04,0-2.16-1.37-4.21-3-6.09-4.89l-12.56-12.56c1.89,1.89,3.93,3.51,6.09,4.89,13.73,8.73,32.15,7.1,44.13-4.89l12.56,12.56m-50.23,0c1.89,1.89,3.52,3.93,4.89,6.09,7.35,11.58,7.35,26.48,0,38.05-1.37,2.16-3,4.2-4.88,6.08l-12.56,12.56c1.88-1.88,3.51-3.92,4.88-6.08,8.73-13.73,7.11-32.16-4.88-44.14l12.56-12.56m62.78,62.78c-1.89-1.89-3.93-3.51-6.09-4.89-13.73-8.73-32.15-7.1-44.13,4.89l-12.56-12.56c1.89-1.89,3.94-3.52,6.1-4.89,11.57-7.35,26.46-7.35,38.03,0,2.16,1.37,4.21,3,6.09,4.89l12.56,12.56m75.43-75.34c-1.89,1.89-3.51,3.93-4.89,6.09-8.72,13.73-7.1,32.15,4.89,44.13l-12.56,12.56c-1.89-1.88-3.51-3.93-4.89-6.09-7.35-11.57-7.35-26.47,0-38.04,1.37-2.16,3-4.21,4.89-6.09l12.56-12.56m-12.56,12.56c-1.89,1.89-3.93,3.51-6.09,4.89-11.57,7.35-26.47,7.35-38.04,0-2.16-1.37-4.21-3-6.09-4.89l-12.56-12.56c1.89,1.89,3.93,3.51,6.09,4.89,13.73,8.73,32.15,7.1,44.13-4.89l12.56,12.56m-50.23,0c1.89,1.89,3.52,3.93,4.89,6.09,7.35,11.58,7.35,26.48,0,38.05-1.37,2.16-3,4.2-4.88,6.08l-12.56,12.56c1.88-1.88,3.51-3.92,4.88-6.08,8.73-13.73,7.11-32.16-4.88-44.14l12.56-12.56m62.78,62.78c-1.89-1.89-3.93-3.51-6.09-4.89-13.73-8.73-32.15-7.1-44.13,4.89l-12.56-12.56c1.89-1.89,3.94-3.52,6.1-4.89,11.57-7.35,26.46-7.35,38.03,0,2.16,1.37,4.21,3,6.09,4.89l12.56,12.56m75.43-75.34c-1.89,1.89-3.51,3.93-4.89,6.09-8.72,13.73-7.1,32.15,4.89,44.13l-12.56,12.56c-1.89-1.88-3.51-3.93-4.89-6.09-7.35-11.57-7.35-26.47,0-38.04,1.37-2.16,3-4.21,4.89-6.09l12.56-12.56m-12.56,12.56c-1.89,1.89-3.93,3.51-6.09,4.89-11.57,7.35-26.47,7.35-38.04,0-2.16-1.37-4.21-3-6.09-4.89l-12.56-12.56c1.89,1.89,3.93,3.51,6.09,4.89,13.73,8.73,32.15,7.1,44.13-4.89l12.56,12.56m-50.23,0c1.89,1.89,3.52,3.93,4.89,6.09,7.35,11.58,7.35,26.48,0,38.05-1.37,2.16-3,4.2-4.88,6.08l-12.56,12.56c1.88-1.88,3.51-3.92,4.88-6.08,8.73-13.73,7.11-32.16-4.88-44.14l12.56-12.56m62.78,62.78c-1.89-1.89-3.93-3.51-6.09-4.89-13.73-8.73-32.15-7.1-44.13,4.89l-12.56-12.56c1.89-1.89,3.94-3.52,6.1-4.89,11.57-7.35,26.46-7.35,38.03,0,2.16,1.37,4.21,3,6.09,4.89l12.56,12.56m75.43-75.34c-1.89,1.89-3.51,3.93-4.89,6.09-8.72,13.73-7.1,32.15,4.89,44.13l-12.56,12.56c-1.89-1.88-3.51-3.93-4.89-6.09-7.35-11.57-7.35-26.47,0-38.04,1.37-2.16,3-4.21,4.89-6.09l12.56-12.56m-12.56,12.56c-1.89,1.89-3.93,3.51-6.09,4.89-11.57,7.35-26.47,7.35-38.04,0-2.16-1.37-4.21-3-6.09-4.89l-12.56-12.56c1.89,1.89,3.93,3.51,6.09,4.89,13.73,8.73,32.15,7.1,44.13-4.89l12.56,12.56m-50.23,0c1.89,1.89,3.52,3.93,4.89,6.09,7.35,11.58,7.35,26.48,0,38.05-1.37,2.16-3,4.2-4.88,6.08l-12.56,12.56c1.88-1.88,3.51-3.92,4.88-6.08,8.73-13.73,7.11-32.16-4.88-44.14l12.56-12.56m62.78,62.78c-1.89-1.89-3.93-3.51-6.09-4.89-13.73-8.73-32.15-7.1-44.13,4.89l-12.56-12.56c1.89-1.89,3.94-3.52,6.1-4.89,11.57-7.35,26.46-7.35,38.03,0,2.16,1.37,4.21,3,6.09,4.89l12.56,12.56m75.43-75.34c-1.89,1.89-3.51,3.93-4.89,6.09-8.72,13.73-7.1,32.15,4.89,44.13l-12.56,12.56c-1.89-1.88-3.51-3.93-4.89-6.09-7.35-11.57-7.35-26.47,0-38.04,1.37-2.16,3-4.21,4.89-6.09l12.56-12.56m-12.56,12.56c-1.89,1.89-3.93,3.51-6.09,4.89-11.57,7.35-26.47,7.35-38.04,0-2.16-1.37-4.21-3-6.09-4.89l-12.56-12.56c1.89,1.89,3.93,3.51,6.09,4.89,13.73,8.73,32.15,7.1,44.13-4.89l12.56,12.56m-50.23,0c1.89,1.89,3.52,3.93,4.89,6.09,7.35,11.58,7.35,26.48,0,38.05-1.37,2.16-3,4.2-4.88,6.08l-12.56,12.56c1.88-1.88,3.51-3.92,4.88-6.08,8.73-13.73,7.11-32.16-4.88-44.14l12.56-12.56m62.78,62.78c-1.89-1.89-3.93-3.51-6.09-4.89-13.73-8.73-32.15-7.1-44.13,4.89l-12.56-12.56c1.89-1.89,3.94-3.52,6.1-4.89,11.57-7.35,26.46-7.35,38.03,0,2.16,1.37,4.21,3,6.09,4.89l12.56,12.56m75.43-75.34c-1.89,1.89-3.51,3.93-4.89,6.09-8.72,13.73-7.1,32.15,4.89,44.13l-12.56,12.56c-1.89-1.88-3.51-3.93-4.89-6.09-7.35-11.57-7.35-26.47,0-38.04,1.37-2.16,3-4.21,4.89-6.09l12.56-12.56m-12.56,12.56c-1.89,1.89-3.93,3.51-6.09,4.89-11.57,7.35-26.47,7.35-38.04,0-2.16-1.37-4.21-3-6.09-4.89l-12.56-12.56c1.89,1.89,3.93,3.51,6.09,4.89,13.73,8.73,32.15,7.1,44.13-4.89l12.56,12.56m-50.23,0c1.89,1.89,3.52,3.93,4.89,6.09,7.35,11.58,7.35,26.48,0,38.05-1.37,2.16-3,4.2-4.88,6.08l-12.56,12.56c1.88-1.88,3.51-3.92,4.88-6.08,8.73-13.73,7.11-32.16-4.88-44.14l12.56-12.56m62.78,62.78c-1.89-1.89-3.93-3.51-6.09-4.89-13.73-8.73-32.15-7.1-44.13,4.89l-12.56-12.56c1.89-1.89,3.94-3.52,6.1-4.89,11.57-7.35,26.46-7.35,38.03,0,2.16,1.37,4.21,3,6.09,4.89l12.56,12.56m75.43-75.34c-1.89,1.89-3.51,3.93-4.89,6.09-8.72,13.73-7.1,32.15,4.89,44.13l-12.56,12.56c-1.89-1.88-3.51-3.93-4.89-6.09-7.35-11.57-7.35-26.47,0-38.04,1.37-2.16,3-4.21,4.89-6.09l12.56-12.56m-12.56,12.56c-1.89,1.89-3.93,3.51-6.09,4.89-11.57,7.35-26.47,7.35-38.04,0-2.16-1.37-4.21-3-6.09-4.89l-12.56-12.56c1.89,1.89,3.93,3.51,6.09,4.89,13.73,8.73,32.15,7.1,44.13-4.89l12.56,12.56m-50.23,0c1.89,1.89,3.52,3.93,4.89,6.09,7.35,11.58,7.35,26.48,0,38.05-1.37,2.16-3,4.2-4.88,6.08l-12.56,12.56c1.88-1.88,3.51-3.92,4.88-6.08,8.73-13.73,7.11-32.16-4.88-44.14l12.56-12.56m62.78,62.78c-1.89-1.89-3.93-3.51-6.09-4.89-13.73-8.73-32.15-7.1-44.13,4.89l-12.56-12.56c1.89-1.89,3.94-3.52,6.1-4.89,11.57-7.35,26.46-7.35,38.03,0,2.16,1.37,4.21,3,6.09,4.89l12.56,12.56m75.43-75.34c-1.89,1.89-3.51,3.93-4.89,6.09-8.72,13.73-7.1,32.15,4.89,44.13l-12.56,12.56c-1.89-1.88-3.51-3.93-4.89-6.09-7.35-11.57-7.35-26.47,0-38.04,1.37-2.16,3-4.21,4.89-6.09l12.56-12.56m-12.56,12.56c-1.89,1.89-3.93,3.51-6.09,4.89-11.57,7.35-26.47,7.35-38.04,0-2.16-1.37-4.21-3-6.09-4.89l-12.56-12.56c1.89,1.89,3.93,3.51,6.09,4.89,13.73,8.73,32.15,7.1,44.13-4.89l12.56,12.56m-50.23,0c1.89,1.89,3.52,3.93,4.89,6.09,7.35,11.58,7.35,26.48,0,38.05-1.37,2.16-3,4.2-4.88,6.08l-12.56,12.56c1.88-1.88,3.51-3.92,4.88-6.08,8.73-13.73,7.11-32.16-4.88-44.14l12.56-12.56m62.78,62.78c-1.89-1.89-3.93-3.51-6.09-4.89-13.73-8.73-32.15-7.1-44.13,4.89l-12.56-12.56c1.89-1.89,3.94-3.52,6.1-4.89,11.57-7.35,26.46-7.35,38.03,0,2.16,1.37,4.21,3,6.09,4.89l12.56,12.56m75.43-75.34c-1.89,1.89-3.51,3.93-4.89,6.09-8.72,13.73-7.1,32.15,4.89,44.13l-12.56,12.56c-1.89-1.88-3.51-3.93-4.89-6.09-7.35-11.57-7.35-26.47,0-38.04,1.37-2.16,3-4.21,4.89-6.09l12.56-12.56m-12.56,12.56c-1.89,1.89-3.93,3.51-6.09,4.89-11.57,7.35-26.47,7.35-38.04,0-2.16-1.37-4.21-3-6.09-4.89l-12.56-12.56c1.89,1.89,3.93,3.51,6.09,4.89,13.73,8.73,32.15,7.1,44.13-4.89l12.56,12.56m-50.23,0c1.89,1.89,3.52,3.93,4.89,6.09,7.35,11.58,7.35,26.48,0,38.05-1.37,2.16-3,4.2-4.88,6.08l-12.56,12.56c1.88-1.88,3.51-3.92,4.88-6.08,8.73-13.73,7.11-32.16-4.88-44.14l12.56-12.56m62.78,62.78c-1.89-1.89-3.93-3.51-6.09-4.89-13.73-8.73-32.15-7.1-44.13,4.89l-12.56-12.56c1.89-1.89,3.94-3.52,6.1-4.89,11.57-7.35,26.46-7.35,38.03,0,2.16,1.37,4.21,3,6.09,4.89l12.56,12.56m75.43-75.34c-1.89,1.89-3.51,3.93-4.89,6.09-8.72,13.73-7.1,32.15,4.89,44.13l-12.56,12.56c-1.89-1.88-3.51-3.93-4.89-6.09-7.35-11.57-7.35-26.47,0-38.04,1.37-2.16,3-4.21,4.89-6.09l12.56-12.56m-12.56,12.56c-1.89,1.89-3.93,3.51-6.09,4.89-11.57,7.35-26.47,7.35-38.04,0-2.16-1.37-4.21-3-6.09-4.89l-12.56-12.56c1.89,1.89,3.93,3.51,6.09,4.89,13.73,8.73,32.15,7.1,44.13-4.89l12.56,12.56m-50.23,0c1.89,1.89,3.52,3.93,4.89,6.09,7.35,11.58,7.35,26.48,0,38.05-1.37,2.16-3,4.2-4.88,6.08l-12.56,12.56c1.88-1.88,3.51-3.92,4.88-6.08,8.73-13.73,7.11-32.16-4.88-44.14l12.56-12.56m62.78,62.78c-1.89-1.89-3.93-3.51-6.09-4.89-13.73-8.73-32.15-7.1-44.13,4.89l-12.56-12.56c1.89-1.89,3.94-3.52,6.1-4.89,11.57-7.35,26.46-7.35,38.03,0,2.16,1.37,4.21,3,6.09,4.89l12.56,12.56m75.43-75.34c-1.89,1.89-3.51,3.93-4.89,6.09-8.72,13.73-7.1,32.15,4.89,44.13l-12.56,12.56c-1.89-1.88-3.51-3.93-4.89-6.09-7.35-11.57-7.35-26.47,0-38.04,1.37-2.16,3-4.21,4.89-6.09l12.56-12.56m-12.56,12.56c-1.89,1.89-3.93,3.51-6.09,4.89-11.57,7.35-26.47,7.35-38.04,0-2.16-1.37-4.21-3-6.09-4.89l-12.56-12.56c1.89,1.89,3.93,3.51,6.09,4.89,13.73,8.73,32.15,7.1,44.13-4.89l12.56,12.56m-50.23,0c1.89,1.89,3.52,3.93,4.89,6.09,7.35,11.58,7.35,26.48,0,38.05-1.37,2.16-3,4.2-4.88,6.08l-12.56,12.56c1.88-1.88,3.51-3.92,4.88-6.08,8.73-13.73,7.11-32.16-4.88-44.14l12.56-12.56m62.78,62.78c-1.89-1.89-3.93-3.51-6.09-4.89-13.73-8.73-32.15-7.1-44.13,4.89l-12.56-12.56c1.89-1.89,3.94-3.52,6.1-4.89,11.57-7.35,26.46-7.35,38.03,0,2.16,1.37,4.21,3,6.09,4.89l12.56,12.56m75.43-75.34c-1.89,1.89-3.51,3.93-4.89,6.09-8.72,13.73-7.1,32.15,4.89,44.13l-12.56,12.56c-1.89-1.88-3.51-3.93-4.89-6.09-7.35-11.57-7.35-26.47,0-38.04,1.37-2.16,3-4.21,4.89-6.09l12.56-12.56m-12.56,12.56c-1.89,1.89-3.93,3.51-6.09,4.89-11.57,7.35-26.47,7.35-38.04,0-2.16-1.37-4.21-3-6.09-4.89l-12.56-12.56c1.89,1.89,3.93,3.51,6.09,4.89,13.73,8.73,32.15,7.1,44.13-4.89l12.56,12.56m-50.23,0c1.89,1.89,3.52,3.93,4.89,6.09,7.35,11.58,7.35,26.48,0,38.05-1.37,2.16-3,4.2-4.88,6.08l-12.56,12.56c1.88-1.88,3.51-3.92,4.88-6.08,8.73-13.73,7.11-32.16-4.88-44.14l12.56-12.56m62.78,62.78c-1.89-1.89-3.93-3.51-6.09-4.89-13.73-8.73-32.15-7.1-44.13,4.89l-12.56-12.56c1.89-1.89,3.94-3.52,6.1-4.89,11.57-7.35,26.46-7.35,38.03,0,2.16,1.37,4.21,3,6.09,4.89l12.56,12.56m75.43-75.34c-1.89,1.89-3.51,3.93-4.89,6.09-8.72,13.73-7.1,32.15,4.89,44.13l-12.56,12.56c-1.89-1.88-3.51-3.93-4.89-6.09-7.35-11.57-7.35-26.47,0-38.04,1.37-2.16,3-4.21,4.89-6.09l12.56-12.56m-12.56,12.56c-1.89,1.89-3.93,3.51-6.09,4.89-11.57,7.35-26.47,7.35-38.04,0-2.16-1.37-4.21-3-6.09-4.89l-12.56-12.56c1.89,1.89,3.93,3.51,6.09,4.89,13.73,8.73,32.15,7.1,44.13-4.89l12.56,12.56m-50.23,0c1.89,1.89,3.52,3.93,4.89,6.09,7.35,11.58,7.35,26.48,0,38.05-1.37,2.16-3,4.2-4.88,6.08l-12.56,12.56c1.88-1.88,3.51-3.92,4.88-6.08,8.73-13.73,7.11-32.16-4.88-44.14l12.56-12.56m62.78,62.78c-1.89-1.89-3.93-3.51-6.09-4.89-13.73-8.73-32.15-7.1-44.13,4.89l-12.56-12.56c1.89-1.89,3.94-3.52,6.1-4.89,11.57-7.35,26.46-7.35,38.03,0,2.16,1.37,4.21,3,6.09,4.89l12.56,12.56m75.43-75.34c-1.89,1.89-3.51,3.93-4.89,6.09-8.72,13.73-7.1,32.15,4.89,44.13l-12.56,12.56c-1.89-1.88-3.51-3.93-4.89-6.09-7.35-11.57-7.35-26.47,0-38.04,1.37-2.16,3-4.21,4.89-6.09l12.56-12.56m-12.56,12.56c-1.89,1.89-3.93,3.51-6.09,4.89-11.57,7.35-26.47,7.35-38.04,0-2.16-1.37-4.21-3-6.09-4.89l-12.56-12.56c1.89,1.89,3.93,3.51,6.09,4.89,13.73,8.73,32.15,7.1,44.13-4.89l12.56,12.56m-50.23,0c1.89,1.89,3.52,3.93,4.89,6.09,7.35,11.58,7.35,26.48,0,38.05-1.37,2.16-3,4.2-4.88,6.08l-12.56,12.56c1.88-1.88,3.51-3.92,4.88-6.08,8.73-13.73,7.11-32.16-4.88-44.14l12.56-12.56m62.78,62.78c-1.89-1.89-3.93-3.51-6.09-4.89-13.73-8.73-32.15-7.1-44.13,4.89l-12.56-12.56c1.89-1.89,3.94-3.52,6.1-4.89,11.57-7.35,26.46-7.35,38.03,0,2.16,1.37,4.21,3,6.09,4.89l12.56,12.56m75.43-75.34c-1.89,1.89-3.51,3.93-4.89,6.09-8.72,13.73-7.1,32.15,4.89,44.13l-12.56,12.56c-1.89-1.88-3.51-3.93-4.89-6.09-7.35-11.57-7.35-26.47,0-38.04,1.37-2.16,3-4.21,4.89-6.09l12.56-12.56m-12.56,12.56c-1.89,1.89-3.93,3.51-6.09,4.89-11.57,7.35-26.47,7.35-38.04,0-2.16-1.37-4.21-3-6.09-4.89l-12.56-12.56c1.89,1.89,3.93,3.51,6.09,4.89,13.73,8.73,32.15,7.1,44.13-4.89l12.56,12.56m-50.23,0c1.89,1.89,3.52,3.93,4.89,6.09,7.35,11.58,7.35,26.48,0,38.05-1.37,2.16-3,4.2-4.88,6.08l-12.56,12.56c1.88-1.88,3.51-3.92,4.88-6.08,8.73-13.73,7.11-32.16-4.88-44.14l12.56-12.56m62.78,62.78c-1.89-1.89-3.93-3.51-6.09-4.89-13.73-8.73-32.15-7.1-44.13,4.89l-12.56-12.56c1.89-1.89,3.94-3.52,6.1-4.89,11.57-7.35,26.46-7.35,38.03,0,2.16,1.37,4.21,3,6.09,4.89l12.56,12.56m75.43-75.34c-1.89,1.89-3.51,3.93-4.89,6.09-8.72,13.73-7.1,32.15,4.89,44.13l-12.56,12.56c-1.89-1.88-3.51-3.93-4.89-6.09-7.35-11.57-7.35-26.47,0-38.04,1.37-2.16,3-4.21,4.89-6.09l12.56-12.56m-12.56,12.56c-1.89,1.89-3.93,3.51-6.09,4.89-11.57,7.35-26.47,7.35-38.04,0-2.16-1.37-4.21-3-6.09-4.89l-12.56-12.56c1.89,1.89,3.93,3.51,6.09,4.89,13.73,8.73,32.15,7.1,44.13-4.89l12.56,12.56m-50.23,0c1.89,1.89,3.52,3.93,4.89,6.09,7.35,11.58,7.35,26.48,0,38.05-1.37,2.16-3,4.2-4.88,6.08l-12.56,12.56c1.88-1.88,3.51-3.92,4.88-6.08,8.73-13.73,7.11-32.16-4.88-44.14l12.56-12.56m62.78,62.78c-1.89-1.89-3.93-3.51-6.09-4.89-13.73-8.73-32.15-7.1-44.13,4.89l-12.56-12.56c1.89-1.89,3.94-3.52,6.1-4.89,11.57-7.35,26.46-7.35,38.03,0,2.16,1.37,4.21,3,6.09,4.89l12.56,12.56m75.43-75.34c-1.89,1.89-3.51,3.93-4.89,6.09-8.72,13.73-7.1,32.15,4.89,44.13l-12.56,12.56c-1.89-1.88-3.51-3.93-4.89-6.09-7.35-11.57-7.35-26.47,0-38.04,1.37-2.16,3-4.21,4.89-6.09l12.56-12.56m-12.56,12.56c-1.89,1.89-3.93,3.51-6.09,4.89-11.57,7.35-26.47,7.35-38.04,0-2.16-1.37-4.21-3-6.09-4.89l-12.56-12.56c1.89,1.89,3.93,3.51,6.09,4.89,13.73,8.73,32.15,7.1,44.13-4.89l12.56,12.56m-50.23,0c1.89,1.89,3.52,3.93,4.89,6.09,7.35,11.58,7.35,26.48,0,38.05-1.37,2.16-3,4.2-4.88,6.08l-12.56,12.56c1.88-1.88,3.51-3.92,4.88-6.08,8.73-13.73,7.11-32.16-4.88-44.14l12.56-12.56m62.78,62.78c-1.89-1.89-3.93-3.51-6.09-4.89-13.73-8.73-32.15-7.1-44.13,4.89l-12.56-12.56c1.89-1.89,3.94-3.52,6.1-4.89,11.57-7.35,26.46-7.35,38.03,0,2.16,1.37,4.21,3,6.09,4.89l12.56,12.56m75.43-75.34c-1.89,1.89-3.51,3.93-4.89,6.09-8.72,13.73-7.1,32.15,4.89,44.13l-12.56,12.56c-1.89-1.88-3.51-3.93-4.89-6.09-7.35-11.57-7.35-26.47,0-38.04,1.37-2.16,3-4.21,4.89-6.09l12.56-12.56m-12.56,12.56c-1.89,1.89-3.93,3.51-6.09,4.89-11.57,7.35-26.47,7.35-38.04,0-2.16-1.37-4.21-3-6.09-4.89l-12.56-12.56c1.89,1.89,3.93,3.51,6.09,4.89,13.73,8.73,32.15,7.1,44.13-4.89l12.56,12.56m-50.23,0c1.89,1.89,3.52,3.93,4.89,6.09,7.35,11.58,7.35,26.48,0,38.05-1.37,2.16-3,4.2-4.88,6.08l-12.56,12.56c1.88-1.88,3.51-3.92,4.88-6.08,8.73-13.73,7.11-32.16-4.88-44.14l12.56-12.56m62.78,62.78c-1.89-1.89-3.93-3.51-6.09-4.89-13.73-8.73-32.15-7.1-44.13,4.89l-12.56-12.56c1.89-1.89,3.94-3.52,6.1-4.89,11.57-7.35,26.46-7.35,38.03,0,2.16,1.37,4.21,3,6.09,4.89l12.56,12.56m75.43-75.34c-1.89,1.89-3.51,3.93-4.89,6.09-8.72,13.73-7.1,32.15,4.89,44.13l-12.56,12.56c-1.89-1.88-3.51-3.93-4.89-6.09-7.35-11.57-7.35-26.47,0-38.04,1.37-2.16,3-4.21,4.89-6.09l12.56-12.56m-12.56,12.56c-1.89,1.89-3.93,3.51-6.09,4.89-11.57,7.35-26.47,7.35-38.04,0-2.16-1.37-4.21-3-6.09-4.89l-12.56-12.56c1.89,1.89,3.93,3.51,6.09,4.89,13.73,8.73,32.15,7.1,44.13-4.89l12.56,12.56m-50.23,0c1.89,1.89,3.52,3.93,4.89,6.09,7.35,11.58,7.35,26.48,0,38.05-1.37,2.16-3,4.2-4.88,6.08l-12.56,12.56c1.88-1.88,3.51-3.92,4.88-6.08,8.73-13.73,7.11-32.16-4.88-44.14l12.56-12.56m62.78,62.78c-1.89-1.89-3.93-3.51-6.09-4.89-13.73-8.73-32.15-7.1-44.13,4.89l-12.56-12.56c1.89-1.89,3.94-3.52,6.1-4.89,11.57-7.35,26.46-7.35,38.03,0,2.16,1.37,4.21,3,6.09,4.89l12.56,12.56m75.43-75.34c-1.89,1.89-3.51,3.93-4.89,6.09-8.72,13.73-7.1,32.15,4.89,44.13l-12.56,12.56c-1.89-1.88-3.51-3.93-4.89-6.09-7.35-11.57-7.35-26.47,0-38.04,1.37-2.16,3-4.21,4.89-6.09l12.56-12.56m-12.56,12.56c-1.89,1.89-3.93,3.51-6.09,4.89-11.57,7.35-26.47,7.35-38.04,0-2.16-1.37-4.21-3-6.09-4.89l-12.56-12.56c1.89,1.89,3.93,3.51,6.09,4.89,13.73,8.73,32.15,7.1,44.13-4.89l12.56,12.56m-50.23,0c1.89,1.89,3.52,3.93,4.89,6.09,7.35,11.58,7.35,26.48,0,38.05-1.37,2.16-3,4.2-4.88,6.08l-12.56,12.56c1.88-1.88,3.51-3.92,4.88-6.08,8.73-13.73,7.11-32.16-4.88-44.14l12.56-12.56m62.78,62.78c-1.89-1.89-3.93-3.51-6.09-4.89-13.73-8.73-32.15-7.1-44.13,4.89l-12.56-12.56c1.89-1.89,3.94-3.52,6.1-4.89,11.57-7.35,26.46-7.35,38.03,0,2.16,1.37,4.21,3,6.09,4.89l12.56,12.56m75.43-75.34c-1.89,1.89-3.51,3.93-4.89,6.09-8.72,13.73-7.1,32.15,4.89,44.13l-12.56,12.56c-1.89-1.88-3.51-3.93-4.89-6.09-7.35-11.57-7.35-26.47,0-38.04,1.37-2.16,3-4.21,4.89-6.09l12.56-12.56m-12.56,12.56c-1.89,1.89-3.93,3.51-6.09,4.89-11.57,7.35-26.47,7.35-38.04,0-2.16-1.37-4.21-3-6.09-4.89l-12.56-12.56c1.89,1.89,3.93,3.51,6.09,4.89,13.73,8.73,32.15,7.1,44.13-4.89l12.56,12.56m-50.23,0c1.89,1.89,3.52,3.93,4.89,6.09,7.35,11.58,7.35,26.48,0,38.05-1.37,2.16-3,4.2-4.88,6.08l-12.56,12.56c1.88-1.88,3.51-3.92,4.88-6.08,8.73-13.73,7.11-32.16-4.88-44.14l12.56-12.56m62.78,62.78c-1.89-1.89-3.93-3.51-6.09-4.89-13.73-8.73-32.15-7.1-44.13,4.89l-12.56-12.56c1.89-1.89,3.94-3.52,6.1-4.89,11.57-7.35,26.46-7.35,38.03,0,2.16,1.37,4.21,3,6.09,4.89l12.56,12.56m75.43-75.34c-1.89,1.89-3.51,3.93-4.89,6.09-8.72,13.73-7.1,32.15,4.89,44.13l-12.56,12.56c-1.89-1.88-3.51-3.93-4.89-6.09-7.35-11.57-7.35-26.47,0-38.04,1.37-2.16,3-4.21,4.89-6.09l12.56-12.56m-12.56,12.56c-1.89,1.89-3.93,3.51-6.09,4.89-11.57,7.35-26.47,7.35-38.04,0-2.16-1.37-4.21-3-6.09-4.89l-12.56-12.56c1.89,1.89,3.93,3.51,6.09,4.89,13.73,8.73,32.15,7.1,44.13-4.89l12.56,12.56m-50.23,0c1.89,1.89,3.52,3.93,4.89,6.09,7.35,11.58,7.35,26.48,0,38.05-1.37,2.16-3,4.2-4.88,6.08l-12.56,12.56c1.88-1.88,3.51-3.92,4.88-6.08,8.73-13.73,7.11-32.16-4.88-44.14l12.56-12.56m62.78,62.78c-1.89-1.89-3.93-3.51-6.09-4.89-13.73-8.73-32.15-7.1-44.13,4.89l-12.56-12.56c1.89-1.89,3.94-3.52,6.1-4.89,11.57-7.35,26.46-7.35,38.03,0,2.16,1.37,4.21,3,6.09,4.89l12.56,12.56m75.43-75.34c-1.89,1.89-3.51,3.93-4.89,6.09-8.72,13.73-7.1,32.15,4.89,44.13l-12.56,12.56c-1.89-1.88-3.51-3.93-4.89-6.09-7.35-11.57-7.35-26.47,0-38.04,1.37-2.16,3-4.21,4.89-6.09l12.56-12.56m-12.56,12.56c-1.89,1.89-3.93,3.51-6.09,4.89-11.57,7.35-26.47,7.35-38.04,0-2.16-1.37-4.21-3-6.09-4.89l-12.56-12.56c1.89,1.89,3.93,3.51,6.09,4.89,13.73,8.73,32.15,7.1,44.13-4.89l12.56,12.56m-50.23,0c1.89,1.89,3.52,3.93,4.89,6.09,7.35,11.58,7.35,26.48,0,38.05-1.37,2.16-3,4.2-4.88,6.08l-12.56,12.56c1.88-1.88,3.51-3.92,4.88-6.08,8.73-13.73,7.11-32.16-4.88-44.14l12.56-12.56m62.78,62.78c-1.89-1.89-3.93-3.51-6.09-4.89-13.73-8.73-32.15-7.1-44.13,4.89l-12.56-12.56c1.89-1.89,3.94-3.52,6.1-4.89,11.57-7.35,26.46-7.35,38.03,0,2.16,1.37,4.21,3,6.09,4.89l12.56,12.56m75.43-75.34c-1.89,1.89-3.51,3.93-4.89,6.09-8.72,13.73-7.1,32.15,4.89,44.13l-12.56,12.56c-1.89-1.88-3.51-3.93-4.89-6.09-7.35-11.57-7.35-26.47,0-38.04,1.37-2.16,3-4.21,4.89-6.09l12.56-12.56m-12.56,12.56c-1.89,1.89-3.93,3.51-6.09,4.89-11.57,7.35-26.47,7.35-38.04,0-2.16-1.37-4.21-3-6.09-4.89l-12.56-12.56c1.89,1.89,3.93,3.51,6.09,4.89,13.73,8.73,32.15,7.1,44.13-4.89l12.56,12.56m-50.23,0c1.89,1.89,3.52,3.93,4.89,6.09,7.35,11.58,7.35,26.48,0,38.05-1.37,2.16-3,4.2-4.88,6.08l-12.56,12.56c1.88-1.88,3.51-3.92,4.88-6.08,8.73-13.73,7.11-32.16-4.88-44.14l12.56-12.56m62.78,62.78c-1.89-1.89-3.93-3.51-6.09-4.89-13.73-8.73-32.15-7.1-44.13,4.89l-12.56-12.56c1.89-1.89,3.94-3.52,6.1-4.89,11.57-7.35,26.46-7.35,38.03,0,2.16,1.37,4.21,3,6.09,4.89l12.56,12.56m75.43-75.34c-1.89,1.89-3.51,3.93-4.89,6.09-8.72,13.73-7.1,32.15,4.89,44.13l-12.56,12.56c-1.89-1.88-3.51-3.93-4.89-6.09-7.35-11.57-7.35-26.47,0-38.04,1.37-2.16,3-4.21,4.89-6.09l12.56-12.56m-12.56,12.56c-1.89,1.89-3.93,3.51-6.09,4.89-11.57,7.35-26.47,7.35-38.04,0-2.16-1.37-4.21-3-6.09-4.89l-12.56-12.56c1.89,1.89,3.93,3.51,6.09,4.89,13.73,8.73,32.15,7.1,44.13-4.89l12.56,12.56m-50.23,0c1.89,1.89,3.52,3.93,4.89,6.09,7.35,11.58,7.35,26.48,0,38.05-1.37,2.16-3,4.2-4.88,6.08l-12.56,12.56c1.88-1.88,3.51-3.92,4.88-6.08,8.73-13.73,7.11-32.16-4.88-44.14l12.56-12.56m62.78,62.78c-1.89-1.89-3.93-3.51-6.09-4.89-13.73-8.73-32.15-7.1-44.13,4.89l-12.56-12.56c1.89-1.89,3.94-3.52,6.1-4.89,11.57-7.35,26.46-7.35,38.03,0,2.16,1.37,4.21,3,6.09,4.89l12.56,12.56m75.43-75.34c-1.89,1.89-3.51,3.93-4.89,6.09-8.72,13.73-7.1,32.15,4.89,44.13l-12.56,12.56c-1.89-1.88-3.51-3.93-4.89-6.09-7.35-11.57-7.35-26.47,0-38.04,1.37-2.16,3-4.21,4.89-6.09l12.56-12.56m-12.56,12.56c-1.89,1.89-3.93,3.51-6.09,4.89-11.57,7.35-26.47,7.35-38.04,0-2.16-1.37-4.21-3-6.09-4.89l-12.56-12.56c1.89,1.89,3.93,3.51,6.09,4.89,13.73,8.73,32.15,7.1,44.13-4.89l12.56,12.56m-50.23,0c1.89,1.89,3.52,3.93,4.89,6.09,7.35,11.58,7.35,26.48,0,38.05-1.37,2.16-3,4.2-4.88,6.08l-12.56,12.56c1.88-1.88,3.51-3.92,4.88-6.08,8.73-13.73,7.11-32.16-4.88-44.14l12.56-12.56m62.78,62.78c-1.89-1.89-3.93-3.51-6.09-4.89-13.73-8.73-32.15-7.1-44.13,4.89l-12.56-12.56c1.89-1.89,3.94-3.52,6.1-4.89,11.57-7.35,26.46-7.35,38.03,0,2.16,1.37,4.21,3,6.09,4.89l12.56,12.56m75.43-75.34c-1.89,1.89-3.51,3.93-4.89,6.09-8.72,13.73-7.1,32.15,4.89,44.13l-12.56,12.56c-1.89-1.88-3.51-3.93-4.89-6.09-7.35-11.57-7.35-26.47,0-38.04,1.37-2.16,3-4.21,4.89-6.09l12.56-12.56m-12.56,12.56c-1.89,1.89-3.93,3.51-6.09,4.89-11.57,7.35-26.47,7.35-38.04,0-2.16-1.37-4.21-3-6.09-4.89l-12.56-12.56c1.89,1.89,3.93,3.51,6.09,4.89,13.73,8.73,32.15,7.1,44.13-4.89l12.56,12.56m-50.23,0c1.89,1.89,3.52,3.93,4.89,6.09,7.35,11.58,7.35,26.48,0,38.05-1.37,2.16-3,4.2-4.88,6.08l-12.56,12.56c1.88-1.88,3.51-3.92,4.88-6.08,8.73-13.73,7.11-32.16-4.88-44.14l12.56-12.56m62.78,62.78c-1.89-1.89-3.93-3.51-6.09-4.89-13.73-8.73-32.15-7.1-44.13,4.89l-12.56-12.56c1.89-1.89,3.94-3.52,6.1-4.89,11.57-7.35,26.46-7.35,38.03,0,2.16,1.37,4.21,3,6.09,4.89l12.56,12.56M76.05,76.12c-1.89,1.89-3.51,3.93-4.89,6.09-8.72,13.73-7.1,32.15,4.89,44.13l-12.56,12.56c-1.89-1.88-3.51-3.93-4.89-6.09-7.35-11.57-7.35-26.47,0-38.04,1.37-2.16,3-4.21,4.89-6.09l12.56-12.56m-12.56,12.56c-1.89,1.89-3.93,3.51-6.09,4.89-11.57,7.35-26.47,7.35-38.04,0-2.16-1.37-4.21-3-6.09-4.89L.71,76.12c1.89,1.89,3.93,3.51,6.09,4.89,13.73,8.73,32.15,7.1,44.13-4.89l12.56,12.56m-50.23,0c1.89,1.89,3.52,3.93,4.89,6.09,7.35,11.58,7.35,26.48,0,38.05-1.37,2.16-3,4.2-4.88,6.08L.71,151.46c1.88-1.88,3.51-3.92,4.88-6.08,8.73-13.73,7.11-32.16-4.88-44.14l12.56-12.56m62.78,62.78c-1.89-1.89-3.93-3.51-6.09-4.89-13.73-8.73-32.15-7.1-44.13,4.89l-12.56-12.56c1.89-1.89,3.94-3.52,6.1-4.89,11.57-7.35,26.46-7.35,38.03,0,2.16,1.37,4.21,3,6.09,4.89l12.56,12.56m75.43-75.34c-1.89,1.89-3.51,3.93-4.89,6.09-8.72,13.73-7.1,32.15,4.89,44.13l-12.56,12.56c-1.89-1.88-3.51-3.93-4.89-6.09-7.35-11.57-7.35-26.47,0-38.04,1.37-2.16,3-4.21,4.89-6.09l12.56-12.56m-12.56,12.56c-1.89,1.89-3.93,3.51-6.09,4.89-11.57,7.35-26.47,7.35-38.04,0-2.16-1.37-4.21-3-6.09-4.89l-12.56-12.56c1.89,1.89,3.93,3.51,6.09,4.89,13.73,8.73,32.15,7.1,44.13-4.89l12.56,12.56m-50.23,0c1.89,1.89,3.52,3.93,4.89,6.09,7.35,11.58,7.35,26.48,0,38.05-1.37,2.16-3,4.2-4.88,6.08l-12.56,12.56c1.88-1.88,3.51-3.92,4.88-6.08,8.73-13.73,7.11-32.16-4.88-44.14l12.56-12.56m62.78,62.78c-1.89-1.89-3.93-3.51-6.09-4.89-13.73-8.73-32.15-7.1-44.13,4.89l-12.56-12.56c1.89-1.89,3.94-3.52,6.1-4.89,11.57-7.35,26.46-7.35,38.03,0,2.16,1.37,4.21,3,6.09,4.89l12.56,12.56m75.43-75.34c-1.89,1.89-3.51,3.93-4.89,6.09-8.72,13.73-7.1,32.15,4.89,44.13l-12.56,12.56c-1.89-1.88-3.51-3.93-4.89-6.09-7.35-11.57-7.35-26.47,0-38.04,1.37-2.16,3-4.21,4.89-6.09l12.56-12.56m-12.56,12.56c-1.89,1.89-3.93,3.51-6.09,4.89-11.57,7.35-26.47,7.35-38.04,0-2.16-1.37-4.21-3-6.09-4.89l-12.56-12.56c1.89,1.89,3.93,3.51,6.09,4.89,13.73,8.73,32.15,7.1,44.13-4.89l12.56,12.56m-50.23,0c1.89,1.89,3.52,3.93,4.89,6.09,7.35,11.58,7.35,26.48,0,38.05-1.37,2.16-3,4.2-4.88,6.08l-12.56,12.56c1.88-1.88,3.51-3.92,4.88-6.08,8.73-13.73,7.11-32.16-4.88-44.14l12.56-12.56m62.78,62.78c-1.89-1.89-3.93-3.51-6.09-4.89-13.73-8.73-32.15-7.1-44.13,4.89l-12.56-12.56c1.89-1.89,3.94-3.52,6.1-4.89,11.57-7.35,26.46-7.35,38.03,0,2.16,1.37,4.21,3,6.09,4.89l12.56,12.56m75.43-75.34c-1.89,1.89-3.51,3.93-4.89,6.09-8.72,13.73-7.1,32.15,4.89,44.13l-12.56,12.56c-1.89-1.88-3.51-3.93-4.89-6.09-7.35-11.57-7.35-26.47,0-38.04,1.37-2.16,3-4.21,4.89-6.09l12.56-12.56m-12.56,12.56c-1.89,1.89-3.93,3.51-6.09,4.89-11.57,7.35-26.47,7.35-38.04,0-2.16-1.37-4.21-3-6.09-4.89l-12.56-12.56c1.89,1.89,3.93,3.51,6.09,4.89,13.73,8.73,32.15,7.1,44.13-4.89l12.56,12.56m-50.23,0c1.89,1.89,3.52,3.93,4.89,6.09,7.35,11.58,7.35,26.48,0,38.05-1.37,2.16-3,4.2-4.88,6.08l-12.56,12.56c1.88-1.88,3.51-3.92,4.88-6.08,8.73-13.73,7.11-32.16-4.88-44.14l12.56-12.56m62.78,62.78c-1.89-1.89-3.93-3.51-6.09-4.89-13.73-8.73-32.15-7.1-44.13,4.89l-12.56-12.56c1.89-1.89,3.94-3.52,6.1-4.89,11.57-7.35,26.46-7.35,38.03,0,2.16,1.37,4.21,3,6.09,4.89l12.56,12.56m75.43-75.34c-1.89,1.89-3.51,3.93-4.89,6.09-8.72,13.73-7.1,32.15,4.89,44.13l-12.56,12.56c-1.89-1.88-3.51-3.93-4.89-6.09-7.35-11.57-7.35-26.47,0-38.04,1.37-2.16,3-4.21,4.89-6.09l12.56-12.56m-12.56,12.56c-1.89,1.89-3.93,3.51-6.09,4.89-11.57,7.35-26.47,7.35-38.04,0-2.16-1.37-4.21-3-6.09-4.89l-12.56-12.56c1.89,1.89,3.93,3.51,6.09,4.89,13.73,8.73,32.15,7.1,44.13-4.89l12.56,12.56m-50.23,0c1.89,1.89,3.52,3.93,4.89,6.09,7.35,11.58,7.35,26.48,0,38.05-1.37,2.16-3,4.2-4.88,6.08l-12.56,12.56c1.88-1.88,3.51-3.92,4.88-6.08,8.73-13.73,7.11-32.16-4.88-44.14l12.56-12.56m62.78,62.78c-1.89-1.89-3.93-3.51-6.09-4.89-13.73-8.73-32.15-7.1-44.13,4.89l-12.56-12.56c1.89-1.89,3.94-3.52,6.1-4.89,11.57-7.35,26.46-7.35,38.03,0,2.16,1.37,4.21,3,6.09,4.89l12.56,12.56m75.43-75.34c-1.89,1.89-3.51,3.93-4.89,6.09-8.72,13.73-7.1,32.15,4.89,44.13l-12.56,12.56c-1.89-1.88-3.51-3.93-4.89-6.09-7.35-11.57-7.35-26.47,0-38.04,1.37-2.16,3-4.21,4.89-6.09l12.56-12.56m-12.56,12.56c-1.89,1.89-3.93,3.51-6.09,4.89-11.57,7.35-26.47,7.35-38.04,0-2.16-1.37-4.21-3-6.09-4.89l-12.56-12.56c1.89,1.89,3.93,3.51,6.09,4.89,13.73,8.73,32.15,7.1,44.13-4.89l12.56,12.56m-50.23,0c1.89,1.89,3.52,3.93,4.89,6.09,7.35,11.58,7.35,26.48,0,38.05-1.37,2.16-3,4.2-4.88,6.08l-12.56,12.56c1.88-1.88,3.51-3.92,4.88-6.08,8.73-13.73,7.11-32.16-4.88-44.14l12.56-12.56m62.78,62.78c-1.89-1.89-3.93-3.51-6.09-4.89-13.73-8.73-32.15-7.1-44.13,4.89l-12.56-12.56c1.89-1.89,3.94-3.52,6.1-4.89,11.57-7.35,26.46-7.35,38.03,0,2.16,1.37,4.21,3,6.09,4.89l12.56,12.56m75.43-75.34c-1.89,1.89-3.51,3.93-4.89,6.09-8.72,13.73-7.1,32.15,4.89,44.13l-12.56,12.56c-1.89-1.88-3.51-3.93-4.89-6.09-7.35-11.57-7.35-26.47,0-38.04,1.37-2.16,3-4.21,4.89-6.09l12.56-12.56m-12.56,12.56c-1.89,1.89-3.93,3.51-6.09,4.89-11.57,7.35-26.47,7.35-38.04,0-2.16-1.37-4.21-3-6.09-4.89l-12.56-12.56c1.89,1.89,3.93,3.51,6.09,4.89,13.73,8.73,32.15,7.1,44.13-4.89l12.56,12.56m-50.23,0c1.89,1.89,3.52,3.93,4.89,6.09,7.35,11.58,7.35,26.48,0,38.05-1.37,2.16-3,4.2-4.88,6.08l-12.56,12.56c1.88-1.88,3.51-3.92,4.88-6.08,8.73-13.73,7.11-32.16-4.88-44.14l12.56-12.56m62.78,62.78c-1.89-1.89-3.93-3.51-6.09-4.89-13.73-8.73-32.15-7.1-44.13,4.89l-12.56-12.56c1.89-1.89,3.94-3.52,6.1-4.89,11.57-7.35,26.46-7.35,38.03,0,2.16,1.37,4.21,3,6.09,4.89l12.56,12.56m75.43-75.34c-1.89,1.89-3.51,3.93-4.89,6.09-8.72,13.73-7.1,32.15,4.89,44.13l-12.56,12.56c-1.89-1.88-3.51-3.93-4.89-6.09-7.35-11.57-7.35-26.47,0-38.04,1.37-2.16,3-4.21,4.89-6.09l12.56-12.56m-12.56,12.56c-1.89,1.89-3.93,3.51-6.09,4.89-11.57,7.35-26.47,7.35-38.04,0-2.16-1.37-4.21-3-6.09-4.89l-12.56-12.56c1.89,1.89,3.93,3.51,6.09,4.89,13.73,8.73,32.15,7.1,44.13-4.89l12.56,12.56m-50.23,0c1.89,1.89,3.52,3.93,4.89,6.09,7.35,11.58,7.35,26.48,0,38.05-1.37,2.16-3,4.2-4.88,6.08l-12.56,12.56c1.88-1.88,3.51-3.92,4.88-6.08,8.73-13.73,7.11-32.16-4.88-44.14l12.56-12.56m62.78,62.78c-1.89-1.89-3.93-3.51-6.09-4.89-13.73-8.73-32.15-7.1-44.13,4.89l-12.56-12.56c1.89-1.89,3.94-3.52,6.1-4.89,11.57-7.35,26.46-7.35,38.03,0,2.16,1.37,4.21,3,6.09,4.89l12.56,12.56m75.43-75.34c-1.89,1.89-3.51,3.93-4.89,6.09-8.72,13.73-7.1,32.15,4.89,44.13l-12.56,12.56c-1.89-1.88-3.51-3.93-4.89-6.09-7.35-11.57-7.35-26.47,0-38.04,1.37-2.16,3-4.21,4.89-6.09l12.56-12.56m-12.56,12.56c-1.89,1.89-3.93,3.51-6.09,4.89-11.57,7.35-26.47,7.35-38.04,0-2.16-1.37-4.21-3-6.09-4.89l-12.56-12.56c1.89,1.89,3.93,3.51,6.09,4.89,13.73,8.73,32.15,7.1,44.13-4.89l12.56,12.56m-50.23,0c1.89,1.89,3.52,3.93,4.89,6.09,7.35,11.58,7.35,26.48,0,38.05-1.37,2.16-3,4.2-4.88,6.08l-12.56,12.56c1.88-1.88,3.51-3.92,4.88-6.08,8.73-13.73,7.11-32.16-4.88-44.14l12.56-12.56m62.78,62.78c-1.89-1.89-3.93-3.51-6.09-4.89-13.73-8.73-32.15-7.1-44.13,4.89l-12.56-12.56c1.89-1.89,3.94-3.52,6.1-4.89,11.57-7.35,26.46-7.35,38.03,0,2.16,1.37,4.21,3,6.09,4.89l12.56,12.56m75.43-75.34c-1.89,1.89-3.51,3.93-4.89,6.09-8.72,13.73-7.1,32.15,4.89,44.13l-12.56,12.56c-1.89-1.88-3.51-3.93-4.89-6.09-7.35-11.57-7.35-26.47,0-38.04,1.37-2.16,3-4.21,4.89-6.09l12.56-12.56m-12.56,12.56c-1.89,1.89-3.93,3.51-6.09,4.89-11.57,7.35-26.47,7.35-38.04,0-2.16-1.37-4.21-3-6.09-4.89l-12.56-12.56c1.89,1.89,3.93,3.51,6.09,4.89,13.73,8.73,32.15,7.1,44.13-4.89l12.56,12.56m-50.23,0c1.89,1.89,3.52,3.93,4.89,6.09,7.35,11.58,7.35,26.48,0,38.05-1.37,2.16-3,4.2-4.88,6.08l-12.56,12.56c1.88-1.88,3.51-3.92,4.88-6.08,8.73-13.73,7.11-32.16-4.88-44.14l12.56-12.56m62.78,62.78c-1.89-1.89-3.93-3.51-6.09-4.89-13.73-8.73-32.15-7.1-44.13,4.89l-12.56-12.56c1.89-1.89,3.94-3.52,6.1-4.89,11.57-7.35,26.46-7.35,38.03,0,2.16,1.37,4.21,3,6.09,4.89l12.56,12.56m75.43-75.34c-1.89,1.89-3.51,3.93-4.89,6.09-8.72,13.73-7.1,32.15,4.89,44.13l-12.56,12.56c-1.89-1.88-3.51-3.93-4.89-6.09-7.35-11.57-7.35-26.47,0-38.04,1.37-2.16,3-4.21,4.89-6.09l12.56-12.56m-12.56,12.56c-1.89,1.89-3.93,3.51-6.09,4.89-11.57,7.35-26.47,7.35-38.04,0-2.16-1.37-4.21-3-6.09-4.89l-12.56-12.56c1.89,1.89,3.93,3.51,6.09,4.89,13.73,8.73,32.15,7.1,44.13-4.89l12.56,12.56m-50.23,0c1.89,1.89,3.52,3.93,4.89,6.09,7.35,11.58,7.35,26.48,0,38.05-1.37,2.16-3,4.2-4.88,6.08l-12.56,12.56c1.88-1.88,3.51-3.92,4.88-6.08,8.73-13.73,7.11-32.16-4.88-44.14l12.56-12.56m62.78,62.78c-1.89-1.89-3.93-3.51-6.09-4.89-13.73-8.73-32.15-7.1-44.13,4.89l-12.56-12.56c1.89-1.89,3.94-3.52,6.1-4.89,11.57-7.35,26.46-7.35,38.03,0,2.16,1.37,4.21,3,6.09,4.89l12.56,12.56m75.43-75.34c-1.89,1.89-3.51,3.93-4.89,6.09-8.72,13.73-7.1,32.15,4.89,44.13l-12.56,12.56c-1.89-1.88-3.51-3.93-4.89-6.09-7.35-11.57-7.35-26.47,0-38.04,1.37-2.16,3-4.21,4.89-6.09l12.56-12.56m-12.56,12.56c-1.89,1.89-3.93,3.51-6.09,4.89-11.57,7.35-26.47,7.35-38.04,0-2.16-1.37-4.21-3-6.09-4.89l-12.56-12.56c1.89,1.89,3.93,3.51,6.09,4.89,13.73,8.73,32.15,7.1,44.13-4.89l12.56,12.56m-50.23,0c1.89,1.89,3.52,3.93,4.89,6.09,7.35,11.58,7.35,26.48,0,38.05-1.37,2.16-3,4.2-4.88,6.08l-12.56,12.56c1.88-1.88,3.51-3.92,4.88-6.08,8.73-13.73,7.11-32.16-4.88-44.14l12.56-12.56m62.78,62.78c-1.89-1.89-3.93-3.51-6.09-4.89-13.73-8.73-32.15-7.1-44.13,4.89l-12.56-12.56c1.89-1.89,3.94-3.52,6.1-4.89,11.57-7.35,26.46-7.35,38.03,0,2.16,1.37,4.21,3,6.09,4.89l12.56,12.56m75.43-75.34c-1.89,1.89-3.51,3.93-4.89,6.09-8.72,13.73-7.1,32.15,4.89,44.13l-12.56,12.56c-1.89-1.88-3.51-3.93-4.89-6.09-7.35-11.57-7.35-26.47,0-38.04,1.37-2.16,3-4.21,4.89-6.09l12.56-12.56m-12.56,12.56c-1.89,1.89-3.93,3.51-6.09,4.89-11.57,7.35-26.47,7.35-38.04,0-2.16-1.37-4.21-3-6.09-4.89l-12.56-12.56c1.89,1.89,3.93,3.51,6.09,4.89,13.73,8.73,32.15,7.1,44.13-4.89l12.56,12.56m-50.23,0c1.89,1.89,3.52,3.93,4.89,6.09,7.35,11.58,7.35,26.48,0,38.05-1.37,2.16-3,4.2-4.88,6.08l-12.56,12.56c1.88-1.88,3.51-3.92,4.88-6.08,8.73-13.73,7.11-32.16-4.88-44.14l12.56-12.56m62.78,62.78c-1.89-1.89-3.93-3.51-6.09-4.89-13.73-8.73-32.15-7.1-44.13,4.89l-12.56-12.56c1.89-1.89,3.94-3.52,6.1-4.89,11.57-7.35,26.46-7.35,38.03,0,2.16,1.37,4.21,3,6.09,4.89l12.56,12.56m75.43-75.34c-1.89,1.89-3.51,3.93-4.89,6.09-8.72,13.73-7.1,32.15,4.89,44.13l-12.56,12.56c-1.89-1.88-3.51-3.93-4.89-6.09-7.35-11.57-7.35-26.47,0-38.04,1.37-2.16,3-4.21,4.89-6.09l12.56-12.56m-12.56,12.56c-1.89,1.89-3.93,3.51-6.09,4.89-11.57,7.35-26.47,7.35-38.04,0-2.16-1.37-4.21-3-6.09-4.89l-12.56-12.56c1.89,1.89,3.93,3.51,6.09,4.89,13.73,8.73,32.15,7.1,44.13-4.89l12.56,12.56m-50.23,0c1.89,1.89,3.52,3.93,4.89,6.09,7.35,11.58,7.35,26.48,0,38.05-1.37,2.16-3,4.2-4.88,6.08l-12.56,12.56c1.88-1.88,3.51-3.92,4.88-6.08,8.73-13.73,7.11-32.16-4.88-44.14l12.56-12.56m62.78,62.78c-1.89-1.89-3.93-3.51-6.09-4.89-13.73-8.73-32.15-7.1-44.13,4.89l-12.56-12.56c1.89-1.89,3.94-3.52,6.1-4.89,11.57-7.35,26.46-7.35,38.03,0,2.16,1.37,4.21,3,6.09,4.89l12.56,12.56m75.43-75.34c-1.89,1.89-3.51,3.93-4.89,6.09-8.72,13.73-7.1,32.15,4.89,44.13l-12.56,12.56c-1.89-1.88-3.51-3.93-4.89-6.09-7.35-11.57-7.35-26.47,0-38.04,1.37-2.16,3-4.21,4.89-6.09l12.56-12.56m-12.56,12.56c-1.89,1.89-3.93,3.51-6.09,4.89-11.57,7.35-26.47,7.35-38.04,0-2.16-1.37-4.21-3-6.09-4.89l-12.56-12.56c1.89,1.89,3.93,3.51,6.09,4.89,13.73,8.73,32.15,7.1,44.13-4.89l12.56,12.56m-50.23,0c1.89,1.89,3.52,3.93,4.89,6.09,7.35,11.58,7.35,26.48,0,38.05-1.37,2.16-3,4.2-4.88,6.08l-12.56,12.56c1.88-1.88,3.51-3.92,4.88-6.08,8.73-13.73,7.11-32.16-4.88-44.14l12.56-12.56m62.78,62.78c-1.89-1.89-3.93-3.51-6.09-4.89-13.73-8.73-32.15-7.1-44.13,4.89l-12.56-12.56c1.89-1.89,3.94-3.52,6.1-4.89,11.57-7.35,26.46-7.35,38.03,0,2.16,1.37,4.21,3,6.09,4.89l12.56,12.56m75.43-75.34c-1.89,1.89-3.51,3.93-4.89,6.09-8.72,13.73-7.1,32.15,4.89,44.13l-12.56,12.56c-1.89-1.88-3.51-3.93-4.89-6.09-7.35-11.57-7.35-26.47,0-38.04,1.37-2.16,3-4.21,4.89-6.09l12.56-12.56m-12.56,12.56c-1.89,1.89-3.93,3.51-6.09,4.89-11.57,7.35-26.47,7.35-38.04,0-2.16-1.37-4.21-3-6.09-4.89l-12.56-12.56c1.89,1.89,3.93,3.51,6.09,4.89,13.73,8.73,32.15,7.1,44.13-4.89l12.56,12.56m-50.23,0c1.89,1.89,3.52,3.93,4.89,6.09,7.35,11.58,7.35,26.48,0,38.05-1.37,2.16-3,4.2-4.88,6.08l-12.56,12.56c1.88-1.88,3.51-3.92,4.88-6.08,8.73-13.73,7.11-32.16-4.88-44.14l12.56-12.56m62.78,62.78c-1.89-1.89-3.93-3.51-6.09-4.89-13.73-8.73-32.15-7.1-44.13,4.89l-12.56-12.56c1.89-1.89,3.94-3.52,6.1-4.89,11.57-7.35,26.46-7.35,38.03,0,2.16,1.37,4.21,3,6.09,4.89l12.56,12.56m75.43-75.34c-1.89,1.89-3.51,3.93-4.89,6.09-8.72,13.73-7.1,32.15,4.89,44.13l-12.56,12.56c-1.89-1.88-3.51-3.93-4.89-6.09-7.35-11.57-7.35-26.47,0-38.04,1.37-2.16,3-4.21,4.89-6.09l12.56-12.56m-12.56,12.56c-1.89,1.89-3.93,3.51-6.09,4.89-11.57,7.35-26.47,7.35-38.04,0-2.16-1.37-4.21-3-6.09-4.89l-12.56-12.56c1.89,1.89,3.93,3.51,6.09,4.89,13.73,8.73,32.15,7.1,44.13-4.89l12.56,12.56m-50.23,0c1.89,1.89,3.52,3.93,4.89,6.09,7.35,11.58,7.35,26.48,0,38.05-1.37,2.16-3,4.2-4.88,6.08l-12.56,12.56c1.88-1.88,3.51-3.92,4.88-6.08,8.73-13.73,7.11-32.16-4.88-44.14l12.56-12.56m62.78,62.78c-1.89-1.89-3.93-3.51-6.09-4.89-13.73-8.73-32.15-7.1-44.13,4.89l-12.56-12.56c1.89-1.89,3.94-3.52,6.1-4.89,11.57-7.35,26.46-7.35,38.03,0,2.16,1.37,4.21,3,6.09,4.89l12.56,12.56m75.43-75.34c-1.89,1.89-3.51,3.93-4.89,6.09-8.72,13.73-7.1,32.15,4.89,44.13l-12.56,12.56c-1.89-1.88-3.51-3.93-4.89-6.09-7.35-11.57-7.35-26.47,0-38.04,1.37-2.16,3-4.21,4.89-6.09l12.56-12.56m-12.56,12.56c-1.89,1.89-3.93,3.51-6.09,4.89-11.57,7.35-26.47,7.35-38.04,0-2.16-1.37-4.21-3-6.09-4.89l-12.56-12.56c1.89,1.89,3.93,3.51,6.09,4.89,13.73,8.73,32.15,7.1,44.13-4.89l12.56,12.56m-50.23,0c1.89,1.89,3.52,3.93,4.89,6.09,7.35,11.58,7.35,26.48,0,38.05-1.37,2.16-3,4.2-4.88,6.08l-12.56,12.56c1.88-1.88,3.51-3.92,4.88-6.08,8.73-13.73,7.11-32.16-4.88-44.14l12.56-12.56m62.78,62.78c-1.89-1.89-3.93-3.51-6.09-4.89-13.73-8.73-32.15-7.1-44.13,4.89l-12.56-12.56c1.89-1.89,3.94-3.52,6.1-4.89,11.57-7.35,26.46-7.35,38.03,0,2.16,1.37,4.21,3,6.09,4.89l12.56,12.56m75.43-75.34c-1.89,1.89-3.51,3.93-4.89,6.09-8.72,13.73-7.1,32.15,4.89,44.13l-12.56,12.56c-1.89-1.88-3.51-3.93-4.89-6.09-7.35-11.57-7.35-26.47,0-38.04,1.37-2.16,3-4.21,4.89-6.09l12.56-12.56m-12.56,12.56c-1.89,1.89-3.93,3.51-6.09,4.89-11.57,7.35-26.47,7.35-38.04,0-2.16-1.37-4.21-3-6.09-4.89l-12.56-12.56c1.89,1.89,3.93,3.51,6.09,4.89,13.73,8.73,32.15,7.1,44.13-4.89l12.56,12.56m-50.23,0c1.89,1.89,3.52,3.93,4.89,6.09,7.35,11.58,7.35,26.48,0,38.05-1.37,2.16-3,4.2-4.88,6.08l-12.56,12.56c1.88-1.88,3.51-3.92,4.88-6.08,8.73-13.73,7.11-32.16-4.88-44.14l12.56-12.56m62.78,62.78c-1.89-1.89-3.93-3.51-6.09-4.89-13.73-8.73-32.15-7.1-44.13,4.89l-12.56-12.56c1.89-1.89,3.94-3.52,6.1-4.89,11.57-7.35,26.46-7.35,38.03,0,2.16,1.37,4.21,3,6.09,4.89l12.56,12.56m75.43-75.34c-1.89,1.89-3.51,3.93-4.89,6.09-8.72,13.73-7.1,32.15,4.89,44.13l-12.56,12.56c-1.89-1.88-3.51-3.93-4.89-6.09-7.35-11.57-7.35-26.47,0-38.04,1.37-2.16,3-4.21,4.89-6.09l12.56-12.56m-12.56,12.56c-1.89,1.89-3.93,3.51-6.09,4.89-11.57,7.35-26.47,7.35-38.04,0-2.16-1.37-4.21-3-6.09-4.89l-12.56-12.56c1.89,1.89,3.93,3.51,6.09,4.89,13.73,8.73,32.15,7.1,44.13-4.89l12.56,12.56m-50.23,0c1.89,1.89,3.52,3.93,4.89,6.09,7.35,11.58,7.35,26.48,0,38.05-1.37,2.16-3,4.2-4.88,6.08l-12.56,12.56c1.88-1.88,3.51-3.92,4.88-6.08,8.73-13.73,7.11-32.16-4.88-44.14l12.56-12.56m62.78,62.78c-1.89-1.89-3.93-3.51-6.09-4.89-13.73-8.73-32.15-7.1-44.13,4.89l-12.56-12.56c1.89-1.89,3.94-3.52,6.1-4.89,11.57-7.35,26.46-7.35,38.03,0,2.16,1.37,4.21,3,6.09,4.89l12.56,12.56m75.43-75.34c-1.89,1.89-3.51,3.93-4.89,6.09-8.72,13.73-7.1,32.15,4.89,44.13l-12.56,12.56c-1.89-1.88-3.51-3.93-4.89-6.09-7.35-11.57-7.35-26.47,0-38.04,1.37-2.16,3-4.21,4.89-6.09l12.56-12.56m-12.56,12.56c-1.89,1.89-3.93,3.51-6.09,4.89-11.57,7.35-26.47,7.35-38.04,0-2.16-1.37-4.21-3-6.09-4.89l-12.56-12.56c1.89,1.89,3.93,3.51,6.09,4.89,13.73,8.73,32.15,7.1,44.13-4.89l12.56,12.56m-50.23,0c1.89,1.89,3.52,3.93,4.89,6.09,7.35,11.58,7.35,26.48,0,38.05-1.37,2.16-3,4.2-4.88,6.08l-12.56,12.56c1.88-1.88,3.51-3.92,4.88-6.08,8.73-13.73,7.11-32.16-4.88-44.14l12.56-12.56m62.78,62.78c-1.89-1.89-3.93-3.51-6.09-4.89-13.73-8.73-32.15-7.1-44.13,4.89l-12.56-12.56c1.89-1.89,3.94-3.52,6.1-4.89,11.57-7.35,26.46-7.35,38.03,0,2.16,1.37,4.21,3,6.09,4.89l12.56,12.56m75.43-75.34c-1.89,1.89-3.51,3.93-4.89,6.09-8.72,13.73-7.1,32.15,4.89,44.13l-12.56,12.56c-1.89-1.88-3.51-3.93-4.89-6.09-7.35-11.57-7.35-26.47,0-38.04,1.37-2.16,3-4.21,4.89-6.09l12.56-12.56m-12.56,12.56c-1.89,1.89-3.93,3.51-6.09,4.89-11.57,7.35-26.47,7.35-38.04,0-2.16-1.37-4.21-3-6.09-4.89l-12.56-12.56c1.89,1.89,3.93,3.51,6.09,4.89,13.73,8.73,32.15,7.1,44.13-4.89l12.56,12.56m-50.23,0c1.89,1.89,3.52,3.93,4.89,6.09,7.35,11.58,7.35,26.48,0,38.05-1.37,2.16-3,4.2-4.88,6.08l-12.56,12.56c1.88-1.88,3.51-3.92,4.88-6.08,8.73-13.73,7.11-32.16-4.88-44.14l12.56-12.56m62.78,62.78c-1.89-1.89-3.93-3.51-6.09-4.89-13.73-8.73-32.15-7.1-44.13,4.89l-12.56-12.56c1.89-1.89,3.94-3.52,6.1-4.89,11.57-7.35,26.46-7.35,38.03,0,2.16,1.37,4.21,3,6.09,4.89l12.56,12.56m75.43-75.34c-1.89,1.89-3.51,3.93-4.89,6.09-8.72,13.73-7.1,32.15,4.89,44.13l-12.56,12.56c-1.89-1.88-3.51-3.93-4.89-6.09-7.35-11.57-7.35-26.47,0-38.04,1.37-2.16,3-4.21,4.89-6.09l12.56-12.56m-12.56,12.56c-1.89,1.89-3.93,3.51-6.09,4.89-11.57,7.35-26.47,7.35-38.04,0-2.16-1.37-4.21-3-6.09-4.89l-12.56-12.56c1.89,1.89,3.93,3.51,6.09,4.89,13.73,8.73,32.15,7.1,44.13-4.89l12.56,12.56m-50.23,0c1.89,1.89,3.52,3.93,4.89,6.09,7.35,11.58,7.35,26.48,0,38.05-1.37,2.16-3,4.2-4.88,6.08l-12.56,12.56c1.88-1.88,3.51-3.92,4.88-6.08,8.73-13.73,7.11-32.16-4.88-44.14l12.56-12.56m62.78,62.78c-1.89-1.89-3.93-3.51-6.09-4.89-13.73-8.73-32.15-7.1-44.13,4.89l-12.56-12.56c1.89-1.89,3.94-3.52,6.1-4.89,11.57-7.35,26.46-7.35,38.03,0,2.16,1.37,4.21,3,6.09,4.89l12.56,12.56m75.43-75.34c-1.89,1.89-3.51,3.93-4.89,6.09-8.72,13.73-7.1,32.15,4.89,44.13l-12.56,12.56c-1.89-1.88-3.51-3.93-4.89-6.09-7.35-11.57-7.35-26.47,0-38.04,1.37-2.16,3-4.21,4.89-6.09l12.56-12.56m-12.56,12.56c-1.89,1.89-3.93,3.51-6.09,4.89-11.57,7.35-26.47,7.35-38.04,0-2.16-1.37-4.21-3-6.09-4.89l-12.56-12.56c1.89,1.89,3.93,3.51,6.09,4.89,13.73,8.73,32.15,7.1,44.13-4.89l12.56,12.56m-50.23,0c1.89,1.89,3.52,3.93,4.89,6.09,7.35,11.58,7.35,26.48,0,38.05-1.37,2.16-3,4.2-4.88,6.08l-12.56,12.56c1.88-1.88,3.51-3.92,4.88-6.08,8.73-13.73,7.11-32.16-4.88-44.14l12.56-12.56m62.78,62.78c-1.89-1.89-3.93-3.51-6.09-4.89-13.73-8.73-32.15-7.1-44.13,4.89l-12.56-12.56c1.89-1.89,3.94-3.52,6.1-4.89,11.57-7.35,26.46-7.35,38.03,0,2.16,1.37,4.21,3,6.09,4.89l12.56,12.56m75.43-75.34c-1.89,1.89-3.51,3.93-4.89,6.09-8.72,13.73-7.1,32.15,4.89,44.13l-12.56,12.56c-1.89-1.88-3.51-3.93-4.89-6.09-7.35-11.57-7.35-26.47,0-38.04,1.37-2.16,3-4.21,4.89-6.09l12.56-12.56m-12.56,12.56c-1.89,1.89-3.93,3.51-6.09,4.89-11.57,7.35-26.47,7.35-38.04,0-2.16-1.37-4.21-3-6.09-4.89l-12.56-12.56c1.89,1.89,3.93,3.51,6.09,4.89,13.73,8.73,32.15,7.1,44.13-4.89l12.56,12.56m-50.23,0c1.89,1.89,3.52,3.93,4.89,6.09,7.35,11.58,7.35,26.48,0,38.05-1.37,2.16-3,4.2-4.88,6.08l-12.56,12.56c1.88-1.88,3.51-3.92,4.88-6.08,8.73-13.73,7.11-32.16-4.88-44.14l12.56-12.56m62.78,62.78c-1.89-1.89-3.93-3.51-6.09-4.89-13.73-8.73-32.15-7.1-44.13,4.89l-12.56-12.56c1.89-1.89,3.94-3.52,6.1-4.89,11.57-7.35,26.46-7.35,38.03,0,2.16,1.37,4.21,3,6.09,4.89l12.56,12.56m75.43-75.34c-1.89,1.89-3.51,3.93-4.89,6.09-8.72,13.73-7.1,32.15,4.89,44.13l-12.56,12.56c-1.89-1.88-3.51-3.93-4.89-6.09-7.35-11.57-7.35-26.47,0-38.04,1.37-2.16,3-4.21,4.89-6.09l12.56-12.56m-12.56,12.56c-1.89,1.89-3.93,3.51-6.09,4.89-11.57,7.35-26.47,7.35-38.04,0-2.16-1.37-4.21-3-6.09-4.89l-12.56-12.56c1.89,1.89,3.93,3.51,6.09,4.89,13.73,8.73,32.15,7.1,44.13-4.89l12.56,12.56m-50.23,0c1.89,1.89,3.52,3.93,4.89,6.09,7.35,11.58,7.35,26.48,0,38.05-1.37,2.16-3,4.2-4.88,6.08l-12.56,12.56c1.88-1.88,3.51-3.92,4.88-6.08,8.73-13.73,7.11-32.16-4.88-44.14l12.56-12.56m62.78,62.78c-1.89-1.89-3.93-3.51-6.09-4.89-13.73-8.73-32.15-7.1-44.13,4.89l-12.56-12.56c1.89-1.89,3.94-3.52,6.1-4.89,11.57-7.35,26.46-7.35,38.03,0,2.16,1.37,4.21,3,6.09,4.89l12.56,12.56m75.43-75.34c-1.89,1.89-3.51,3.93-4.89,6.09-8.72,13.73-7.1,32.15,4.89,44.13l-12.56,12.56c-1.89-1.88-3.51-3.93-4.89-6.09-7.35-11.57-7.35-26.47,0-38.04,1.37-2.16,3-4.21,4.89-6.09l12.56-12.56m-12.56,12.56c-1.89,1.89-3.93,3.51-6.09,4.89-11.57,7.35-26.47,7.35-38.04,0-2.16-1.37-4.21-3-6.09-4.89l-12.56-12.56c1.89,1.89,3.93,3.51,6.09,4.89,13.73,8.73,32.15,7.1,44.13-4.89l12.56,12.56m-50.23,0c1.89,1.89,3.52,3.93,4.89,6.09,7.35,11.58,7.35,26.48,0,38.05-1.37,2.16-3,4.2-4.88,6.08l-12.56,12.56c1.88-1.88,3.51-3.92,4.88-6.08,8.73-13.73,7.11-32.16-4.88-44.14l12.56-12.56m62.78,62.78c-1.89-1.89-3.93-3.51-6.09-4.89-13.73-8.73-32.15-7.1-44.13,4.89l-12.56-12.56c1.89-1.89,3.94-3.52,6.1-4.89,11.57-7.35,26.46-7.35,38.03,0,2.16,1.37,4.21,3,6.09,4.89l12.56,12.56m75.43-75.34c-1.89,1.89-3.51,3.93-4.89,6.09-8.72,13.73-7.1,32.15,4.89,44.13l-12.56,12.56c-1.89-1.88-3.51-3.93-4.89-6.09-7.35-11.57-7.35-26.47,0-38.04,1.37-2.16,3-4.21,4.89-6.09l12.56-12.56m-12.56,12.56c-1.89,1.89-3.93,3.51-6.09,4.89-11.57,7.35-26.47,7.35-38.04,0-2.16-1.37-4.21-3-6.09-4.89l-12.56-12.56c1.89,1.89,3.93,3.51,6.09,4.89,13.73,8.73,32.15,7.1,44.13-4.89l12.56,12.56m-50.23,0c1.89,1.89,3.52,3.93,4.89,6.09,7.35,11.58,7.35,26.48,0,38.05-1.37,2.16-3,4.2-4.88,6.08l-12.56,12.56c1.88-1.88,3.51-3.92,4.88-6.08,8.73-13.73,7.11-32.16-4.88-44.14l12.56-12.56m62.78,62.78c-1.89-1.89-3.93-3.51-6.09-4.89-13.73-8.73-32.15-7.1-44.13,4.89l-12.56-12.56c1.89-1.89,3.94-3.52,6.1-4.89,11.57-7.35,26.46-7.35,38.03,0,2.16,1.37,4.21,3,6.09,4.89l12.56,12.56m75.43-75.34c-1.89,1.89-3.51,3.93-4.89,6.09-8.72,13.73-7.1,32.15,4.89,44.13l-12.56,12.56c-1.89-1.88-3.51-3.93-4.89-6.09-7.35-11.57-7.35-26.47,0-38.04,1.37-2.16,3-4.21,4.89-6.09l12.56-12.56m-12.56,12.56c-1.89,1.89-3.93,3.51-6.09,4.89-11.57,7.35-26.47,7.35-38.04,0-2.16-1.37-4.21-3-6.09-4.89l-12.56-12.56c1.89,1.89,3.93,3.51,6.09,4.89,13.73,8.73,32.15,7.1,44.13-4.89l12.56,12.56m-50.23,0c1.89,1.89,3.52,3.93,4.89,6.09,7.35,11.58,7.35,26.48,0,38.05-1.37,2.16-3,4.2-4.88,6.08l-12.56,12.56c1.88-1.88,3.51-3.92,4.88-6.08,8.73-13.73,7.11-32.16-4.88-44.14l12.56-12.56m62.78,62.78c-1.89-1.89-3.93-3.51-6.09-4.89-13.73-8.73-32.15-7.1-44.13,4.89l-12.56-12.56c1.89-1.89,3.94-3.52,6.1-4.89,11.57-7.35,26.46-7.35,38.03,0,2.16,1.37,4.21,3,6.09,4.89l12.56,12.56m75.43-75.34c-1.89,1.89-3.51,3.93-4.89,6.09-8.72,13.73-7.1,32.15,4.89,44.13l-12.56,12.56c-1.89-1.88-3.51-3.93-4.89-6.09-7.35-11.57-7.35-26.47,0-38.04,1.37-2.16,3-4.21,4.89-6.09l12.56-12.56m-12.56,12.56c-1.89,1.89-3.93,3.51-6.09,4.89-11.57,7.35-26.47,7.35-38.04,0-2.16-1.37-4.21-3-6.09-4.89l-12.56-12.56c1.89,1.89,3.93,3.51,6.09,4.89,13.73,8.73,32.15,7.1,44.13-4.89l12.56,12.56m-50.23,0c1.89,1.89,3.52,3.93,4.89,6.09,7.35,11.58,7.35,26.48,0,38.05-1.37,2.16-3,4.2-4.88,6.08l-12.56,12.56c1.88-1.88,3.51-3.92,4.88-6.08,8.73-13.73,7.11-32.16-4.88-44.14l12.56-12.56m62.78,62.78c-1.89-1.89-3.93-3.51-6.09-4.89-13.73-8.73-32.15-7.1-44.13,4.89l-12.56-12.56c1.89-1.89,3.94-3.52,6.1-4.89,11.57-7.35,26.46-7.35,38.03,0,2.16,1.37,4.21,3,6.09,4.89l12.56,12.56m75.43-75.34c-1.89,1.89-3.51,3.93-4.89,6.09-8.72,13.73-7.1,32.15,4.89,44.13l-12.56,12.56c-1.89-1.88-3.51-3.93-4.89-6.09-7.35-11.57-7.35-26.47,0-38.04,1.37-2.16,3-4.21,4.89-6.09l12.56-12.56m-12.56,12.56c-1.89,1.89-3.93,3.51-6.09,4.89-11.57,7.35-26.47,7.35-38.04,0-2.16-1.37-4.21-3-6.09-4.89l-12.56-12.56c1.89,1.89,3.93,3.51,6.09,4.89,13.73,8.73,32.15,7.1,44.13-4.89l12.56,12.56m-50.23,0c1.89,1.89,3.52,3.93,4.89,6.09,7.35,11.58,7.35,26.48,0,38.05-1.37,2.16-3,4.2-4.88,6.08l-12.56,12.56c1.88-1.88,3.51-3.92,4.88-6.08,8.73-13.73,7.11-32.16-4.88-44.14l12.56-12.56m62.78,62.78c-1.89-1.89-3.93-3.51-6.09-4.89-13.73-8.73-32.15-7.1-44.13,4.89l-12.56-12.56c1.89-1.89,3.94-3.52,6.1-4.89,11.57-7.35,26.46-7.35,38.03,0,2.16,1.37,4.21,3,6.09,4.89l12.56,12.56m75.43-75.34c-1.89,1.89-3.51,3.93-4.89,6.09-8.72,13.73-7.1,32.15,4.89,44.13l-12.56,12.56c-1.89-1.88-3.51-3.93-4.89-6.09-7.35-11.57-7.35-26.47,0-38.04,1.37-2.16,3-4.21,4.89-6.09l12.56-12.56m-12.56,12.56c-1.89,1.89-3.93,3.51-6.09,4.89-11.57,7.35-26.47,7.35-38.04,0-2.16-1.37-4.21-3-6.09-4.89l-12.56-12.56c1.89,1.89,3.93,3.51,6.09,4.89,13.73,8.73,32.15,7.1,44.13-4.89l12.56,12.56m-50.23,0c1.89,1.89,3.52,3.93,4.89,6.09,7.35,11.58,7.35,26.48,0,38.05-1.37,2.16-3,4.2-4.88,6.08l-12.56,12.56c1.88-1.88,3.51-3.92,4.88-6.08,8.73-13.73,7.11-32.16-4.88-44.14l12.56-12.56m62.78,62.78c-1.89-1.89-3.93-3.51-6.09-4.89-13.73-8.73-32.15-7.1-44.13,4.89l-12.56-12.56c1.89-1.89,3.94-3.52,6.1-4.89,11.57-7.35,26.46-7.35,38.03,0,2.16,1.37,4.21,3,6.09,4.89l12.56,12.56M76.05,.71c-1.89,1.89-3.51,3.93-4.89,6.09-8.72,13.73-7.1,32.15,4.89,44.13l-12.56,12.56c-1.89-1.88-3.51-3.93-4.89-6.09-7.35-11.57-7.35-26.47,0-38.04,1.37-2.16,3-4.21,4.89-6.09L76.05,.71m-12.56,12.56c-1.89,1.89-3.93,3.51-6.09,4.89-11.57,7.35-26.47,7.35-38.04,0-2.16-1.37-4.21-3-6.09-4.89L.71,.71c1.89,1.89,3.93,3.51,6.09,4.89C20.53,14.32,38.95,12.69,50.93,.71l12.56,12.56m-50.23,0c1.89,1.89,3.52,3.93,4.89,6.09,7.35,11.58,7.35,26.48,0,38.05-1.37,2.16-3,4.2-4.88,6.08L.71,76.05c1.88-1.88,3.51-3.92,4.88-6.08C14.32,56.23,12.69,37.81,.71,25.82L13.27,13.26m62.78,62.78c-1.89-1.89-3.93-3.51-6.09-4.89-13.73-8.73-32.15-7.1-44.13,4.89l-12.56-12.56c1.89-1.89,3.94-3.52,6.1-4.89,11.57-7.35,26.46-7.35,38.03,0,2.16,1.37,4.21,3,6.09,4.89l12.56,12.56M151.47,.71c-1.89,1.89-3.51,3.93-4.89,6.09-8.72,13.73-7.1,32.15,4.89,44.13l-12.56,12.56c-1.89-1.88-3.51-3.93-4.89-6.09-7.35-11.57-7.35-26.47,0-38.04,1.37-2.16,3-4.21,4.89-6.09L151.47,.71m-12.56,12.56c-1.89,1.89-3.93,3.51-6.09,4.89-11.57,7.35-26.47,7.35-38.04,0-2.16-1.37-4.21-3-6.09-4.89L76.13,.71c1.89,1.89,3.93,3.51,6.09,4.89,13.73,8.73,32.15,7.1,44.13-4.89l12.56,12.56m-50.23,0c1.89,1.89,3.52,3.93,4.89,6.09,7.35,11.58,7.35,26.48,0,38.05-1.37,2.16-3,4.2-4.88,6.08l-12.56,12.56c1.88-1.88,3.51-3.92,4.88-6.08,8.73-13.73,7.11-32.16-4.88-44.14l12.56-12.56m62.78,62.78c-1.89-1.89-3.93-3.51-6.09-4.89-13.73-8.73-32.15-7.1-44.13,4.89l-12.56-12.56c1.89-1.89,3.94-3.52,6.1-4.89,11.57-7.35,26.46-7.35,38.03,0,2.16,1.37,4.21,3,6.09,4.89l12.56,12.56M226.9,.71c-1.89,1.89-3.51,3.93-4.89,6.09-8.72,13.73-7.1,32.15,4.89,44.13l-12.56,12.56c-1.89-1.88-3.51-3.93-4.89-6.09-7.35-11.57-7.35-26.47,0-38.04,1.37-2.16,3-4.21,4.89-6.09L226.9,.71m-12.56,12.56c-1.89,1.89-3.93,3.51-6.09,4.89-11.57,7.35-26.47,7.35-38.04,0-2.16-1.37-4.21-3-6.09-4.89L151.56,.71c1.89,1.89,3.93,3.51,6.09,4.89,13.73,8.73,32.15,7.1,44.13-4.89l12.56,12.56m-50.23,0c1.89,1.89,3.52,3.93,4.89,6.09,7.35,11.58,7.35,26.48,0,38.05-1.37,2.16-3,4.2-4.88,6.08l-12.56,12.56c1.88-1.88,3.51-3.92,4.88-6.08,8.73-13.73,7.11-32.16-4.88-44.14l12.56-12.56m62.78,62.78c-1.89-1.89-3.93-3.51-6.09-4.89-13.73-8.73-32.15-7.1-44.13,4.89l-12.56-12.56c1.89-1.89,3.94-3.52,6.1-4.89,11.57-7.35,26.46-7.35,38.03,0,2.16,1.37,4.21,3,6.09,4.89l12.56,12.56M302.32,.71c-1.89,1.89-3.51,3.93-4.89,6.09-8.72,13.73-7.1,32.15,4.89,44.13l-12.56,12.56c-1.89-1.88-3.51-3.93-4.89-6.09-7.35-11.57-7.35-26.47,0-38.04,1.37-2.16,3-4.21,4.89-6.09l12.56-12.56m-12.56,12.56c-1.89,1.89-3.93,3.51-6.09,4.89-11.57,7.35-26.47,7.35-38.04,0-2.16-1.37-4.21-3-6.09-4.89L226.98,.71c1.89,1.89,3.93,3.51,6.09,4.89,13.73,8.73,32.15,7.1,44.13-4.89l12.56,12.56m-50.23,0c1.89,1.89,3.52,3.93,4.89,6.09,7.35,11.58,7.35,26.48,0,38.05-1.37,2.16-3,4.2-4.88,6.08l-12.56,12.56c1.88-1.88,3.51-3.92,4.88-6.08,8.73-13.73,7.11-32.16-4.88-44.14l12.56-12.56m62.78,62.78c-1.89-1.89-3.93-3.51-6.09-4.89-13.73-8.73-32.15-7.1-44.13,4.89l-12.56-12.56c1.89-1.89,3.94-3.52,6.1-4.89,11.57-7.35,26.46-7.35,38.03,0,2.16,1.37,4.21,3,6.09,4.89l12.56,12.56M377.75,.71c-1.89,1.89-3.51,3.93-4.89,6.09-8.72,13.73-7.1,32.15,4.89,44.13l-12.56,12.56c-1.89-1.88-3.51-3.93-4.89-6.09-7.35-11.57-7.35-26.47,0-38.04,1.37-2.16,3-4.21,4.89-6.09l12.56-12.56m-12.56,12.56c-1.89,1.89-3.93,3.51-6.09,4.89-11.57,7.35-26.47,7.35-38.04,0-2.16-1.37-4.21-3-6.09-4.89l-12.56-12.56c1.89,1.89,3.93,3.51,6.09,4.89,13.73,8.73,32.15,7.1,44.13-4.89l12.56,12.56m-50.23,0c1.89,1.89,3.52,3.93,4.89,6.09,7.35,11.58,7.35,26.48,0,38.05-1.37,2.16-3,4.2-4.88,6.08l-12.56,12.56c1.88-1.88,3.51-3.92,4.88-6.08,8.73-13.73,7.11-32.16-4.88-44.14l12.56-12.56m62.78,62.78c-1.89-1.89-3.93-3.51-6.09-4.89-13.73-8.73-32.15-7.1-44.13,4.89l-12.56-12.56c1.89-1.89,3.94-3.52,6.1-4.89,11.57-7.35,26.46-7.35,38.03,0,2.16,1.37,4.21,3,6.09,4.89l12.56,12.56M453.17,.71c-1.89,1.89-3.51,3.93-4.89,6.09-8.72,13.73-7.1,32.15,4.89,44.13l-12.56,12.56c-1.89-1.88-3.51-3.93-4.89-6.09-7.35-11.57-7.35-26.47,0-38.04,1.37-2.16,3-4.21,4.89-6.09l12.56-12.56m-12.56,12.56c-1.89,1.89-3.93,3.51-6.09,4.89-11.57,7.35-26.47,7.35-38.04,0-2.16-1.37-4.21-3-6.09-4.89l-12.56-12.56c1.89,1.89,3.93,3.51,6.09,4.89,13.73,8.73,32.15,7.1,44.13-4.89l12.56,12.56m-50.23,0c1.89,1.89,3.52,3.93,4.89,6.09,7.35,11.58,7.35,26.48,0,38.05-1.37,2.16-3,4.2-4.88,6.08l-12.56,12.56c1.88-1.88,3.51-3.92,4.88-6.08,8.73-13.73,7.11-32.16-4.88-44.14l12.56-12.56m62.78,62.78c-1.89-1.89-3.93-3.51-6.09-4.89-13.73-8.73-32.15-7.1-44.13,4.89l-12.56-12.56c1.89-1.89,3.94-3.52,6.1-4.89,11.57-7.35,26.46-7.35,38.03,0,2.16,1.37,4.21,3,6.09,4.89l12.56,12.56M528.6,.71c-1.89,1.89-3.51,3.93-4.89,6.09-8.72,13.73-7.1,32.15,4.89,44.13l-12.56,12.56c-1.89-1.88-3.51-3.93-4.89-6.09-7.35-11.57-7.35-26.47,0-38.04,1.37-2.16,3-4.21,4.89-6.09l12.56-12.56m-12.56,12.56c-1.89,1.89-3.93,3.51-6.09,4.89-11.57,7.35-26.47,7.35-38.04,0-2.16-1.37-4.21-3-6.09-4.89l-12.56-12.56c1.89,1.89,3.93,3.51,6.09,4.89,13.73,8.73,32.15,7.1,44.13-4.89l12.56,12.56m-50.23,0c1.89,1.89,3.52,3.93,4.89,6.09,7.35,11.58,7.35,26.48,0,38.05-1.37,2.16-3,4.2-4.88,6.08l-12.56,12.56c1.88-1.88,3.51-3.92,4.88-6.08,8.73-13.73,7.11-32.16-4.88-44.14l12.56-12.56m62.78,62.78c-1.89-1.89-3.93-3.51-6.09-4.89-13.73-8.73-32.15-7.1-44.13,4.89l-12.56-12.56c1.89-1.89,3.94-3.52,6.1-4.89,11.57-7.35,26.46-7.35,38.03,0,2.16,1.37,4.21,3,6.09,4.89l12.56,12.56M604.03,.71c-1.89,1.89-3.51,3.93-4.89,6.09-8.72,13.73-7.1,32.15,4.89,44.13l-12.56,12.56c-1.89-1.88-3.51-3.93-4.89-6.09-7.35-11.57-7.35-26.47,0-38.04,1.37-2.16,3-4.21,4.89-6.09l12.56-12.56m-12.56,12.56c-1.89,1.89-3.93,3.51-6.09,4.89-11.57,7.35-26.47,7.35-38.04,0-2.16-1.37-4.21-3-6.09-4.89l-12.56-12.56c1.89,1.89,3.93,3.51,6.09,4.89,13.73,8.73,32.15,7.1,44.13-4.89l12.56,12.56m-50.23,0c1.89,1.89,3.52,3.93,4.89,6.09,7.35,11.58,7.35,26.48,0,38.05-1.37,2.16-3,4.2-4.88,6.08l-12.56,12.56c1.88-1.88,3.51-3.92,4.88-6.08,8.73-13.73,7.11-32.16-4.88-44.14l12.56-12.56m62.78,62.78c-1.89-1.89-3.93-3.51-6.09-4.89-13.73-8.73-32.15-7.1-44.13,4.89l-12.56-12.56c1.89-1.89,3.94-3.52,6.1-4.89,11.57-7.35,26.46-7.35,38.03,0,2.16,1.37,4.21,3,6.09,4.89l12.56,12.56M679.45,.71c-1.89,1.89-3.51,3.93-4.89,6.09-8.72,13.73-7.1,32.15,4.89,44.13l-12.56,12.56c-1.89-1.88-3.51-3.93-4.89-6.09-7.35-11.57-7.35-26.47,0-38.04,1.37-2.16,3-4.21,4.89-6.09l12.56-12.56m-12.56,12.56c-1.89,1.89-3.93,3.51-6.09,4.89-11.57,7.35-26.47,7.35-38.04,0-2.16-1.37-4.21-3-6.09-4.89l-12.56-12.56c1.89,1.89,3.93,3.51,6.09,4.89,13.73,8.73,32.15,7.1,44.13-4.89l12.56,12.56m-50.23,0c1.89,1.89,3.52,3.93,4.89,6.09,7.35,11.58,7.35,26.48,0,38.05-1.37,2.16-3,4.2-4.88,6.08l-12.56,12.56c1.88-1.88,3.51-3.92,4.88-6.08,8.73-13.73,7.11-32.16-4.88-44.14l12.56-12.56m62.78,62.78c-1.89-1.89-3.93-3.51-6.09-4.89-13.73-8.73-32.15-7.1-44.13,4.89l-12.56-12.56c1.89-1.89,3.94-3.52,6.1-4.89,11.57-7.35,26.46-7.35,38.03,0,2.16,1.37,4.21,3,6.09,4.89l12.56,12.56M754.88,.71c-1.89,1.89-3.51,3.93-4.89,6.09-8.72,13.73-7.1,32.15,4.89,44.13l-12.56,12.56c-1.89-1.88-3.51-3.93-4.89-6.09-7.35-11.57-7.35-26.47,0-38.04,1.37-2.16,3-4.21,4.89-6.09l12.56-12.56m-12.56,12.56c-1.89,1.89-3.93,3.51-6.09,4.89-11.57,7.35-26.47,7.35-38.04,0-2.16-1.37-4.21-3-6.09-4.89l-12.56-12.56c1.89,1.89,3.93,3.51,6.09,4.89,13.73,8.73,32.15,7.1,44.13-4.89l12.56,12.56m-50.23,0c1.89,1.89,3.52,3.93,4.89,6.09,7.35,11.58,7.35,26.48,0,38.05-1.37,2.16-3,4.2-4.88,6.08l-12.56,12.56c1.88-1.88,3.51-3.92,4.88-6.08,8.73-13.73,7.11-32.16-4.88-44.14l12.56-12.56m62.78,62.78c-1.89-1.89-3.93-3.51-6.09-4.89-13.73-8.73-32.15-7.1-44.13,4.89l-12.56-12.56c1.89-1.89,3.94-3.52,6.1-4.89,11.57-7.35,26.46-7.35,38.03,0,2.16,1.37,4.21,3,6.09,4.89l12.56,12.56M830.3,.71c-1.89,1.89-3.51,3.93-4.89,6.09-8.72,13.73-7.1,32.15,4.89,44.13l-12.56,12.56c-1.89-1.88-3.51-3.93-4.89-6.09-7.35-11.57-7.35-26.47,0-38.04,1.37-2.16,3-4.21,4.89-6.09l12.56-12.56m-12.56,12.56c-1.89,1.89-3.93,3.51-6.09,4.89-11.57,7.35-26.47,7.35-38.04,0-2.16-1.37-4.21-3-6.09-4.89l-12.56-12.56c1.89,1.89,3.93,3.51,6.09,4.89,13.73,8.73,32.15,7.1,44.13-4.89l12.56,12.56m-50.23,0c1.89,1.89,3.52,3.93,4.89,6.09,7.35,11.58,7.35,26.48,0,38.05-1.37,2.16-3,4.2-4.88,6.08l-12.56,12.56c1.88-1.88,3.51-3.92,4.88-6.08,8.73-13.73,7.11-32.16-4.88-44.14l12.56-12.56m62.78,62.78c-1.89-1.89-3.93-3.51-6.09-4.89-13.73-8.73-32.15-7.1-44.13,4.89l-12.56-12.56c1.89-1.89,3.94-3.52,6.1-4.89,11.57-7.35,26.46-7.35,38.03,0,2.16,1.37,4.21,3,6.09,4.89l12.56,12.56M905.73,.71c-1.89,1.89-3.51,3.93-4.89,6.09-8.72,13.73-7.1,32.15,4.89,44.13l-12.56,12.56c-1.89-1.88-3.51-3.93-4.89-6.09-7.35-11.57-7.35-26.47,0-38.04,1.37-2.16,3-4.21,4.89-6.09l12.56-12.56m-12.56,12.56c-1.89,1.89-3.93,3.51-6.09,4.89-11.57,7.35-26.47,7.35-38.04,0-2.16-1.37-4.21-3-6.09-4.89l-12.56-12.56c1.89,1.89,3.93,3.51,6.09,4.89,13.73,8.73,32.15,7.1,44.13-4.89l12.56,12.56m-50.23,0c1.89,1.89,3.52,3.93,4.89,6.09,7.35,11.58,7.35,26.48,0,38.05-1.37,2.16-3,4.2-4.88,6.08l-12.56,12.56c1.88-1.88,3.51-3.92,4.88-6.08,8.73-13.73,7.11-32.16-4.88-44.14l12.56-12.56m62.78,62.78c-1.89-1.89-3.93-3.51-6.09-4.89-13.73-8.73-32.15-7.1-44.13,4.89l-12.56-12.56c1.89-1.89,3.94-3.52,6.1-4.89,11.57-7.35,26.46-7.35,38.03,0,2.16,1.37,4.21,3,6.09,4.89l12.56,12.56M981.15,.71c-1.89,1.89-3.51,3.93-4.89,6.09-8.72,13.73-7.1,32.15,4.89,44.13l-12.56,12.56c-1.89-1.88-3.51-3.93-4.89-6.09-7.35-11.57-7.35-26.47,0-38.04,1.37-2.16,3-4.21,4.89-6.09l12.56-12.56m-12.56,12.56c-1.89,1.89-3.93,3.51-6.09,4.89-11.57,7.35-26.47,7.35-38.04,0-2.16-1.37-4.21-3-6.09-4.89l-12.56-12.56c1.89,1.89,3.93,3.51,6.09,4.89,13.73,8.73,32.15,7.1,44.13-4.89l12.56,12.56m-50.23,0c1.89,1.89,3.52,3.93,4.89,6.09,7.35,11.58,7.35,26.48,0,38.05-1.37,2.16-3,4.2-4.88,6.08l-12.56,12.56c1.88-1.88,3.51-3.92,4.88-6.08,8.73-13.73,7.11-32.16-4.88-44.14l12.56-12.56m62.78,62.78c-1.89-1.89-3.93-3.51-6.09-4.89-13.73-8.73-32.15-7.1-44.13,4.89l-12.56-12.56c1.89-1.89,3.94-3.52,6.1-4.89,11.57-7.35,26.46-7.35,38.03,0,2.16,1.37,4.21,3,6.09,4.89l12.56,12.56M1056.58,.71c-1.89,1.89-3.51,3.93-4.89,6.09-8.72,13.73-7.1,32.15,4.89,44.13l-12.56,12.56c-1.89-1.88-3.51-3.93-4.89-6.09-7.35-11.57-7.35-26.47,0-38.04,1.37-2.16,3-4.21,4.89-6.09l12.56-12.56m-12.56,12.56c-1.89,1.89-3.93,3.51-6.09,4.89-11.57,7.35-26.47,7.35-38.04,0-2.16-1.37-4.21-3-6.09-4.89l-12.56-12.56c1.89,1.89,3.93,3.51,6.09,4.89,13.73,8.73,32.15,7.1,44.13-4.89l12.56,12.56m-50.23,0c1.89,1.89,3.52,3.93,4.89,6.09,7.35,11.58,7.35,26.48,0,38.05-1.37,2.16-3,4.2-4.88,6.08l-12.56,12.56c1.88-1.88,3.51-3.92,4.88-6.08,8.73-13.73,7.11-32.16-4.88-44.14l12.56-12.56m62.78,62.78c-1.89-1.89-3.93-3.51-6.09-4.89-13.73-8.73-32.15-7.1-44.13,4.89l-12.56-12.56c1.89-1.89,3.94-3.52,6.1-4.89,11.57-7.35,26.46-7.35,38.03,0,2.16,1.37,4.21,3,6.09,4.89l12.56,12.56M1132,.71c-1.89,1.89-3.51,3.93-4.89,6.09-8.72,13.73-7.1,32.15,4.89,44.13l-12.56,12.56c-1.89-1.88-3.51-3.93-4.89-6.09-7.35-11.57-7.35-26.47,0-38.04,1.37-2.16,3-4.21,4.89-6.09l12.56-12.56m-12.56,12.56c-1.89,1.89-3.93,3.51-6.09,4.89-11.57,7.35-26.47,7.35-38.04,0-2.16-1.37-4.21-3-6.09-4.89l-12.56-12.56c1.89,1.89,3.93,3.51,6.09,4.89,13.73,8.73,32.15,7.1,44.13-4.89l12.56,12.56m-50.23,0c1.89,1.89,3.52,3.93,4.89,6.09,7.35,11.58,7.35,26.48,0,38.05-1.37,2.16-3,4.2-4.88,6.08l-12.56,12.56c1.88-1.88,3.51-3.92,4.88-6.08,8.73-13.73,7.11-32.16-4.88-44.14l12.56-12.56m62.78,62.78c-1.89-1.89-3.93-3.51-6.09-4.89-13.73-8.73-32.15-7.1-44.13,4.89l-12.56-12.56c1.89-1.89,3.94-3.52,6.1-4.89,11.57-7.35,26.46-7.35,38.03,0,2.16,1.37,4.21,3,6.09,4.89l12.56,12.56M1207.43,.71c-1.89,1.89-3.51,3.93-4.89,6.09-8.72,13.73-7.1,32.15,4.89,44.13l-12.56,12.56c-1.89-1.88-3.51-3.93-4.89-6.09-7.35-11.57-7.35-26.47,0-38.04,1.37-2.16,3-4.21,4.89-6.09l12.56-12.56m-12.56,12.56c-1.89,1.89-3.93,3.51-6.09,4.89-11.57,7.35-26.47,7.35-38.04,0-2.16-1.37-4.21-3-6.09-4.89l-12.56-12.56c1.89,1.89,3.93,3.51,6.09,4.89,13.73,8.73,32.15,7.1,44.13-4.89l12.56,12.56m-50.23,0c1.89,1.89,3.52,3.93,4.89,6.09,7.35,11.58,7.35,26.48,0,38.05-1.37,2.16-3,4.2-4.88,6.08l-12.56,12.56c1.88-1.88,3.51-3.92,4.88-6.08,8.73-13.73,7.11-32.16-4.88-44.14l12.56-12.56m62.78,62.78c-1.89-1.89-3.93-3.51-6.09-4.89-13.73-8.73-32.15-7.1-44.13,4.89l-12.56-12.56c1.89-1.89,3.94-3.52,6.1-4.89,11.57-7.35,26.46-7.35,38.03,0,2.16,1.37,4.21,3,6.09,4.89l12.56,12.56M1282.85,.71c-1.89,1.89-3.51,3.93-4.89,6.09-8.72,13.73-7.1,32.15,4.89,44.13l-12.56,12.56c-1.89-1.88-3.51-3.93-4.89-6.09-7.35-11.57-7.35-26.47,0-38.04,1.37-2.16,3-4.21,4.89-6.09l12.56-12.56m-12.56,12.56c-1.89,1.89-3.93,3.51-6.09,4.89-11.57,7.35-26.47,7.35-38.04,0-2.16-1.37-4.21-3-6.09-4.89l-12.56-12.56c1.89,1.89,3.93,3.51,6.09,4.89,13.73,8.73,32.15,7.1,44.13-4.89l12.56,12.56m-50.23,0c1.89,1.89,3.52,3.93,4.89,6.09,7.35,11.58,7.35,26.48,0,38.05-1.37,2.16-3,4.2-4.88,6.08l-12.56,12.56c1.88-1.88,3.51-3.92,4.88-6.08,8.73-13.73,7.11-32.16-4.88-44.14l12.56-12.56m62.78,62.78c-1.89-1.89-3.93-3.51-6.09-4.89-13.73-8.73-32.15-7.1-44.13,4.89l-12.56-12.56c1.89-1.89,3.94-3.52,6.1-4.89,11.57-7.35,26.46-7.35,38.03,0,2.16,1.37,4.21,3,6.09,4.89l12.56,12.56M1358.28,.71c-1.89,1.89-3.51,3.93-4.89,6.09-8.72,13.73-7.1,32.15,4.89,44.13l-12.56,12.56c-1.89-1.88-3.51-3.93-4.89-6.09-7.35-11.57-7.35-26.47,0-38.04,1.37-2.16,3-4.21,4.89-6.09l12.56-12.56m-12.56,12.56c-1.89,1.89-3.93,3.51-6.09,4.89-11.57,7.35-26.47,7.35-38.04,0-2.16-1.37-4.21-3-6.09-4.89l-12.56-12.56c1.89,1.89,3.93,3.51,6.09,4.89,13.73,8.73,32.15,7.1,44.13-4.89l12.56,12.56m-50.23,0c1.89,1.89,3.52,3.93,4.89,6.09,7.35,11.58,7.35,26.48,0,38.05-1.37,2.16-3,4.2-4.88,6.08l-12.56,12.56c1.88-1.88,3.51-3.92,4.88-6.08,8.73-13.73,7.11-32.16-4.88-44.14l12.56-12.56m62.78,62.78c-1.89-1.89-3.93-3.51-6.09-4.89-13.73-8.73-32.15-7.1-44.13,4.89l-12.56-12.56c1.89-1.89,3.94-3.52,6.1-4.89,11.57-7.35,26.46-7.35,38.03,0,2.16,1.37,4.21,3,6.09,4.89l12.56,12.56M1433.7,.71c-1.89,1.89-3.51,3.93-4.89,6.09-8.72,13.73-7.1,32.15,4.89,44.13l-12.56,12.56c-1.89-1.88-3.51-3.93-4.89-6.09-7.35-11.57-7.35-26.47,0-38.04,1.37-2.16,3-4.21,4.89-6.09l12.56-12.56m-12.56,12.56c-1.89,1.89-3.93,3.51-6.09,4.89-11.57,7.35-26.47,7.35-38.04,0-2.16-1.37-4.21-3-6.09-4.89l-12.56-12.56c1.89,1.89,3.93,3.51,6.09,4.89,13.73,8.73,32.15,7.1,44.13-4.89l12.56,12.56m-50.23,0c1.89,1.89,3.52,3.93,4.89,6.09,7.35,11.58,7.35,26.48,0,38.05-1.37,2.16-3,4.2-4.88,6.08l-12.56,12.56c1.88-1.88,3.51-3.92,4.88-6.08,8.73-13.73,7.11-32.16-4.88-44.14l12.56-12.56m62.78,62.78c-1.89-1.89-3.93-3.51-6.09-4.89-13.73-8.73-32.15-7.1-44.13,4.89l-12.56-12.56c1.89-1.89,3.94-3.52,6.1-4.89,11.57-7.35,26.46-7.35,38.03,0,2.16,1.37,4.21,3,6.09,4.89l12.56,12.56M1509.13,.71c-1.89,1.89-3.51,3.93-4.89,6.09-8.72,13.73-7.1,32.15,4.89,44.13l-12.56,12.56c-1.89-1.88-3.51-3.93-4.89-6.09-7.35-11.57-7.35-26.47,0-38.04,1.37-2.16,3-4.21,4.89-6.09l12.56-12.56m-12.56,12.56c-1.89,1.89-3.93,3.51-6.09,4.89-11.57,7.35-26.47,7.35-38.04,0-2.16-1.37-4.21-3-6.09-4.89l-12.56-12.56c1.89,1.89,3.93,3.51,6.09,4.89,13.73,8.73,32.15,7.1,44.13-4.89l12.56,12.56m-50.23,0c1.89,1.89,3.52,3.93,4.89,6.09,7.35,11.58,7.35,26.48,0,38.05-1.37,2.16-3,4.2-4.88,6.08l-12.56,12.56c1.88-1.88,3.51-3.92,4.88-6.08,8.73-13.73,7.11-32.16-4.88-44.14l12.56-12.56m62.78,62.78c-1.89-1.89-3.93-3.51-6.09-4.89-13.73-8.73-32.15-7.1-44.13,4.89l-12.56-12.56c1.89-1.89,3.94-3.52,6.1-4.89,11.57-7.35,26.46-7.35,38.03,0,2.16,1.37,4.21,3,6.09,4.89l12.56,12.56M1584.55,.71c-1.89,1.89-3.51,3.93-4.89,6.09-8.72,13.73-7.1,32.15,4.89,44.13l-12.56,12.56c-1.89-1.88-3.51-3.93-4.89-6.09-7.35-11.57-7.35-26.47,0-38.04,1.37-2.16,3-4.21,4.89-6.09l12.56-12.56m-12.56,12.56c-1.89,1.89-3.93,3.51-6.09,4.89-11.57,7.35-26.47,7.35-38.04,0-2.16-1.37-4.21-3-6.09-4.89l-12.56-12.56c1.89,1.89,3.93,3.51,6.09,4.89,13.73,8.73,32.15,7.1,44.13-4.89l12.56,12.56m-50.23,0c1.89,1.89,3.52,3.93,4.89,6.09,7.35,11.58,7.35,26.48,0,38.05-1.37,2.16-3,4.2-4.88,6.08l-12.56,12.56c1.88-1.88,3.51-3.92,4.88-6.08,8.73-13.73,7.11-32.16-4.88-44.14l12.56-12.56m62.78,62.78c-1.89-1.89-3.93-3.51-6.09-4.89-13.73-8.73-32.15-7.1-44.13,4.89l-12.56-12.56c1.89-1.89,3.94-3.52,6.1-4.89,11.57-7.35,26.46-7.35,38.03,0,2.16,1.37,4.21,3,6.09,4.89l12.56,12.56M1659.98,.71c-1.89,1.89-3.51,3.93-4.89,6.09-8.72,13.73-7.1,32.15,4.89,44.13l-12.56,12.56c-1.89-1.88-3.51-3.93-4.89-6.09-7.35-11.57-7.35-26.47,0-38.04,1.37-2.16,3-4.21,4.89-6.09l12.56-12.56m-12.56,12.56c-1.89,1.89-3.93,3.51-6.09,4.89-11.57,7.35-26.47,7.35-38.04,0-2.16-1.37-4.21-3-6.09-4.89l-12.56-12.56c1.89,1.89,3.93,3.51,6.09,4.89,13.73,8.73,32.15,7.1,44.13-4.89l12.56,12.56m-50.23,0c1.89,1.89,3.52,3.93,4.89,6.09,7.35,11.58,7.35,26.48,0,38.05-1.37,2.16-3,4.2-4.88,6.08l-12.56,12.56c1.88-1.88,3.51-3.92,4.88-6.08,8.73-13.73,7.11-32.16-4.88-44.14l12.56-12.56m62.78,62.78c-1.89-1.89-3.93-3.51-6.09-4.89-13.73-8.73-32.15-7.1-44.13,4.89l-12.56-12.56c1.89-1.89,3.94-3.52,6.1-4.89,11.57-7.35,26.46-7.35,38.03,0,2.16,1.37,4.21,3,6.09,4.89l12.56,12.56M1735.4,.71c-1.89,1.89-3.51,3.93-4.89,6.09-8.72,13.73-7.1,32.15,4.89,44.13l-12.56,12.56c-1.89-1.88-3.51-3.93-4.89-6.09-7.35-11.57-7.35-26.47,0-38.04,1.37-2.16,3-4.21,4.89-6.09l12.56-12.56m-12.56,12.56c-1.89,1.89-3.93,3.51-6.09,4.89-11.57,7.35-26.47,7.35-38.04,0-2.16-1.37-4.21-3-6.09-4.89l-12.56-12.56c1.89,1.89,3.93,3.51,6.09,4.89,13.73,8.73,32.15,7.1,44.13-4.89l12.56,12.56m-50.23,0c1.89,1.89,3.52,3.93,4.89,6.09,7.35,11.58,7.35,26.48,0,38.05-1.37,2.16-3,4.2-4.88,6.08l-12.56,12.56c1.88-1.88,3.51-3.92,4.88-6.08,8.73-13.73,7.11-32.16-4.88-44.14l12.56-12.56m62.78,62.78c-1.89-1.89-3.93-3.51-6.09-4.89-13.73-8.73-32.15-7.1-44.13,4.89l-12.56-12.56c1.89-1.89,3.94-3.52,6.1-4.89,11.57-7.35,26.46-7.35,38.03,0,2.16,1.37,4.21,3,6.09,4.89l12.56,12.56M1810.83,.71c-1.89,1.89-3.51,3.93-4.89,6.09-8.72,13.73-7.1,32.15,4.89,44.13l-12.56,12.56c-1.89-1.88-3.51-3.93-4.89-6.09-7.35-11.57-7.35-26.47,0-38.04,1.37-2.16,3-4.21,4.89-6.09l12.56-12.56m-12.56,12.56c-1.89,1.89-3.93,3.51-6.09,4.89-11.57,7.35-26.47,7.35-38.04,0-2.16-1.37-4.21-3-6.09-4.89l-12.56-12.56c1.89,1.89,3.93,3.51,6.09,4.89,13.73,8.73,32.15,7.1,44.13-4.89l12.56,12.56m-50.23,0c1.89,1.89,3.52,3.93,4.89,6.09,7.35,11.58,7.35,26.48,0,38.05-1.37,2.16-3,4.2-4.88,6.08l-12.56,12.56c1.88-1.88,3.51-3.92,4.88-6.08,8.73-13.73,7.11-32.16-4.88-44.14l12.56-12.56m62.78,62.78c-1.89-1.89-3.93-3.51-6.09-4.89-13.73-8.73-32.15-7.1-44.13,4.89l-12.56-12.56c1.89-1.89,3.94-3.52,6.1-4.89,11.57-7.35,26.46-7.35,38.03,0,2.16,1.37,4.21,3,6.09,4.89l12.56,12.56M1886.25,.71c-1.89,1.89-3.51,3.93-4.89,6.09-8.72,13.73-7.1,32.15,4.89,44.13l-12.56,12.56c-1.89-1.88-3.51-3.93-4.89-6.09-7.35-11.57-7.35-26.47,0-38.04,1.37-2.16,3-4.21,4.89-6.09l12.56-12.56m-12.56,12.56c-1.89,1.89-3.93,3.51-6.09,4.89-11.57,7.35-26.47,7.35-38.04,0-2.16-1.37-4.21-3-6.09-4.89l-12.56-12.56c1.89,1.89,3.93,3.51,6.09,4.89,13.73,8.73,32.15,7.1,44.13-4.89l12.56,12.56m-50.23,0c1.89,1.89,3.52,3.93,4.89,6.09,7.35,11.58,7.35,26.48,0,38.05-1.37,2.16-3,4.2-4.88,6.08l-12.56,12.56c1.88-1.88,3.51-3.92,4.88-6.08,8.73-13.73,7.11-32.16-4.88-44.14l12.56-12.56m62.78,62.78c-1.89-1.89-3.93-3.51-6.09-4.89-13.73-8.73-32.15-7.1-44.13,4.89l-12.56-12.56c1.89-1.89,3.94-3.52,6.1-4.89,11.57-7.35,26.46-7.35,38.03,0,2.16,1.37,4.21,3,6.09,4.89l12.56,12.56M1961.68,.71c-1.89,1.89-3.51,3.93-4.89,6.09-8.72,13.73-7.1,32.15,4.89,44.13l-12.56,12.56c-1.89-1.88-3.51-3.93-4.89-6.09-7.35-11.57-7.35-26.47,0-38.04,1.37-2.16,3-4.21,4.89-6.09l12.56-12.56m-12.56,12.56c-1.89,1.89-3.93,3.51-6.09,4.89-11.57,7.35-26.47,7.35-38.04,0-2.16-1.37-4.21-3-6.09-4.89l-12.56-12.56c1.89,1.89,3.93,3.51,6.09,4.89,13.73,8.73,32.15,7.1,44.13-4.89l12.56,12.56m-50.23,0c1.89,1.89,3.52,3.93,4.89,6.09,7.35,11.58,7.35,26.48,0,38.05-1.37,2.16-3,4.2-4.88,6.08l-12.56,12.56c1.88-1.88,3.51-3.92,4.88-6.08,8.73-13.73,7.11-32.16-4.88-44.14l12.56-12.56m62.78,62.78c-1.89-1.89-3.93-3.51-6.09-4.89-13.73-8.73-32.15-7.1-44.13,4.89l-12.56-12.56c1.89-1.89,3.94-3.52,6.1-4.89,11.57-7.35,26.46-7.35,38.03,0,2.16,1.37,4.21,3,6.09,4.89l12.56,12.56M2037.1,.71c-1.89,1.89-3.51,3.93-4.89,6.09-8.72,13.73-7.1,32.15,4.89,44.13l-12.56,12.56c-1.89-1.88-3.51-3.93-4.89-6.09-7.35-11.57-7.35-26.47,0-38.04,1.37-2.16,3-4.21,4.89-6.09l12.56-12.56m-12.56,12.56c-1.89,1.89-3.93,3.51-6.09,4.89-11.57,7.35-26.47,7.35-38.04,0-2.16-1.37-4.21-3-6.09-4.89l-12.56-12.56c1.89,1.89,3.93,3.51,6.09,4.89,13.73,8.73,32.15,7.1,44.13-4.89l12.56,12.56m-50.23,0c1.89,1.89,3.52,3.93,4.89,6.09,7.35,11.58,7.35,26.48,0,38.05-1.37,2.16-3,4.2-4.88,6.08l-12.56,12.56c1.88-1.88,3.51-3.92,4.88-6.08,8.73-13.73,7.11-32.16-4.88-44.14l12.56-12.56m62.78,62.78c-1.89-1.89-3.93-3.51-6.09-4.89-13.73-8.73-32.15-7.1-44.13,4.89l-12.56-12.56c1.89-1.89,3.94-3.52,6.1-4.89,11.57-7.35,26.46-7.35,38.03,0,2.16,1.37,4.21,3,6.09,4.89l12.56,12.56M2112.53,.71c-1.89,1.89-3.51,3.93-4.89,6.09-8.72,13.73-7.1,32.15,4.89,44.13l-12.56,12.56c-1.89-1.88-3.51-3.93-4.89-6.09-7.35-11.57-7.35-26.47,0-38.04,1.37-2.16,3-4.21,4.89-6.09l12.56-12.56m-12.56,12.56c-1.89,1.89-3.93,3.51-6.09,4.89-11.57,7.35-26.47,7.35-38.04,0-2.16-1.37-4.21-3-6.09-4.89l-12.56-12.56c1.89,1.89,3.93,3.51,6.09,4.89,13.73,8.73,32.15,7.1,44.13-4.89l12.56,12.56m-50.23,0c1.89,1.89,3.52,3.93,4.89,6.09,7.35,11.58,7.35,26.48,0,38.05-1.37,2.16-3,4.2-4.88,6.08l-12.56,12.56c1.88-1.88,3.51-3.92,4.88-6.08,8.73-13.73,7.11-32.16-4.88-44.14l12.56-12.56m62.78,62.78c-1.89-1.89-3.93-3.51-6.09-4.89-13.73-8.73-32.15-7.1-44.13,4.89l-12.56-12.56c1.89-1.89,3.94-3.52,6.1-4.89,11.57-7.35,26.46-7.35,38.03,0,2.16,1.37,4.21,3,6.09,4.89l12.56,12.56M2187.95,.71c-1.89,1.89-3.51,3.93-4.89,6.09-8.72,13.73-7.1,32.15,4.89,44.13l-12.56,12.56c-1.89-1.88-3.51-3.93-4.89-6.09-7.35-11.57-7.35-26.47,0-38.04,1.37-2.16,3-4.21,4.89-6.09l12.56-12.56m-12.56,12.56c-1.89,1.89-3.93,3.51-6.09,4.89-11.57,7.35-26.47,7.35-38.04,0-2.16-1.37-4.21-3-6.09-4.89l-12.56-12.56c1.89,1.89,3.93,3.51,6.09,4.89,13.73,8.73,32.15,7.1,44.13-4.89l12.56,12.56m-50.23,0c1.89,1.89,3.52,3.93,4.89,6.09,7.35,11.58,7.35,26.48,0,38.05-1.37,2.16-3,4.2-4.88,6.08l-12.56,12.56c1.88-1.88,3.51-3.92,4.88-6.08,8.73-13.73,7.11-32.16-4.88-44.14l12.56-12.56m62.78,62.78c-1.89-1.89-3.93-3.51-6.09-4.89-13.73-8.73-32.15-7.1-44.13,4.89l-12.56-12.56c1.89-1.89,3.94-3.52,6.1-4.89,11.57-7.35,26.46-7.35,38.03,0,2.16,1.37,4.21,3,6.09,4.89l12.56,12.56M2263.38,.71c-1.89,1.89-3.51,3.93-4.89,6.09-8.72,13.73-7.1,32.15,4.89,44.13l-12.56,12.56c-1.89-1.88-3.51-3.93-4.89-6.09-7.35-11.57-7.35-26.47,0-38.04,1.37-2.16,3-4.21,4.89-6.09l12.56-12.56m-12.56,12.56c-1.89,1.89-3.93,3.51-6.09,4.89-11.57,7.35-26.47,7.35-38.04,0-2.16-1.37-4.21-3-6.09-4.89l-12.56-12.56c1.89,1.89,3.93,3.51,6.09,4.89,13.73,8.73,32.15,7.1,44.13-4.89l12.56,12.56m-50.23,0c1.89,1.89,3.52,3.93,4.89,6.09,7.35,11.58,7.35,26.48,0,38.05-1.37,2.16-3,4.2-4.88,6.08l-12.56,12.56c1.88-1.88,3.51-3.92,4.88-6.08,8.73-13.73,7.11-32.16-4.88-44.14l12.56-12.56m62.78,62.78c-1.89-1.89-3.93-3.51-6.09-4.89-13.73-8.73-32.15-7.1-44.13,4.89l-12.56-12.56c1.89-1.89,3.94-3.52,6.1-4.89,11.57-7.35,26.46-7.35,38.03,0,2.16,1.37,4.21,3,6.09,4.89l12.56,12.56M2338.8,.71c-1.89,1.89-3.51,3.93-4.89,6.09-8.72,13.73-7.1,32.15,4.89,44.13l-12.56,12.56c-1.89-1.88-3.51-3.93-4.89-6.09-7.35-11.57-7.35-26.47,0-38.04,1.37-2.16,3-4.21,4.89-6.09l12.56-12.56m-12.56,12.56c-1.89,1.89-3.93,3.51-6.09,4.89-11.57,7.35-26.47,7.35-38.04,0-2.16-1.37-4.21-3-6.09-4.89l-12.56-12.56c1.89,1.89,3.93,3.51,6.09,4.89,13.73,8.73,32.15,7.1,44.13-4.89l12.56,12.56m-50.23,0c1.89,1.89,3.52,3.93,4.89,6.09,7.35,11.58,7.35,26.48,0,38.05-1.37,2.16-3,4.2-4.88,6.08l-12.56,12.56c1.88-1.88,3.51-3.92,4.88-6.08,8.73-13.73,7.11-32.16-4.88-44.14l12.56-12.56m62.78,62.78c-1.89-1.89-3.93-3.51-6.09-4.89-13.73-8.73-32.15-7.1-44.13,4.89l-12.56-12.56c1.89-1.89,3.94-3.52,6.1-4.89,11.57-7.35,26.46-7.35,38.03,0,2.16,1.37,4.21,3,6.09,4.89l12.56,12.56M2414.23,.71c-1.89,1.89-3.51,3.93-4.89,6.09-8.72,13.73-7.1,32.15,4.89,44.13l-12.56,12.56c-1.89-1.88-3.51-3.93-4.89-6.09-7.35-11.57-7.35-26.47,0-38.04,1.37-2.16,3-4.21,4.89-6.09l12.56-12.56m-12.56,12.56c-1.89,1.89-3.93,3.51-6.09,4.89-11.57,7.35-26.47,7.35-38.04,0-2.16-1.37-4.21-3-6.09-4.89l-12.56-12.56c1.89,1.89,3.93,3.51,6.09,4.89,13.73,8.73,32.15,7.1,44.13-4.89l12.56,12.56m-50.23,0c1.89,1.89,3.52,3.93,4.89,6.09,7.35,11.58,7.35,26.48,0,38.05-1.37,2.16-3,4.2-4.88,6.08l-12.56,12.56c1.88-1.88,3.51-3.92,4.88-6.08,8.73-13.73,7.11-32.16-4.88-44.14l12.56-12.56m62.78,62.78c-1.89-1.89-3.93-3.51-6.09-4.89-13.73-8.73-32.15-7.1-44.13,4.89l-12.56-12.56c1.89-1.89,3.94-3.52,6.1-4.89,11.57-7.35,26.46-7.35,38.03,0,2.16,1.37,4.21,3,6.09,4.89l12.56,12.56"/>
  </g>
</svg>