<svg width="48" height="48" viewBox="0 0 48 48" fill="none" xmlns="http://www.w3.org/2000/svg">
<path d="M48 47.3554L40.0861 39.4619C38.897 38.2758 37.8743 36.9948 37.0062 35.6367C32.3744 28.3658 32.3744 18.9956 37.0062 11.7247C37.8683 10.3666 38.897 9.07968 40.0861 7.89357L48 15.7871C40.4488 23.3189 39.4202 34.8954 44.9201 43.5302C45.7882 44.8883 46.8109 46.1753 48 47.3614" fill="#78C2AA"/>
<path d="M40.0861 39.4619L32.1722 47.3554C24.621 39.8236 13.0148 38.7977 4.36359 44.2834C3.002 45.1493 1.71175 46.1693 0.522583 47.3554L8.43648 39.4619C9.62564 38.2758 10.9159 37.2498 12.2775 36.3899C19.5671 31.77 28.9615 31.77 36.2511 36.3899C37.6126 37.2498 38.9029 38.2758 40.0921 39.4619" fill="#78C2AA"/>
<path d="M8.43648 39.4619L0.522583 31.5683C8.07973 24.0306 9.10241 12.4542 3.59657 3.81927C2.73443 2.46117 1.7058 1.18017 0.522583 -0.00593567L8.43648 7.88763C9.6197 9.07374 10.6483 10.3547 11.5105 11.7069C16.1482 18.9837 16.1482 28.348 11.5105 35.6248C10.6424 36.9829 9.6197 38.2698 8.43054 39.4559" fill="#78C2AA"/>
<path d="M48 0L40.0861 7.89356C38.897 9.07967 37.6067 10.1057 36.2451 10.9656C28.9555 15.5855 19.5671 15.5855 12.2775 10.9656C10.9159 10.1057 9.61971 9.07967 8.43054 7.88763L16.3504 0C23.9016 7.5318 35.5078 8.55778 44.159 3.07203C45.5206 2.2121 46.8109 1.18611 48 0Z" fill="#78C2AA"/>
</svg>
