<svg width="162" height="77" viewBox="0 0 162 77" fill="none" xmlns="http://www.w3.org/2000/svg">
<g clip-path="url(#clip0_4_564)">
<path d="M18.0159 57.0359L8.50854 76.5H11.4161L13.5566 72.147H23.3672L25.4363 76.5H29.7233L20.6915 57.0359H18.0159ZM14.8527 69.5375L18.5451 62.0413L22.1067 69.5375H14.8587H14.8527Z" fill="#263772"/>
<path d="M35.5086 57.0359H31.5427V76.5H50.4921V73.8668H35.5086V57.0359Z" fill="#263772"/>
<path d="M70.2677 64.1882C65.4159 64.1882 64.7619 63.0436 64.7619 61.9286C64.7619 60.8137 65.4159 59.6691 70.2677 59.6691C74.7746 59.6691 74.7746 61.3119 74.7746 61.9286V62.753H78.7464V61.9286C78.7464 60.102 77.6465 57.0359 70.2677 57.0359C67.5326 57.0359 65.3743 57.3443 63.8462 57.9552C61.3252 58.9634 60.79 60.6714 60.79 61.9286C60.79 63.1859 61.3192 64.8939 63.8462 65.9021C65.3743 66.513 67.5326 66.8213 70.2677 66.8213C71.6293 66.8213 75.7735 66.8213 75.7735 70.35C75.7735 72.5799 73.7638 73.855 70.2677 73.855C68.5077 73.855 67.1402 73.5762 66.2126 73.0247C65.2375 72.4494 64.7619 71.5776 64.7619 70.35V69.5257H60.79V70.35C60.79 74.2523 64.2446 76.4941 70.2677 76.4941C73.1098 76.4941 75.5 75.9069 77.1767 74.792C78.8356 73.6948 79.7453 72.1173 79.7453 70.35C79.7453 66.4299 76.2908 64.1822 70.2677 64.1822" fill="#263772"/>
<path d="M82.8135 76.5H101.769V73.8668H86.7853V68.0727H98.0645V65.4632H86.7853V59.675H101.769V57.0359H82.8135V76.5Z" fill="#263772"/>
<path d="M133.508 57.0359L124.095 76.3102L116.621 68.4345H117.49C120.635 68.4345 123.192 65.8843 123.192 62.753C123.192 59.6217 120.635 57.0419 117.49 57.0419H104.236V76.5059H108.208V68.4345H111.187L118.815 76.5059H126.908L129.054 72.1529H138.865L140.934 76.5059H145.221L136.189 57.0419H133.514L133.508 57.0359ZM108.202 65.7954V59.675H116.158C117.846 59.675 119.214 61.0509 119.214 62.7471C119.214 64.4432 117.846 65.7954 116.158 65.7954H108.202ZM130.344 69.5375L134.031 62.0413L137.592 69.5375H130.344Z" fill="#263772"/>
<path d="M158.028 70.356C158.028 72.3427 157.719 73.8609 153.801 73.8609C150.602 73.8609 149.573 73.0069 149.573 70.356V69.5316H145.601V70.356C145.601 72.4969 146.362 74.1041 147.861 75.1241C149.21 76.0493 151.155 76.4941 153.807 76.4941C160.585 76.4941 162.006 73.1552 162.006 70.35V57.03H158.034V70.35L158.028 70.356Z" fill="#263772"/>
<path d="M105.307 28.3914H101.335V47.8554H105.307V28.3914Z" fill="#263772"/>
<path d="M35.4965 28.3914H31.5247V47.8554H35.4965V28.3914Z" fill="#263772"/>
<path d="M64.7143 47.8554C64.7857 47.8554 64.863 47.8554 64.9343 47.8495L70.4699 47.8554H89.8354C90.436 47.8554 91.0186 47.7606 91.5657 47.5886C93.8667 46.8532 95.5375 44.6945 95.5375 42.1503V28.3973H91.5657V42.1503C91.5657 43.8464 90.1981 45.2223 88.5095 45.2223H77.4562C78.027 44.3327 78.354 43.283 78.354 42.1503V34.7133H74.3822V42.1503C74.3822 43.8464 73.0087 45.2223 71.3261 45.2223H69.5126C70.0834 44.3327 70.4104 43.283 70.4104 42.1503V36.8187H66.4386V42.1503C66.4386 43.8464 65.0651 45.2223 63.3824 45.2223H61.569C62.1398 44.3327 62.4668 43.283 62.4668 42.1503V38.93H58.495V42.1503C58.495 43.8464 57.1215 45.2223 55.4388 45.2223H45.2655V34.7133H41.2937V52.5228V52.5346C41.2937 54.041 40.8537 56.4369 38.1543 57.0419V59.7521C39.3316 59.6335 40.378 59.3548 41.2937 58.9337C41.3769 58.8922 41.4602 58.8566 41.5434 58.8092C41.591 58.7854 41.6386 58.7617 41.6861 58.7321C41.7158 58.7143 41.7515 58.6965 41.7813 58.6787C41.805 58.6668 41.8288 58.655 41.8467 58.6431C41.8704 58.6313 41.8942 58.6194 41.9121 58.6016C41.9358 58.5897 41.9596 58.5779 41.9775 58.566C42.0012 58.5542 42.025 58.5423 42.0429 58.5245C42.0667 58.5126 42.0904 58.4949 42.1142 58.483C42.3045 58.3644 42.4829 58.2458 42.6553 58.1153C42.6672 58.1094 42.6791 58.0975 42.685 58.0916C42.7504 58.0441 42.8099 57.9967 42.8693 57.9492L42.8753 57.9433C42.8812 57.9374 42.8931 57.9315 42.8991 57.9255C42.9526 57.884 43.0001 57.8366 43.0537 57.795C43.0715 57.7832 43.0834 57.7654 43.1012 57.7535C43.1488 57.712 43.1904 57.6705 43.232 57.629C43.2796 57.5875 43.3212 57.54 43.3688 57.4985C43.4164 57.4511 43.458 57.4036 43.5055 57.3562C43.5353 57.3206 43.565 57.2909 43.5947 57.2554C43.6245 57.2198 43.6542 57.1842 43.6899 57.1486C43.7315 57.1012 43.7672 57.0597 43.8028 57.0122C43.8445 56.9648 43.8801 56.9114 43.9218 56.864C43.9396 56.8402 43.9574 56.8165 43.9753 56.7928C44.0109 56.7394 44.0466 56.686 44.0882 56.6386C44.1239 56.5911 44.1536 56.5378 44.1893 56.4844C44.2072 56.4547 44.225 56.431 44.2428 56.4014C44.2785 56.348 44.3142 56.2887 44.3439 56.2353C44.3439 56.2235 44.3558 56.2116 44.3617 56.2057C44.3617 56.1938 44.3736 56.1819 44.3796 56.176C44.3796 56.1701 44.3915 56.1582 44.3915 56.1523C44.3915 56.1523 44.3915 56.1464 44.3915 56.1404C44.5104 55.9269 44.6174 55.7016 44.7125 55.4703C44.7125 55.4584 44.7244 55.4525 44.7244 55.4406C44.7244 55.4406 44.7482 55.3872 44.7542 55.3635C44.7779 55.3101 44.7958 55.2568 44.8136 55.2034C44.8136 55.1975 44.8136 55.1915 44.8196 55.1797C44.8315 55.15 44.8434 55.1144 44.8552 55.0848C44.8731 55.0255 44.8969 54.9602 44.9147 54.895C44.9266 54.8535 44.9385 54.812 44.9504 54.7764C44.9563 54.7527 44.9623 54.729 44.9682 54.7112C44.9801 54.6756 44.9861 54.64 44.9979 54.6044C44.9979 54.5985 44.9979 54.5925 44.9979 54.5866C45.0158 54.5273 45.0277 54.4739 45.0396 54.4146C45.0574 54.3435 45.0752 54.2723 45.0871 54.1952C45.0871 54.1952 45.0871 54.1952 45.0871 54.1893C45.0931 54.1596 45.099 54.13 45.105 54.1003C45.1169 54.041 45.1288 53.9758 45.1406 53.9105C45.1525 53.8394 45.1585 53.7741 45.1704 53.703C45.1704 53.6674 45.1823 53.6318 45.1823 53.5962C45.1942 53.5251 45.2001 53.4539 45.206 53.3827C45.212 53.3056 45.2239 53.2226 45.2239 53.1396C45.2239 53.1158 45.2239 53.0981 45.2239 53.0743C45.2239 52.9972 45.2358 52.9142 45.2358 52.8371C45.2358 52.7422 45.2417 52.6533 45.2417 52.5584V52.5465V47.8792H56.741C56.9312 47.8792 57.1155 47.8673 57.2999 47.8495V47.8792H64.6846L64.7143 47.8554Z" fill="#263772"/>
<path d="M26.4887 40.4185C26.4946 40.46 26.4946 40.5016 26.4946 40.5371C26.4946 40.8633 26.4768 41.1776 26.4411 41.4801C26.4233 41.6995 26.3876 41.919 26.346 42.1325V42.1443C26.3222 42.2689 26.2924 42.3875 26.2627 42.5061C26.2627 42.512 26.2627 42.5179 26.2568 42.5239C26.2568 42.5417 26.2508 42.5595 26.2449 42.5832C26.1497 42.9331 26.0368 43.2771 25.8941 43.5973C25.8881 43.6092 25.8881 43.6151 25.8822 43.621C25.8525 43.6981 25.8108 43.7752 25.7752 43.8523C25.7692 43.8701 25.7633 43.876 25.7573 43.8879C25.6919 44.0184 25.6265 44.1429 25.5552 44.2615C25.5433 44.2852 25.5314 44.303 25.5195 44.3268C25.5195 44.3327 25.5135 44.3386 25.5076 44.3446C25.5017 44.3564 25.4898 44.3683 25.4838 44.3861C25.4779 44.3861 25.4779 44.392 25.4719 44.3979C25.4541 44.4276 25.4362 44.4513 25.4184 44.481C25.3114 44.647 25.1984 44.8071 25.0736 44.9673C25.0617 44.9851 25.0438 45.0028 25.0319 45.0206C25.0319 45.0206 25.0299 45.0226 25.026 45.0266C25.026 45.0266 24.9784 45.0859 24.9546 45.1155C24.9487 45.1274 24.9427 45.1333 24.9368 45.1452C24.8833 45.1986 24.8357 45.2579 24.7822 45.3172C24.7465 45.3527 24.7109 45.3943 24.6692 45.4298C24.58 45.5247 24.4909 45.6196 24.3898 45.7086C24.3898 45.7145 24.3838 45.7204 24.3779 45.7204C24.2292 45.8568 24.0806 45.9873 23.9201 46.1119C23.7536 46.2364 23.5752 46.355 23.3968 46.4677C23.373 46.4796 23.3552 46.4973 23.3314 46.5092C23.3314 46.5151 23.3195 46.5151 23.3136 46.5211C23.2601 46.5566 23.2066 46.5863 23.1471 46.6219C23.1233 46.6337 23.0995 46.6456 23.0758 46.6634C23.046 46.6812 23.0103 46.699 22.9747 46.7168H22.9687C22.9152 46.7464 22.8677 46.7761 22.8201 46.7998C22.7844 46.8176 22.7487 46.8354 22.7131 46.8532C22.6952 46.865 22.6774 46.871 22.6536 46.8828C22.6298 46.8947 22.606 46.9066 22.5882 46.9125C22.5644 46.9243 22.5466 46.9362 22.5287 46.9421C22.3741 47.0133 22.2196 47.0785 22.065 47.1438C22.0174 47.1616 21.9758 47.1794 21.9282 47.1912C21.9282 47.1972 21.9223 47.1971 21.9223 47.1971C21.8688 47.2149 21.8212 47.2327 21.7736 47.2505C21.7498 47.2565 21.7261 47.2683 21.6963 47.2742C21.6844 47.2802 21.6725 47.2861 21.6547 47.292C21.5655 47.3217 21.4644 47.3513 21.3693 47.381C21.3039 47.4047 21.2385 47.4225 21.1731 47.4403C21.0839 47.464 21.0007 47.4877 20.9115 47.5115C20.8996 47.5174 20.8877 47.5174 20.8758 47.5174C20.8461 47.5293 20.8223 47.5352 20.7926 47.5411C20.7093 47.5589 20.6261 47.5767 20.5369 47.6004C20.525 47.6004 20.5131 47.6004 20.5012 47.6004C20.4774 47.6064 20.4536 47.6064 20.4358 47.6123C20.3882 47.6241 20.3407 47.6301 20.2991 47.636C20.2396 47.6479 20.1801 47.6597 20.1207 47.6716C20.0969 47.6775 20.0731 47.6775 20.0493 47.6835C19.972 47.6953 19.8947 47.7072 19.8174 47.719L19.7104 47.7368H19.7045C19.651 47.7428 19.5915 47.7487 19.5439 47.7546L19.4012 47.7724C19.3656 47.7783 19.3299 47.7783 19.2942 47.7843H19.2883C19.1872 47.7961 19.0802 47.8021 18.9731 47.808C18.9196 47.8139 18.8661 47.8199 18.8185 47.8199C18.7591 47.8258 18.6996 47.8258 18.6402 47.8317C18.5748 47.8317 18.5094 47.8376 18.4499 47.8376C18.2953 47.8436 18.1407 47.8436 17.9861 47.8436H8.50848C6.43933 47.8495 3.97776 48.662 3.97776 52.5228C3.97776 54.2604 4.56045 57.1783 8.50848 57.1783L8.80577 57.1723C10.1911 57.1486 11.2971 56.9648 12.1711 56.6801C12.7776 56.4844 13.2711 56.2353 13.6754 55.9566L11.8798 59.6276C10.9938 59.7343 10.0603 59.7936 9.07333 59.8055C8.88307 59.8114 8.69874 59.8114 8.50848 59.8114C3.26426 59.8114 0 57.0181 0 52.5228C0 50.1743 0.891874 48.2469 2.57454 46.9599C4.06695 45.8153 6.11826 45.2104 8.50848 45.2104H17.9861C20.0553 45.2104 22.5228 44.3979 22.5228 40.5312C22.5228 40.3948 22.5168 40.2525 22.505 40.0983C22.3504 38.5504 21.0482 37.3406 19.4666 37.3406H9.65602V34.7015H20.7985C23.7893 34.7015 26.2508 37.0263 26.4768 39.9678C26.4827 40.0924 26.4887 40.205 26.4887 40.3236C26.4946 40.3533 26.4946 40.3829 26.4946 40.4126H26.4887V40.4185Z" fill="#263772"/>
<path d="M11.523 52.5228C11.523 51.5324 10.8095 50.9156 9.65605 50.9156C9.13282 50.9156 8.68094 51.0461 8.35392 51.3011C7.98527 51.5858 7.78906 52.0068 7.78906 52.5228C7.78906 53.5132 8.50256 54.124 9.65605 54.124C10.8095 54.124 11.523 53.5073 11.523 52.5228Z" fill="#263772"/>
<path d="M74.3824 50.3166V52.5762L65.8799 54.0707C64.4648 54.3197 63.1032 53.6081 62.4729 52.4101L74.3824 50.3107V50.3166Z" fill="#263772"/>
<path d="M162 47.8554L154.086 39.9619C152.897 38.7758 151.874 37.4948 151.006 36.1367C146.374 28.8658 146.374 19.4956 151.006 12.2247C151.868 10.8666 152.897 9.57967 154.086 8.39356L162 16.2871C154.449 23.8189 153.42 35.3954 158.92 44.0302C159.788 45.3883 160.811 46.6753 162 47.8614" fill="#78C2AA"/>
<path d="M154.086 39.9619L146.172 47.8554C138.621 40.3236 127.015 39.2977 118.363 44.7834C117.002 45.6493 115.712 46.6693 114.522 47.8554L122.436 39.9619C123.626 38.7758 124.916 37.7498 126.277 36.8899C133.567 32.27 142.961 32.27 150.251 36.8899C151.613 37.7498 152.903 38.7758 154.092 39.9619" fill="#78C2AA"/>
<path d="M122.436 39.9619L114.522 32.0683C122.08 24.5306 123.102 12.9542 117.596 4.31927C116.734 2.96118 115.706 1.68018 114.522 0.494068L122.436 8.38763C123.62 9.57374 124.648 10.8547 125.51 12.2069C130.148 19.4837 130.148 28.848 125.51 36.1248C124.642 37.4829 123.62 38.7698 122.43 39.956" fill="#78C2AA"/>
<path d="M162 0.5L154.086 8.39356C152.897 9.57967 151.607 10.6057 150.245 11.4656C142.955 16.0855 133.567 16.0855 126.277 11.4656C124.916 10.6057 123.62 9.57967 122.43 8.38763L130.35 0.5C137.901 8.0318 149.508 9.05778 158.159 3.57203C159.52 2.7121 160.811 1.68611 162 0.5Z" fill="#78C2AA"/>
</g>
<defs>
<clipPath id="clip0_4_564">
<rect width="162" height="76" fill="white" transform="translate(0 0.5)"/>
</clipPath>
</defs>
</svg>
