<?xml version="1.0" encoding="UTF-8"?>
<svg id="Layer_2" data-name="Layer 2" xmlns="http://www.w3.org/2000/svg" viewBox="0 0 1306.11 289.86">
  <defs>
    <style>
      .cls-1 {
        fill: #fff;
      }
    </style>
  </defs>
  <g id="Layer_1-2" data-name="Layer 1">
    <g>
      <g>
        <path class="cls-1" d="M195.15,175.85c-4.07-21.73-3.76-44.08.98-65.67,1.79-8.13,4.48-16.03,7.39-23.8-4.43,1.42-8.73,3.24-13.23,4.52-31.47,9.01-63.99,8.59-95.25-1.17-2.96-.93-5.92-1.83-8.63-3.36-.69.79,3.9,12.82,4.52,15.15,7.17,26.56,7.98,53.19,1.9,80.06-1.68,7.43-4.33,14.59-6.42,21.88,37.57-14,78.56-14.01,116.15,0-2.2-9.27-5.65-18.21-7.41-27.62ZM152.2,179.44c-15.7-.76-31.13,1.94-46.6,3.88,4.18-14.69,4.78-30.36,4.81-45.59l-3.84-31.18c25.08,5.72,51.68,5.25,76.79,0-2.98,11.02-3.51,21.8-3.83,33.11-.21,7.44-.66,15.27.09,22.93.68,6.92,2.43,13.92,3.74,20.73l-31.15-3.88Z"/>
        <path class="cls-1" d="M232.06,109.64c-3.29,11.46-4.64,22.56-5.5,34.33l1.93-.46,61.43-61.44v-45.59c-27.71,15.16-49.14,42.8-57.86,73.17Z"/>
        <path class="cls-1" d="M171.86,60c33.94-7.3,64.56-29.87,81.58-60h-45.6l-61.92,61.91c8.59,1.36,17.51-.09,25.93-1.91Z"/>
        <path class="cls-1" d="M62.44,139.61c-.41-5.36-1.3-11.62-2.25-16.95C53.75,86.5,31.28,55.2,0,36.47v46.55l60.97,60.94c2.08,1.04,1.56-3.29,1.47-4.36Z"/>
        <path class="cls-1" d="M226.54,147.34c3.46,41.92,19.74,78.13,55.4,102.03,1.15.77,7.21,4.86,7.99,4.01v-44.63l-62.88-62.86c-.75-.14-.55.85-.5,1.45Z"/>
        <path class="cls-1" d="M107.74,232.97c-26.72,7.99-52.48,26.98-67.83,50.24-.62.93-3.94,6.19-3.43,6.65h45.6l61.92-61.91c-12.06-.85-24.67,1.56-36.25,5.03Z"/>
        <path class="cls-1" d="M114.03,59.24c9.32,2.26,19.44,4.06,29.01,2.67L81.12,0h-45.6c16.81,28.94,45.77,51.3,78.51,59.24Z"/>
        <path class="cls-1" d="M61.92,145.89L0,207.79v45.59l21.14-14.86c19.93-18.62,34.13-43.35,39.05-70.37,1.31-7.2,2.49-15.03,1.73-22.26Z"/>
        <path class="cls-1" d="M161.66,228.53c-4.88-.66-10.99-1.4-15.74-.58l61.92,61.91h45.6c-19.76-32.88-53.43-56.17-91.78-61.33Z"/>
      </g>
      <g>
        <path class="cls-1" d="M1040.81,80.69v42.71c0,2.5-5.56,5.63-8.15,5.29h-104.66c-2.22-.07-2.46-1.94-2.4-3.86-2.38,1.21-7.6,3.85-10.07,3.85h-86.88c1.88,13.49-9.79,23.96-23.04,22.08v-7.69c6.03.6,11.47-.52,14.45-6.19.4-.76,1.87-4.45,1.87-4.84v-31.19h6.72v18.72l1.44,1.44h72.96l1.44-1.44v-25.43l6.1.14,1.58,1.3v25.43c2.99,1.54,13.44-2.44,13.44-5.28v-21.6h7.68v26.87c2.72,1.24,12.48-1.38,12.48-4.32v-22.55h7.68s-.96,26.87-.96,26.87h79.2l1.44-1.44v-38.87h7.68Z"/>
        <path class="cls-1" d="M1190.57,103.73h7.68s.47,12.47.47,12.47c3.15-3.53,4.09-8.66,6.78-12.42,8.33-11.68,26.47-10.18,33.09,2.32,2.91,5.49.94,9.25,2.79,14.48,1.14.76,24.34.72,27.37.34,7.37-.92,4.72-11.36,5.4-16.65,2.13-16.49,29.4-16.49,31.53,0,1.98,15.27-2.9,27.17-20.35,24.18-2.55-.44-6.55-3.38-6.94-3.38-.72,0-3.7,3.41-5.73,2.67l-112.89.39-.78,1.14c.98,13.62-9.9,22.99-23.17,21.48v-7.69c5.72.48,11.13-.23,13.97-5.7.48-.93,2.35-5.76,2.35-6.29v-30.23h6.72v18.72l1.44,1.44h28.8l1.44-1.44v-15.84ZM1287.23,100.07c-6.31,1.9-7.19,15.97-2,19.87,16.65,8.02,17.11-24.42,2-19.87ZM1205.93,121h26.4l1.3-1.57c1.36-10.48-6.43-18.67-17.2-15.28-4.9,1.55-9.71,12.05-10.51,16.85Z"/>
        <path class="cls-1" d="M502.25,121l24.01-.47c5.3-2.69.27-17.6,7.25-24.42s22.41-5.12,26.4,4.2c6.13,14.3-1.04,31.18-18.56,28.15-2.32-.4-7.03-3.36-7.9-3.31-.97.06-3.1,2.58-3.84,2.58h-35.04v-21.6c0-2.35-3.94-6.45-6.43-7.01-6.75-1.5-18.29-.89-17.56,8.44,5.98-.19,13.82-.7,17.5,5.06,6.15,9.64.86,22.55-10.52,24.47-6.52,1.1-24.56.78-30.54-1.66-13.88-5.66-13.04-27.92-.87-35.52,1.95-.44,3.85,4.5,4.14,6.08-5.41,4.97-7.64,9.64-5.15,16.94,1.62,4.75,4.69,6.38,9.55,6.76,4.34.34,21.17.56,24.28-.77,6.69-2.86,3.59-13.67.73-13.67h-15.36l-1.3-1.58c-.92-7.81,1.43-19.13,10.15-21.25,2.09-.51,8.2-1.29,10.35-1.25,5.49.11,12.8,2.45,15.7,7.41.58.99,3.02,7.87,3.02,8.5v13.92ZM543.26,100.07c-7.2,1.57-7.38,16-2.58,19.46,14.11,10.17,18.65-22.97,2.58-19.46Z"/>
        <path class="cls-1" d="M599.21,80.69v40.31h32.64v-26.87h7.68v26.87c3.88.24,9.15.21,11.96-2.91.36-.4,2.44-4.04,2.44-4.28v-19.68h6.72v25.43c2.33,2.7,9.47,1.81,11.59-.89l1.02-22.98,1.44-1.44,6.12-.13v24.47c0,.81-3.27,5.37-4.31,6.25-5.87,4.97-14.88,2.11-22.06,2.92l-1-2.94-6.69,2.92-81.15-.02v-6.73s10.57,0,10.57,0l-6.76-31.13c.07-.75,5.1-1.55,6.28-1.54,2,0,1.19-.03,1.45,1.46,1.78,10.16,4.97,20.21,7.15,30.29l7.23.93v-40.31h7.68Z"/>
        <path class="cls-1" d="M950.57,171.87l8.51.14,15.98,36.34c1.93.4,1.36-.73,1.86-1.93,4.88-11.53,10.11-22.92,15.06-34.41l8.51-.14v46.55c-1.76,2.2-5.92,2.2-7.68,0v-30.23l-14.31,31.09-5.23.44-15.02-31.53v30.23c-1.76,2.2-5.92,2.2-7.68,0v-46.55Z"/>
        <path class="cls-1" d="M1141.13,171.87c1.24.26,5.25,3.13,6.28,4.28,4.59,5.09,4.01,15.55-2.92,17.81v1.89c10.64,3.88,8.46,19.38-1.89,22.6-.77.24-5.95,1.41-6.27,1.41h-21.12l-1.44-1.44v-46.55c7.89,1.13,20.04-1.52,27.36,0ZM1136.33,177.63c-4.38-.72-10.29.52-14.88,0v14.4h16.8c.4,0,3.51-2.21,3.85-2.86.95-1.85.73-8.04-.7-9.4-1.5-.29-3.96-1.95-5.07-2.13ZM1139.21,198.75c-4.8-1.01-12.57.74-17.76,0v14.4h15.84c.27,0,4.86-1.95,5.06-2.14,3.52-3.38,1.68-11.24-3.14-12.25Z"/>
        <path class="cls-1" d="M1135.85,93.17v32.15l-4.27,2.45c-14.09-.94-29.36,1.08-43.29,0-15.46-1.2-22.16-21.33-12.44-32.66l5.17,4.43c-3.41,6.51-3.66,14.57,3.02,19.03.71.47,4.91,2.44,5.24,2.44h17.76c-3.92-8.5-1.21-18.4,6.24-23.99,1.14-.86,6.8-3.84,7.68-3.84h14.88ZM1129.13,100.85c-8.09-1.34-16.45,3.15-16.41,12.01.03,7.19,11.38,10.39,16.41,6.71v-18.72Z"/>
        <path class="cls-1" d="M793.1,108.56l.04,7.65c-9.81-.06-32.05,5.99-34.35,17-3.95,18.9,22.2,16.92,33.38,11.79l1.52,7.7c-11.97,6.57-40.36,5.95-42.72-11.13s8.51-24.76,22.5-29.21c1.29-.41,1.74.72,1.43-1.9-7.83-2.42-12.68-5.76-18.22,2.43l-5.73-3.03c-.44-1.53,2.15-5.03,3.27-6.16,11.88-11.94,25.66,4.83,38.89,4.87Z"/>
        <path class="cls-1" d="M1213.61,171.87l7.69.47c7.45,10.74,15.26,21.21,22.78,31.9.62.89-.07,1.71,2.17,1.22v-33.59h6.72v46.55c-1.52,2.09-5.4,2.04-7.27.55l-24.41-33.66v33.11c-1.76,2.2-5.92,2.2-7.68,0v-46.55Z"/>
        <path class="cls-1" d="M669.77,171.87c.51.11,4.17,2.32,4.82,2.86,8.46,7.12,4.85,24.01-7.22,24.01.02.74-.12,1.55.14,2.26.86,2.41,8.65,10.97,10.8,14.15.59.87,3.27,3.99,2.5,4.69-11.03,2.52-13.92-10.22-20.16-16.79-2.61-2.74-6.4-5.25-9.59-1.93v18.72h-6.72v-47.99c7.35,1.05,18.63-1.42,25.44,0ZM651.05,179.07v14.88h13.92c.27,0,4.85-1.95,5.06-2.15,2.64-2.52,2.62-9.49,0-12.02-2.28-2.21-18.26-3.46-18.98-.71Z"/>
        <path class="cls-1" d="M583.86,185.31l-6.59-.13c-1.15-11.84-22.21-11-20.31.58,1.49,9.03,24.89,3.39,27.64,16.55,4.75,22.7-35.2,25.08-36.27,3.16l7.59.08c1.09,12.5,24.8,11.58,21.03-2.31-1.9-6.39-24.81-2.29-26.66-14.61-2.32-15.51,9.57-20.13,23.05-17.28,6.31,1.33,10.59,7.63,10.51,13.97Z"/>
        <path class="cls-1" d="M848.81,185.3l-7.59-.08c-.82-15.03-27.4-7.78-18.36,3.48,4.09,5.1,22.32,1.74,25.53,11.9,7.37,23.33-33.83,27.99-36.05,4.86l7.54.13c1.1,13.72,27.28,9.02,21.73-2.05-3.6-7.18-24.51-2.46-27.15-15.09-4.65-22.26,32.4-24.69,34.35-3.16Z"/>
        <path class="cls-1" d="M1276.97,171.87v19.2l19.21-18.71,9.59-.48-22.02,23.39,22.03,24.11c-9,2.9-10.6-2.81-15.34-7.7-4.32-4.45-8.73-8.93-13.46-12.93v19.68l-1.58,1.3-6.1.14v-47.99h7.68Z"/>
        <path class="cls-1" d="M731.69,219.86l-7.56-.11-4.56-11.45h-19.9s-4.59,11.42-4.59,11.42c-2.5.22-5.76.96-7.52-1.29l18.34-46.44,8.06.83,17.74,47.04ZM717.29,201.62l-6.73-19.2c-4.68,4.88-5.45,13.16-8.63,19.2h15.36Z"/>
        <path class="cls-1" d="M462.76,172.01l18.36,46.41c-8.71,5.66-9.63-3.46-11.59-9.99l-20.41-.13c-4.05,6.13-2.05,13.55-12.14,11.56l18.37-47.84h7.41ZM466.73,201.62c-3.5-5.86-3.95-14.38-8.63-19.2l-6.73,19.2h15.36Z"/>
        <path class="cls-1" d="M1079.21,188.18l-6.77-.42c-2.82-9.75-11.29-13-20.44-9-8.49,3.71-9.05,19.99-5.6,27.36,4.49,9.6,18.29,10.76,24.05,1.62,2.78-4.41.48-6.16,8.77-5.15-.63,16.9-20.89,22.92-33.55,13.86-14.1-10.1-11.34-42.9,8.18-45.46,13.29-1.74,24.17,2.77,25.37,17.2Z"/>
        <path class="cls-1" d="M940.01,219.86c-9.53,1.88-8.59-4.85-11.65-11.37l-20.9-.05-3.88,11-6.77.43,17.37-47.89c2.76.04,6.74-1.16,8.46,1.44l17.37,46.46ZM925.61,201.62l-6.73-19.19c-1.38.09-1.48,1.47-1.94,2.37-2.7,5.31-3.87,11.55-6.69,16.83h15.36Z"/>
        <path class="cls-1" d="M1203.05,219.86c-9.53,1.88-8.59-4.85-11.65-11.37l-20.9-.05-3.88,11-6.77.43,17.37-47.89c2.76.04,6.74-1.16,8.46,1.44l17.37,46.46ZM1188.65,201.62l-6.73-19.19c-1.38.09-1.48,1.47-1.94,2.37-2.69,5.27-3.66,11.65-6.69,16.83h15.36Z"/>
        <path class="cls-1" d="M630.89,171.87v5.76h-24.48c-2.99,3.58-.8,9.86-1.44,14.4h22.08c-.08,2.42.75,5.17-1.44,6.72h-20.64c.64,4.54-1.55,10.81,1.44,14.4h24.48v6.72h-32.64v-47.99h32.64Z"/>
        <path class="cls-1" d="M719.21,80.69v44.63c0,.17-2.23,2.4-2.4,2.4h-31.2v-6.72s10.56,0,10.56,0l-6.73-31.67,7.59-.87,7.67,31.99,6.82.55v-40.31h7.68Z"/>
        <polygon class="cls-1" points="499.37 171.87 499.37 213.14 520.49 213.14 520.49 219.86 491.69 219.86 491.69 171.87 499.37 171.87"/>
        <polygon class="cls-1" points="869.93 171.87 869.93 213.14 891.05 213.14 891.05 219.86 862.25 219.86 862.25 171.87 869.93 171.87"/>
        <path class="cls-1" d="M758.57,171.87v35.99c0,.26-1.41,4.29-1.73,4.99-3.61,7.95-12.64,8.78-20.32,6.97l-.03-6.69c.57-.62,8.88,2.89,12.53-1.38.34-.4,1.86-3.68,1.86-3.89v-35.99h7.68Z"/>
        <polygon class="cls-1" points="800.81 171.87 800.81 218.42 799.24 219.72 793.13 219.86 793.13 171.87 800.81 171.87"/>
        <rect class="cls-1" x="1045.61" y="80.69" width="7.68" height="47.03"/>
        <rect class="cls-1" x="797.93" y="80.69" width="7.68" height="47.03"/>
        <rect class="cls-1" x="1016.81" y="171.87" width="6.72" height="47.99"/>
        <rect class="cls-1" x="724.97" y="80.69" width="6.72" height="47.03"/>
        <path class="cls-1" d="M933.22,71.15c.6.38,1.58,6.59.92,7.51-1.54,1.42-4.75.22-5.68.64-.82.37-1.4,1.93-2.55,2.25-4.34,1.18-5.71-4.4-5.09-7.57h2.87c-.7,6.25,4.49,5.86,1.92,0l2.72.18,3.03,2.69-.95-5.75,2.8.05Z"/>
        <path class="cls-1" d="M776.51,130.76c7.64-2.26,8.47,9.56.82,8.51-4.43-.61-4.63-7.38-.82-8.51Z"/>
        <path class="cls-1" d="M468.35,140.36c6.36-1.88,8.05,6.95,3.48,8.31-6.69,1.99-8.1-6.95-3.48-8.31Z"/>
        <path class="cls-1" d="M461.71,141.39c4.41,4.41-2.86,10.74-6.57,6.09-3.73-4.67,2.74-9.92,6.57-6.09Z"/>
        <path class="cls-1" d="M1125.03,80.82c4.25-.75,7.52,6.86,2.48,8.35-6.66,1.98-8.68-7.26-2.48-8.35Z"/>
        <path class="cls-1" d="M936.17,79.73l-.98,3.34-11.49,3.38c-3.43-3.35,10.73-6.51,12.47-6.71Z"/>
      </g>
    </g>
  </g>
</svg>