<?xml version="1.0" encoding="UTF-8"?>
<svg id="Layer_2" data-name="Layer 2" xmlns="http://www.w3.org/2000/svg" viewBox="0 0 289.92 289.86">
  <defs>
    <style>
      .cls-1 {
        fill: #6e58a5;
      }
    </style>
  </defs>
  <g id="Layer_1-2" data-name="Layer 1">
    <g>
      <path class="cls-1" d="M195.15,175.85c-4.07-21.73-3.76-44.08.98-65.67,1.79-8.13,4.48-16.03,7.39-23.8-4.43,1.42-8.73,3.24-13.23,4.52-31.47,9.01-63.99,8.59-95.25-1.17-2.96-.93-5.92-1.83-8.63-3.36-.69.79,3.9,12.82,4.52,15.15,7.17,26.56,7.98,53.19,1.9,80.06-1.68,7.43-4.33,14.59-6.42,21.88,37.57-14,78.56-14.01,116.15,0-2.2-9.27-5.65-18.21-7.41-27.62ZM152.2,179.44c-15.7-.76-31.13,1.94-46.6,3.88,4.18-14.69,4.78-30.36,4.81-45.59l-3.84-31.18c25.08,5.72,51.68,5.25,76.79,0-2.98,11.02-3.51,21.8-3.83,33.11-.21,7.44-.66,15.27.09,22.93.68,6.92,2.43,13.92,3.74,20.73l-31.15-3.88Z"/>
      <path class="cls-1" d="M232.06,109.64c-3.29,11.46-4.64,22.56-5.5,34.33l1.93-.46,61.43-61.44v-45.59c-27.71,15.16-49.14,42.8-57.86,73.17Z"/>
      <path class="cls-1" d="M171.86,60c33.94-7.3,64.56-29.87,81.58-60h-45.6l-61.92,61.91c8.59,1.36,17.51-.09,25.93-1.91Z"/>
      <path class="cls-1" d="M62.44,139.61c-.41-5.36-1.3-11.62-2.25-16.95C53.75,86.5,31.28,55.2,0,36.47v46.55l60.97,60.94c2.08,1.04,1.56-3.29,1.47-4.36Z"/>
      <path class="cls-1" d="M226.54,147.34c3.46,41.92,19.74,78.13,55.4,102.03,1.15.77,7.21,4.86,7.99,4.01v-44.63l-62.88-62.86c-.75-.14-.55.85-.5,1.45Z"/>
      <path class="cls-1" d="M107.74,232.97c-26.72,7.99-52.48,26.98-67.83,50.24-.62.93-3.94,6.19-3.43,6.65h45.6l61.92-61.91c-12.06-.85-24.67,1.56-36.25,5.03Z"/>
      <path class="cls-1" d="M114.03,59.24c9.32,2.26,19.44,4.06,29.01,2.67L81.12,0h-45.6c16.81,28.94,45.77,51.3,78.51,59.24Z"/>
      <path class="cls-1" d="M61.92,145.89L0,207.79v45.59l21.14-14.86c19.93-18.62,34.13-43.35,39.05-70.37,1.31-7.2,2.49-15.03,1.73-22.26Z"/>
      <path class="cls-1" d="M161.66,228.53c-4.88-.66-10.99-1.4-15.74-.58l61.92,61.91h45.6c-19.76-32.88-53.43-56.17-91.78-61.33Z"/>
    </g>
  </g>
</svg>